<svg xmlns="http://www.w3.org/2000/svg" xmlns:xlink="http://www.w3.org/1999/xlink" viewBox="0 0 2839.28 1063.59"><defs><style>.cls-1{fill:url(#radial-gradient);}.cls-2{fill:url(#radial-gradient-2);}.cls-3{fill:url(#radial-gradient-3);}.cls-4{fill:url(#radial-gradient-4);}.cls-5{fill:url(#radial-gradient-5);}.cls-6{fill:url(#radial-gradient-6);}.cls-7{fill:url(#radial-gradient-7);}.cls-8{fill:url(#radial-gradient-8);}.cls-9{fill:url(#radial-gradient-9);}.cls-10{fill:url(#radial-gradient-10);}.cls-11{fill:url(#radial-gradient-11);}.cls-12{fill:url(#radial-gradient-12);}.cls-13{fill:url(#radial-gradient-13);}.cls-14{fill:url(#radial-gradient-14);}.cls-15{fill:url(#radial-gradient-15);}.cls-16{fill:url(#radial-gradient-16);}.cls-17{fill:url(#radial-gradient-17);}.cls-18{fill:url(#radial-gradient-18);}.cls-19{fill:url(#radial-gradient-19);}.cls-20{fill:url(#radial-gradient-20);}.cls-21{fill:url(#radial-gradient-21);}.cls-22{fill:url(#radial-gradient-22);}.cls-23{fill:url(#radial-gradient-23);}.cls-24{fill:url(#radial-gradient-24);}.cls-25{fill:none;}.cls-26{isolation:isolate;}.cls-27{clip-path:url(#clip-path);}.cls-28{mask:url(#mask);}.cls-29,.cls-32,.cls-41,.cls-54{fill:#036;mix-blend-mode:multiply;}.cls-29{opacity:0.5;}.cls-30{mask:url(#mask-2);}.cls-31{mask:url(#mask-3);}.cls-32{opacity:0.4;}.cls-33{mask:url(#mask-4);}.cls-34{mask:url(#mask-5);}.cls-35{mask:url(#mask-6);}.cls-36{mask:url(#mask-7);}.cls-37{mask:url(#mask-8);}.cls-38{mask:url(#mask-9);}.cls-39{fill:url(#linear-gradient);}.cls-40{mask:url(#mask-10);}.cls-41{opacity:0.3;}.cls-42{mask:url(#mask-11);}.cls-43{mask:url(#mask-12);}.cls-44{mask:url(#mask-13);}.cls-45{mask:url(#mask-14);}.cls-46{mask:url(#mask-15);}.cls-47{mask:url(#mask-16);}.cls-48{mask:url(#mask-17);}.cls-49{fill:url(#linear-gradient-2);}.cls-50{fill:url(#linear-gradient-3);}.cls-51{fill:url(#linear-gradient-4);}.cls-52{fill:url(#linear-gradient-5);}.cls-53{mask:url(#mask-18);}.cls-54{opacity:0.6;}.cls-55{mask:url(#mask-19);}.cls-56{mask:url(#mask-20);}.cls-57{mask:url(#mask-21);}.cls-58{mask:url(#mask-22);}.cls-59{mask:url(#mask-23);}.cls-60{mask:url(#mask-24);}.cls-61{fill:#fff;}</style><radialGradient id="radial-gradient" cx="1741.11" cy="5618.08" r="138.97" gradientTransform="matrix(1.14, 0, 0, -1.17, -178.96, 7181.46)" gradientUnits="userSpaceOnUse"><stop offset="0" stop-color="#fff"/><stop offset="0.16" stop-color="#c2c2c2"/><stop offset="0.32" stop-color="#878787"/><stop offset="0.49" stop-color="#575757"/><stop offset="0.64" stop-color="#313131"/><stop offset="0.78" stop-color="#161616"/><stop offset="0.9" stop-color="#060606"/><stop offset="1"/></radialGradient><radialGradient id="radial-gradient-2" cx="1218.72" cy="5631.59" r="193" gradientTransform="matrix(1.84, 0, 0, -1.17, -926.05, 7181.46)" xlink:href="#radial-gradient"/><radialGradient id="radial-gradient-3" cx="754.65" cy="5641.07" r="162.71" xlink:href="#radial-gradient"/><radialGradient id="radial-gradient-4" cx="1261.08" cy="5717.03" r="162.71" xlink:href="#radial-gradient"/><radialGradient id="radial-gradient-5" cx="1476.81" cy="5855.92" r="217.11" gradientTransform="matrix(1.14, 0, 0, -1.08, -178.96, 6778.64)" xlink:href="#radial-gradient"/><radialGradient id="radial-gradient-6" cx="1980.09" cy="5625.87" r="162.71" xlink:href="#radial-gradient"/><radialGradient id="radial-gradient-7" cx="1682.54" cy="5719.32" r="193.97" xlink:href="#radial-gradient"/><radialGradient id="radial-gradient-8" cx="1825.14" cy="5698.88" r="193.97" xlink:href="#radial-gradient"/><radialGradient id="radial-gradient-9" cx="2065.93" cy="5582.99" r="193.97" xlink:href="#radial-gradient"/><radialGradient id="radial-gradient-10" cx="416.25" cy="5805.97" r="259.25" xlink:href="#radial-gradient"/><radialGradient id="radial-gradient-11" cx="706.13" cy="5755.98" r="259.25" xlink:href="#radial-gradient"/><radialGradient id="radial-gradient-12" cx="875.58" cy="5676.02" r="259.25" xlink:href="#radial-gradient"/><radialGradient id="radial-gradient-13" cx="1463.74" cy="5607.95" r="289.72" gradientTransform="matrix(1.84, 0, 0, -1.17, -926.05, 7181.46)" xlink:href="#radial-gradient"/><radialGradient id="radial-gradient-14" cx="1045.68" cy="5683.4" r="259.25" xlink:href="#radial-gradient"/><radialGradient id="radial-gradient-15" cx="1211.66" cy="5817.46" r="259.25" xlink:href="#radial-gradient"/><radialGradient id="radial-gradient-16" cx="1485.73" cy="5855.52" r="259.25" xlink:href="#radial-gradient"/><radialGradient id="radial-gradient-17" cx="1791.98" cy="5864.61" r="259.25" xlink:href="#radial-gradient"/><radialGradient id="radial-gradient-18" cx="1753.89" cy="5506.64" r="289.72" gradientTransform="matrix(1.84, 0, 0, -1.17, -926.05, 7181.46)" xlink:href="#radial-gradient"/><radialGradient id="radial-gradient-19" cx="958.52" cy="5597.16" r="193" gradientTransform="matrix(1.84, 0, 0, -1.17, -926.05, 7181.46)" xlink:href="#radial-gradient"/><radialGradient id="radial-gradient-20" cx="791" cy="5577.56" r="193" gradientTransform="matrix(1.84, 0, 0, -1.17, -926.05, 7181.46)" xlink:href="#radial-gradient"/><radialGradient id="radial-gradient-21" cx="756.17" cy="5519.66" r="193" gradientTransform="matrix(1.84, 0, 0, -1.17, -926.05, 7181.46)" xlink:href="#radial-gradient"/><radialGradient id="radial-gradient-22" cx="971.55" cy="5580.94" r="193" gradientTransform="matrix(1.84, 0, 0, -1.17, -926.05, 7181.46)" xlink:href="#radial-gradient"/><radialGradient id="radial-gradient-23" cx="1175.45" cy="5597.82" r="193" gradientTransform="matrix(1.23, 0, 0, -1.17, -273.21, 7181.46)" xlink:href="#radial-gradient"/><radialGradient id="radial-gradient-24" cx="435.87" cy="5644.13" r="204.4" xlink:href="#radial-gradient"/><clipPath id="clip-path"><rect class="cls-25" x="184.53" y="282" width="1920" height="756"/></clipPath><mask id="mask" x="1647.17" y="430.17" width="316.77" height="325.95" maskUnits="userSpaceOnUse"><ellipse class="cls-1" cx="1805.55" cy="593.14" rx="158.38" ry="162.97"/></mask><mask id="mask-2" x="963.86" y="350.97" width="711.16" height="452.67" maskUnits="userSpaceOnUse"><ellipse class="cls-2" cx="1319.44" cy="577.3" rx="355.58" ry="226.33"/></mask><mask id="mask-3" x="1237.1" y="265.25" width="1067.57" height="679.53" maskUnits="userSpaceOnUse"><ellipse class="cls-13" cx="1770.88" cy="605.02" rx="533.78" ry="339.77"/></mask><mask id="mask-4" x="1771.71" y="384.06" width="1067.57" height="679.53" maskUnits="userSpaceOnUse"><ellipse class="cls-18" cx="2305.5" cy="723.82" rx="533.78" ry="339.77"/></mask><mask id="mask-5" x="484.45" y="391.34" width="711.16" height="452.67" maskUnits="userSpaceOnUse"><ellipse class="cls-19" cx="840.02" cy="617.67" rx="355.58" ry="226.33"/></mask><mask id="mask-6" x="175.8" y="414.33" width="711.16" height="452.67" maskUnits="userSpaceOnUse"><ellipse class="cls-20" cx="531.38" cy="640.66" rx="355.58" ry="226.33"/></mask><mask id="mask-7" x="111.61" y="482.23" width="711.16" height="452.67" maskUnits="userSpaceOnUse"><ellipse class="cls-21" cx="467.19" cy="708.56" rx="355.58" ry="226.33"/></mask><mask id="mask-8" x="508.45" y="410.37" width="711.16" height="452.67" maskUnits="userSpaceOnUse"><ellipse class="cls-22" cx="864.03" cy="636.7" rx="355.58" ry="226.34"/></mask><mask id="mask-9" x="932.18" y="390.57" width="473.55" height="452.67" maskUnits="userSpaceOnUse"><ellipse class="cls-23" cx="1168.95" cy="616.9" rx="236.78" ry="226.34"/></mask><linearGradient id="linear-gradient" x1="1079.81" y1="5106.38" x2="1230.93" y2="5589.34" gradientTransform="matrix(1, 0, 0, -1, 0, 5948.03)" gradientUnits="userSpaceOnUse"><stop offset="0" stop-color="#ebf5ff"/><stop offset="1" stop-color="#cce5ff"/></linearGradient><mask id="mask-10" x="84.88" y="322.88" width="465.92" height="479.42" maskUnits="userSpaceOnUse"><ellipse class="cls-24" cx="317.84" cy="562.59" rx="232.96" ry="239.71"/></mask><mask id="mask-11" x="495.73" y="375.36" width="370.9" height="381.64" maskUnits="userSpaceOnUse"><ellipse class="cls-3" cx="681.18" cy="566.19" rx="185.45" ry="190.82"/></mask><mask id="mask-12" x="1072.97" y="286.28" width="370.9" height="381.64" maskUnits="userSpaceOnUse"><ellipse class="cls-4" cx="1258.41" cy="477.11" rx="185.45" ry="190.82"/></mask><mask id="mask-13" x="1256.86" y="219.76" width="494.89" height="468.97" maskUnits="userSpaceOnUse"><ellipse class="cls-5" cx="1504.3" cy="454.25" rx="247.45" ry="234.48"/></mask><mask id="mask-14" x="1892.49" y="393.18" width="370.9" height="381.64" maskUnits="userSpaceOnUse"><ellipse class="cls-6" cx="2077.94" cy="584" rx="185.45" ry="190.82"/></mask><mask id="mask-15" x="1517.71" y="246.93" width="442.16" height="454.97" maskUnits="userSpaceOnUse"><ellipse class="cls-7" cx="1738.79" cy="474.41" rx="221.08" ry="227.49"/></mask><mask id="mask-16" x="1680.25" y="270.91" width="442.16" height="454.97" maskUnits="userSpaceOnUse"><ellipse class="cls-8" cx="1901.33" cy="498.39" rx="221.08" ry="227.49"/></mask><mask id="mask-17" x="1954.7" y="406.8" width="442.16" height="454.97" maskUnits="userSpaceOnUse"><ellipse class="cls-9" cx="2175.78" cy="634.29" rx="221.08" ry="227.49"/></mask><linearGradient id="linear-gradient-2" x1="1321.98" y1="5425.74" x2="1401.18" y2="5710.86" gradientTransform="matrix(1, 0, 0, -1, 0, 5948.03)" gradientUnits="userSpaceOnUse"><stop offset="0" stop-color="#f0f7ff"/><stop offset="1" stop-color="#b2d9ff"/></linearGradient><linearGradient id="linear-gradient-3" x1="497.68" y1="5512.13" x2="576.88" y2="5797.26" gradientTransform="matrix(1, 0, 0, -1, 0, 5948.03)" gradientUnits="userSpaceOnUse"><stop offset="0" stop-color="#e5f2ff"/><stop offset="1" stop-color="#b2d9ff"/></linearGradient><linearGradient id="linear-gradient-4" x1="952.21" y1="5385.88" x2="1031.41" y2="5671" xlink:href="#linear-gradient-3"/><linearGradient id="linear-gradient-5" x1="1890.67" y1="5125.19" x2="1969.87" y2="5410.32" xlink:href="#linear-gradient-3"/><mask id="mask-18" x="0" y="68.77" width="590.95" height="608.07" maskUnits="userSpaceOnUse"><ellipse class="cls-10" cx="295.47" cy="372.8" rx="295.47" ry="304.03"/></mask><mask id="mask-19" x="330.41" y="127.39" width="590.95" height="608.07" maskUnits="userSpaceOnUse"><ellipse class="cls-11" cx="625.88" cy="431.43" rx="295.47" ry="304.03"/></mask><mask id="mask-20" x="523.55" y="221.16" width="590.95" height="608.06" maskUnits="userSpaceOnUse"><ellipse class="cls-12" cx="819.02" cy="525.19" rx="295.47" ry="304.03"/></mask><mask id="mask-21" x="717.43" y="212.51" width="590.95" height="608.07" maskUnits="userSpaceOnUse"><ellipse class="cls-14" cx="1012.9" cy="516.54" rx="295.47" ry="304.03"/></mask><mask id="mask-22" x="906.62" y="55.3" width="590.95" height="608.07" maskUnits="userSpaceOnUse"><ellipse class="cls-15" cx="1202.09" cy="359.33" rx="295.47" ry="304.03"/></mask><mask id="mask-23" x="1219" y="10.66" width="590.95" height="608.07" maskUnits="userSpaceOnUse"><ellipse class="cls-16" cx="1514.48" cy="314.69" rx="295.47" ry="304.03"/></mask><mask id="mask-24" x="1568.06" y="0" width="590.95" height="608.07" maskUnits="userSpaceOnUse"><ellipse class="cls-17" cx="1863.54" cy="304.03" rx="295.47" ry="304.03"/></mask></defs><title>cloud-bottom</title><g class="cls-26"><g id="Layer_2" data-name="Layer 2"><g id="Cloud_Small" data-name="Cloud Small"><g class="cls-27"><g class="cls-28"><ellipse class="cls-29" cx="1805.55" cy="593.14" rx="158.38" ry="162.97"/></g><g class="cls-30"><ellipse class="cls-29" cx="1319.44" cy="577.3" rx="355.58" ry="226.33"/></g><g class="cls-31"><ellipse class="cls-32" cx="1770.88" cy="605.02" rx="533.78" ry="339.77"/></g><g class="cls-33"><ellipse class="cls-32" cx="2305.5" cy="723.82" rx="533.78" ry="339.77"/></g><g class="cls-34"><ellipse class="cls-29" cx="840.02" cy="617.67" rx="355.58" ry="226.33"/></g><g class="cls-35"><ellipse class="cls-29" cx="531.38" cy="640.66" rx="355.58" ry="226.33"/></g><g class="cls-36"><ellipse class="cls-32" cx="467.19" cy="708.56" rx="355.58" ry="226.33"/></g><g class="cls-37"><ellipse class="cls-32" cx="864.03" cy="636.7" rx="355.58" ry="226.34"/></g><g class="cls-38"><ellipse class="cls-32" cx="1168.95" cy="616.9" rx="236.78" ry="226.34"/></g><path class="cls-39" d="M2160.12,393.77V803.33a68.45,68.45,0,0,1-114.94-57.65,45.87,45.87,0,0,1-9.36,1,45.25,45.25,0,0,1-44.51-37.19,68.48,68.48,0,0,1-125.14-48.57,68.71,68.71,0,0,1-54.12-2.83,67.07,67.07,0,0,1-133.14,0,68.56,68.56,0,0,1-85.61-43.38,46,46,0,0,1-60.43-10.48,46,46,0,0,1-65.48,17.37,68.43,68.43,0,0,1-98.35-5.7,68.17,68.17,0,0,1-41.15,13.74c-1.8,0-3.58-.1-5.36-.24a67.13,67.13,0,0,1-80.23,41.36A107.14,107.14,0,0,1,1042,692.44a68.5,68.5,0,0,1-101.85-8.24A68.41,68.41,0,0,1,887.43,714,89.27,89.27,0,0,1,711,729.94,68.49,68.49,0,0,1,602.86,698.3,94.75,94.75,0,0,1,555,717a66.89,66.89,0,0,1,1.41,13.6,66.23,66.23,0,0,1-95.36,59.44A89.27,89.27,0,0,1,287.5,751,68.47,68.47,0,0,1,217.15,737a88.65,88.65,0,0,1-37.07,10.39V393.77h-25V382.62H2183.57v11.15Z"/><g class="cls-40"><ellipse class="cls-41" cx="317.84" cy="562.59" rx="232.96" ry="239.71"/></g><g class="cls-42"><ellipse class="cls-41" cx="681.18" cy="566.19" rx="185.45" ry="190.82"/></g><g class="cls-43"><ellipse class="cls-41" cx="1258.41" cy="477.11" rx="185.45" ry="190.82"/></g><g class="cls-44"><ellipse class="cls-41" cx="1504.3" cy="454.25" rx="247.45" ry="234.48"/></g><g class="cls-45"><ellipse class="cls-41" cx="2077.94" cy="584" rx="185.45" ry="190.82"/></g><g class="cls-46"><ellipse class="cls-41" cx="1738.79" cy="474.41" rx="221.08" ry="227.49"/></g><g class="cls-47"><ellipse class="cls-41" cx="1901.33" cy="498.39" rx="221.08" ry="227.49"/></g><g class="cls-48"><ellipse class="cls-32" cx="2175.78" cy="634.29" rx="221.08" ry="227.49"/></g><path class="cls-49" d="M1636,439.94a45.2,45.2,0,0,0-80-28.87,66,66,0,0,0-84.64-29.2,83.15,83.15,0,0,0-162.72,21.64,83.18,83.18,0,0,0-132.31,40.23,64.32,64.32,0,1,0-113.79,58.69,45.19,45.19,0,1,0,34.21,80.39,64.33,64.33,0,0,0,122-40.55,83.17,83.17,0,0,0,120.27-72,83.12,83.12,0,0,0,100.74,3.53,66,66,0,0,0,117.74-3.23A45.17,45.17,0,0,0,1636,439.94Z"/><path class="cls-50" d="M708,648.1a42.54,42.54,0,0,1-23-6.75,42.74,42.74,0,0,1-73.24,23.53A66,66,0,0,1,491.4,619.76,65.9,65.9,0,0,1,417,554.3c0-.11,0-.23,0-.34a65.82,65.82,0,0,1-45.85,21c.12,1.44.19,2.89.19,4.36a53.63,53.63,0,0,1-92.42,37.06c.1,1.46.17,2.92.17,4.4a66,66,0,1,1-108.82-50.23,66,66,0,0,1,47.3-85.25,66,66,0,0,1,125.34-37.09A66,66,0,0,1,434.67,509c0,.12,0,.23,0,.35a66,66,0,0,1,106.72,14.09,66,66,0,1,1,111.31,70.26,42.57,42.57,0,0,1,12.94,5.51A42.79,42.79,0,1,1,708,648.1Z"/><circle class="cls-51" cx="954.66" cy="553.34" r="45.19"/><path class="cls-52" d="M2116.07,628.7a55.89,55.89,0,0,1-43.14-20.29A56,56,0,0,1,1976,554a45.17,45.17,0,0,1-63.58-26,83.15,83.15,0,1,1,33.79-58.43,45.22,45.22,0,0,1,52.22,57.91,56,56,0,0,1,72.61,11.9,56,56,0,1,1,45,89.36Z"/><g class="cls-53"><ellipse class="cls-54" cx="295.47" cy="372.8" rx="295.47" ry="304.03"/></g><g class="cls-55"><ellipse class="cls-54" cx="625.88" cy="431.43" rx="295.47" ry="304.03"/></g><g class="cls-56"><ellipse class="cls-54" cx="819.02" cy="525.19" rx="295.47" ry="304.03"/></g><g class="cls-57"><ellipse class="cls-54" cx="1012.9" cy="516.54" rx="295.47" ry="304.03"/></g><g class="cls-58"><ellipse class="cls-54" cx="1202.09" cy="359.33" rx="295.47" ry="304.03"/></g><g class="cls-59"><ellipse class="cls-54" cx="1514.48" cy="314.69" rx="295.47" ry="304.03"/></g><g class="cls-60"><ellipse class="cls-54" cx="1863.54" cy="304.03" rx="295.47" ry="304.03"/></g><circle class="cls-61" cx="1017.16" cy="489.72" r="89.29" transform="matrix(0.16, -0.99, 0.99, 0.16, 371.47, 1415.75)"/><circle class="cls-61" cx="1265.89" cy="434.17" r="49.66"/><path class="cls-61" d="M1828.62,428.42a89.29,89.29,0,1,1-89.29-89.29A89.29,89.29,0,0,1,1828.62,428.42Z"/><circle class="cls-61" cx="2191.75" cy="498.98" r="105.53" transform="translate(289.12 1695.95) rotate(-45)"/><circle class="cls-61" cx="2191.75" cy="540.56" r="105.53" transform="translate(1158.79 2547.78) rotate(-76.62)"/><circle class="cls-61" cx="640.39" cy="563.61" r="67.08"/><circle class="cls-61" cx="923.84" cy="477.66" r="68.5"/><circle class="cls-61" cx="1153.94" cy="438.3" r="68.5" transform="translate(-79.98 471.7) rotate(-22.35)"/><path class="cls-61" d="M762.33,594.05a46,46,0,1,1-46-46A46,46,0,0,1,762.33,594.05Z"/><circle class="cls-61" cx="906.19" cy="554.66" r="46.04"/><circle class="cls-61" cx="631.48" cy="436.1" r="68.5"/><circle class="cls-61" cx="393.96" cy="408.62" r="68.5"/><path class="cls-61" d="M365.68,364a68.51,68.51,0,1,1-68.5-68.51A68.5,68.5,0,0,1,365.68,364Z"/><circle class="cls-61" cx="218.37" cy="468.63" r="68.5"/><circle class="cls-61" cx="199.94" cy="401.31" r="68.5"/><path class="cls-61" d="M343.12,443.91a37.23,37.23,0,1,1-37.23-37.22A37.23,37.23,0,0,1,343.12,443.91Z"/><circle class="cls-61" cx="487.87" cy="478.03" r="68.5"/><circle class="cls-61" cx="530.57" cy="416.54" r="68.5"/><path class="cls-61" d="M516.12,367.26a68.51,68.51,0,1,1-68.51-68.5A68.51,68.51,0,0,1,516.12,367.26Z"/><circle class="cls-61" cx="575.48" cy="488.72" r="60.68"/><circle class="cls-61" cx="746.79" cy="475.54" r="107.12" transform="matrix(0.23, -0.97, 0.97, 0.23, 113.41, 1094.14)"/><circle class="cls-61" cx="832.61" cy="473.48" r="107.12" transform="translate(-90.93 727.42) rotate(-45)"/><circle class="cls-61" cx="813.3" cy="617.89" r="68.5" transform="translate(-173.86 355.67) rotate(-22.35)"/><circle class="cls-61" cx="1151.29" cy="377.94" r="68.5"/><circle class="cls-61" cx="1082.67" cy="404.45" r="68.5"/><circle class="cls-61" cx="1844.17" cy="416.93" r="49.97"/><path class="cls-61" d="M2141.35,416.34a68.51,68.51,0,1,1-68.5-68.5A68.5,68.5,0,0,1,2141.35,416.34Z"/><path class="cls-61" d="M2113.72,519.41a38.81,38.81,0,1,1-38.81-38.81A38.81,38.81,0,0,1,2113.72,519.41Z"/><path class="cls-61" d="M2115.78,478.18A38.81,38.81,0,1,1,2077,439.37,38.82,38.82,0,0,1,2115.78,478.18Z"/><circle class="cls-61" cx="1996.58" cy="486.43" r="68.5"/><circle class="cls-61" cx="1947.55" cy="386.72" r="68.5"/><circle class="cls-61" cx="1243.86" cy="401.47" r="68.5"/><path class="cls-61" d="M1368.1,389.11a43.87,43.87,0,1,1-43.87-43.87A43.87,43.87,0,0,1,1368.1,389.11Z"/><path class="cls-61" d="M1437.41,382.55a49.68,49.68,0,1,1-49.68-49.67A49.68,49.68,0,0,1,1437.41,382.55Z"/><circle class="cls-61" cx="1467.92" cy="412.03" r="48.69"/><path class="cls-61" d="M1594.49,379a48.69,48.69,0,1,1-48.69-48.69A48.69,48.69,0,0,1,1594.49,379Z"/><path class="cls-61" d="M1686.57,395.53a68.51,68.51,0,1,1-68.5-68.5A68.5,68.5,0,0,1,1686.57,395.53Z"/><polygon class="cls-61" points="131.78 400.92 762.37 466.91 1380.13 367.92 1549.69 395.42 1843.9 416.5 2036.38 418.33 2192.19 498.99 2297.28 498.98 2297.28 45.29 131.78 45.29 131.78 400.92"/></g></g></g></g></svg>