<svg xmlns="http://www.w3.org/2000/svg" xmlns:xlink="http://www.w3.org/1999/xlink" viewBox="0 0 2100.15 900.93"><defs><style>.cls-1{fill:url(#radial-gradient);}.cls-2{fill:url(#radial-gradient-2);}.cls-3{fill:url(#radial-gradient-3);}.cls-4{fill:url(#radial-gradient-4);}.cls-5{fill:url(#radial-gradient-5);}.cls-6{fill:url(#radial-gradient-6);}.cls-7{fill:url(#radial-gradient-7);}.cls-8{fill:url(#radial-gradient-8);}.cls-9{fill:url(#radial-gradient-9);}.cls-10{fill:url(#radial-gradient-10);}.cls-11{fill:url(#radial-gradient-11);}.cls-12{fill:url(#radial-gradient-12);}.cls-13{fill:url(#radial-gradient-13);}.cls-14{fill:url(#radial-gradient-14);}.cls-15{fill:url(#radial-gradient-15);}.cls-16{fill:none;}.cls-17{isolation:isolate;}.cls-18{clip-path:url(#clip-path);}.cls-19{mask:url(#mask);}.cls-20,.cls-27,.cls-38{fill:#273a4d;mix-blend-mode:multiply;}.cls-20{opacity:0.35;}.cls-21{mask:url(#mask-2);}.cls-22{mask:url(#mask-3);}.cls-23{mask:url(#mask-4);}.cls-24{fill:#fff;}.cls-25{fill:url(#linear-gradient);}.cls-26{mask:url(#mask-5);}.cls-27{opacity:0.3;}.cls-28{mask:url(#mask-6);}.cls-29{mask:url(#mask-7);}.cls-30{mask:url(#mask-8);}.cls-31{mask:url(#mask-9);}.cls-32{mask:url(#mask-10);}.cls-33{fill:url(#linear-gradient-2);}.cls-34{fill:url(#linear-gradient-3);}.cls-35{fill:url(#linear-gradient-4);}.cls-36{fill:url(#linear-gradient-5);}.cls-37{mask:url(#mask-11);}.cls-38{opacity:0.6;}.cls-39{mask:url(#mask-12);}.cls-40{mask:url(#mask-13);}.cls-41{mask:url(#mask-14);}.cls-42{mask:url(#mask-15);}</style><radialGradient id="radial-gradient" cx="1564.78" cy="1012.93" r="134.63" gradientTransform="translate(-159.76 -785.1) scale(1.14 1.17)" gradientUnits="userSpaceOnUse"><stop offset="0" stop-color="#fff"/><stop offset="0.16" stop-color="#c2c2c2"/><stop offset="0.32" stop-color="#878787"/><stop offset="0.49" stop-color="#575757"/><stop offset="0.64" stop-color="#313131"/><stop offset="0.78" stop-color="#161616"/><stop offset="0.9" stop-color="#060606"/><stop offset="1"/></radialGradient><radialGradient id="radial-gradient-2" cx="1132.11" cy="1016.2" r="186.97" gradientTransform="translate(-810.31 -785.1) scale(1.84 1.17)" xlink:href="#radial-gradient"/><radialGradient id="radial-gradient-3" cx="412.63" cy="1236.78" r="251.15" xlink:href="#radial-gradient"/><radialGradient id="radial-gradient-4" cx="914.39" cy="1171.29" r="251.15" xlink:href="#radial-gradient"/><radialGradient id="radial-gradient-5" cx="1159.25" cy="1303.78" r="251.15" xlink:href="#radial-gradient"/><radialGradient id="radial-gradient-6" cx="1616.15" cy="1254.71" r="251.15" xlink:href="#radial-gradient"/><radialGradient id="radial-gradient-7" cx="728.53" cy="1115.29" r="251.15" xlink:href="#radial-gradient"/><radialGradient id="radial-gradient-8" cx="813.4" cy="992.66" r="186.97" gradientTransform="translate(-810.31 -785.1) scale(1.84 1.17)" xlink:href="#radial-gradient"/><radialGradient id="radial-gradient-9" cx="651.12" cy="973.67" r="186.97" gradientTransform="translate(-810.31 -785.1) scale(1.84 1.17)" xlink:href="#radial-gradient"/><radialGradient id="radial-gradient-10" cx="327.46" cy="1046.97" r="157.63" xlink:href="#radial-gradient"/><radialGradient id="radial-gradient-11" cx="609.11" cy="1035.2" r="157.63" xlink:href="#radial-gradient"/><radialGradient id="radial-gradient-12" cx="1099.73" cy="1108.79" r="157.63" xlink:href="#radial-gradient"/><radialGradient id="radial-gradient-13" cx="1317.79" cy="1126.45" r="157.63" xlink:href="#radial-gradient"/><radialGradient id="radial-gradient-14" cx="1796.3" cy="1020.48" r="157.63" xlink:href="#radial-gradient"/><radialGradient id="radial-gradient-15" cx="1578.24" cy="1117.62" r="187.92" xlink:href="#radial-gradient"/><clipPath id="clip-path" transform="translate(0 -137.45)"><rect class="cls-16" x="47.15" width="1920" height="640"/></clipPath><mask id="mask" x="1470.33" y="107.42" width="306.88" height="315.77" maskUnits="userSpaceOnUse"><g transform="translate(0 -137.45)"><ellipse class="cls-1" cx="1623.78" cy="402.76" rx="153.44" ry="157.89"/></g></mask><mask id="mask-2" x="931.12" y="49.87" width="688.96" height="438.54" maskUnits="userSpaceOnUse"><g transform="translate(0 -137.45)"><ellipse class="cls-2" cx="1275.6" cy="406.6" rx="344.48" ry="219.27"/></g></mask><mask id="mask-3" x="343.91" y="22.27" width="688.96" height="438.54" maskUnits="userSpaceOnUse"><g transform="translate(0 -137.45)"><ellipse class="cls-8" cx="688.39" cy="378.99" rx="344.48" ry="219.27"/></g></mask><mask id="mask-4" x="44.9" y="0" width="688.96" height="438.54" maskUnits="userSpaceOnUse"><g transform="translate(0 -137.45)"><ellipse class="cls-9" cx="389.38" cy="356.72" rx="344.48" ry="219.27"/></g></mask><linearGradient id="linear-gradient" x1="920.69" y1="162" x2="1067.09" y2="629.89" gradientUnits="userSpaceOnUse"><stop offset="0" stop-color="#f5faff"/><stop offset="1" stop-color="#cce5ff"/></linearGradient><mask id="mask-5" x="33.82" y="120.36" width="359.32" height="369.73" maskUnits="userSpaceOnUse"><g transform="translate(0 -137.45)"><ellipse class="cls-10" cx="213.48" cy="442.68" rx="179.66" ry="184.87"/></g></mask><mask id="mask-6" x="354.85" y="106.55" width="359.32" height="369.73" maskUnits="userSpaceOnUse"><g transform="translate(0 -137.45)"><ellipse class="cls-11" cx="534.51" cy="428.87" rx="179.66" ry="184.87"/></g></mask><mask id="mask-7" x="914.06" y="192.85" width="359.32" height="369.73" maskUnits="userSpaceOnUse"><g transform="translate(0 -137.45)"><ellipse class="cls-12" cx="1093.72" cy="515.17" rx="179.66" ry="184.87"/></g></mask><mask id="mask-8" x="1162.6" y="213.56" width="359.32" height="369.73" maskUnits="userSpaceOnUse"><g transform="translate(0 -137.45)"><ellipse class="cls-13" cx="1342.26" cy="535.88" rx="179.66" ry="184.87"/></g></mask><mask id="mask-9" x="1708" y="89.3" width="359.32" height="369.73" maskUnits="userSpaceOnUse"><g transform="translate(0 -137.45)"><ellipse class="cls-14" cx="1887.66" cy="411.61" rx="179.66" ry="184.87"/></g></mask><mask id="mask-10" x="1424.94" y="167.69" width="428.36" height="440.77" maskUnits="userSpaceOnUse"><g transform="translate(0 -137.45)"><ellipse class="cls-15" cx="1639.12" cy="525.53" rx="214.18" ry="220.38"/></g></mask><linearGradient id="linear-gradient-2" x1="1119.68" y1="343.16" x2="1196.41" y2="619.39" gradientUnits="userSpaceOnUse"><stop offset="0" stop-color="#e5f2ff"/><stop offset="1" stop-color="#b2d9ff"/></linearGradient><linearGradient id="linear-gradient-3" x1="356.73" y1="555.09" x2="433.46" y2="831.32" xlink:href="#linear-gradient-2"/><linearGradient id="linear-gradient-4" x1="797.07" y1="432.78" x2="873.8" y2="709" gradientTransform="translate(7.35 -13.06) rotate(0.94)" xlink:href="#linear-gradient-2"/><linearGradient id="linear-gradient-5" x1="1706.23" y1="180.23" x2="1782.96" y2="456.46" xlink:href="#linear-gradient-2"/><mask id="mask-11" x="24.31" y="233.27" width="572.5" height="589.08" maskUnits="userSpaceOnUse"><g transform="translate(0 -137.45)"><ellipse class="cls-3" cx="310.56" cy="665.26" rx="286.25" ry="294.54"/></g></mask><mask id="mask-12" x="596.22" y="156.47" width="572.5" height="589.08" maskUnits="userSpaceOnUse"><g transform="translate(0 -137.45)"><ellipse class="cls-4" cx="882.46" cy="588.47" rx="286.25" ry="294.54"/></g></mask><mask id="mask-13" x="875.3" y="311.84" width="572.5" height="589.08" maskUnits="userSpaceOnUse"><g transform="translate(0 -137.45)"><ellipse class="cls-5" cx="1161.55" cy="743.84" rx="286.25" ry="294.54"/></g></mask><mask id="mask-14" x="1396.08" y="254.3" width="572.5" height="589.08" maskUnits="userSpaceOnUse"><g transform="translate(0 -137.45)"><ellipse class="cls-6" cx="1682.33" cy="686.29" rx="286.25" ry="294.54"/></g></mask><mask id="mask-15" x="384.37" y="90.8" width="572.5" height="589.08" maskUnits="userSpaceOnUse"><g transform="translate(0 -137.45)"><ellipse class="cls-7" cx="670.62" cy="522.8" rx="286.25" ry="294.54"/></g></mask></defs><title>cloud-top</title><g class="cls-17"><g id="Layer_2" data-name="Layer 2"><g id="Cloud_Bottom" data-name="Cloud Bottom"><g class="cls-18"><g class="cls-19"><ellipse class="cls-20" cx="1623.78" cy="265.31" rx="153.44" ry="157.89"/></g><g class="cls-21"><ellipse class="cls-20" cx="1275.6" cy="269.14" rx="344.48" ry="219.27"/></g><g class="cls-22"><ellipse class="cls-20" cx="688.39" cy="241.54" rx="344.48" ry="219.27"/></g><g class="cls-23"><ellipse class="cls-20" cx="389.38" cy="219.27" rx="344.48" ry="219.27"/></g><path class="cls-24" d="M1965.36,594l4.6-393.34c-10.2-13.07-32.44-21.44-50-21.44a66.37,66.37,0,0,0-66.37,66.37,63.54,63.54,0,0,0,.44,7.48,44.61,44.61,0,0,0-9.08-.95,43.84,43.84,0,0,0-43.12,36A66.36,66.36,0,0,0,1679.62,324a67.46,67.46,0,0,0,1,11.18,66.71,66.71,0,0,0-23.06-4.1,66,66,0,0,0-29.37,6.85,65,65,0,0,0-129,0,66.43,66.43,0,0,0-82.94,42,44.58,44.58,0,0,0-58.55,10.14,44.58,44.58,0,0,0-63.43-16.82A66.3,66.3,0,0,0,1199,378.8a66,66,0,0,0-39.86-13.31c-1.75,0-3.47.1-5.2.23a65,65,0,0,0-77.73-40.07,103.78,103.78,0,0,0-194.06-21,66.36,66.36,0,0,0-98.68,8,66.27,66.27,0,0,0-51-28.87,86.49,86.49,0,0,0-170.94-15.45A66.35,66.35,0,0,0,456.71,299a91.75,91.75,0,0,0-46.36-18.13,65,65,0,0,0,1.36-13.18,64.16,64.16,0,0,0-92.38-57.58,86.49,86.49,0,0,0-168.14,37.79A66.31,66.31,0,0,0,83,261.52a86.12,86.12,0,0,0-35.91-10.07V594H22.94v10.8H1988.07V594Z" transform="translate(0 -137.45)"/><path class="cls-25" d="M1967.28,595.91V199.13a66.36,66.36,0,0,0-111.8,48.37,63.66,63.66,0,0,0,.45,7.48,44.61,44.61,0,0,0-9.08-1,43.84,43.84,0,0,0-43.12,36A66.34,66.34,0,0,0,1682.5,337.1a66.71,66.71,0,0,0-23.06-4.1,66,66,0,0,0-29.37,6.85,65,65,0,0,0-129,0,66.43,66.43,0,0,0-82.94,42A44.6,44.6,0,0,0,1359.6,392a44.58,44.58,0,0,0-63.43-16.82,66.3,66.3,0,0,0-95.28,5.52A66,66,0,0,0,1161,367.41c-1.75,0-3.48.1-5.2.23a65,65,0,0,0-77.73-40.07,103.78,103.78,0,0,0-194.07-21,66.36,66.36,0,0,0-98.67,8,66.3,66.3,0,0,0-51-28.87,86.49,86.49,0,0,0-170.94-15.44,66.34,66.34,0,0,0-104.75,30.66,91.75,91.75,0,0,0-46.37-18.13,64.15,64.15,0,0,0-91-70.76,86.48,86.48,0,0,0-168.13,37.78A66.36,66.36,0,0,0,85,263.44a86,86,0,0,0-35.91-10.07V595.91H24.86v10.8H1990v-10.8Z" transform="translate(0 -137.45)"/><g class="cls-26"><ellipse class="cls-27" cx="213.48" cy="305.23" rx="179.66" ry="184.87"/></g><g class="cls-28"><ellipse class="cls-27" cx="534.51" cy="291.42" rx="179.66" ry="184.87"/></g><g class="cls-29"><ellipse class="cls-27" cx="1093.72" cy="377.72" rx="179.66" ry="184.87"/></g><g class="cls-30"><ellipse class="cls-27" cx="1342.26" cy="398.43" rx="179.66" ry="184.87"/></g><g class="cls-31"><ellipse class="cls-27" cx="1887.66" cy="274.16" rx="179.66" ry="184.87"/></g><g class="cls-32"><ellipse class="cls-27" cx="1639.12" cy="388.07" rx="214.18" ry="220.38"/></g><path class="cls-24" d="M1457.62,549.26a43.78,43.78,0,0,1-77.45,28,64,64,0,0,1-82,28.29,80.55,80.55,0,0,1-157.64-21,80.57,80.57,0,0,1-128.18-39A62.31,62.31,0,1,1,902.1,488.72a43.78,43.78,0,1,1,33.15-77.88,62.32,62.32,0,0,1,118.22,39.28A80.58,80.58,0,0,1,1170,519.89a80.52,80.52,0,0,1,97.6-3.41,64,64,0,0,1,114.06,3.12,43.77,43.77,0,0,1,76,29.66Z" transform="translate(0 -137.45)"/><path class="cls-24" d="M558.54,347.6a41.23,41.23,0,0,0-22.29,6.54,41.4,41.4,0,0,0-70.95-22.79,63.93,63.93,0,0,0-116.57,43.7,63.87,63.87,0,0,0-72.08,63.42c0,.11,0,.22,0,.33a63.8,63.8,0,0,0-44.42-20.37c.11-1.39.19-2.8.19-4.22a52,52,0,0,0-89.54-35.9c.1-1.41.16-2.83.16-4.27A64,64,0,1,0,37.64,422.71,63.93,63.93,0,0,0,83.46,505.3a63.95,63.95,0,0,0,121.42,35.93,64,64,0,0,0,88.89-58.91c0-.11,0-.22,0-.33a63.94,63.94,0,0,0,103.39-13.65A64,64,0,1,0,505,400.27a41.2,41.2,0,0,0,12.53-5.34,41.45,41.45,0,1,0,41-47.33Z" transform="translate(0 -137.45)"/><circle class="cls-24" cx="797.53" cy="439.4" r="43.78" transform="translate(-7.1 -124.32) rotate(-0.94)"/><path class="cls-24" d="M1922.68,366.39a54.14,54.14,0,0,0-41.79,19.66A54.26,54.26,0,0,0,1787,438.77a43.78,43.78,0,0,0-61.6,25.21,80.57,80.57,0,1,0,33.19,65.16,83.22,83.22,0,0,0-.45-8.55,43.78,43.78,0,0,0,50.58-56.09A54.26,54.26,0,0,0,1879.08,453a54.27,54.27,0,1,0,43.6-86.57Z" transform="translate(0 -137.45)"/><path class="cls-33" d="M1459.54,551.18a43.78,43.78,0,0,1-77.46,28,64,64,0,0,1-82,28.3,80.55,80.55,0,0,1-157.64-21,80.57,80.57,0,0,1-128.18-39A62.31,62.31,0,1,1,904,490.64a43.78,43.78,0,1,1,33.15-77.88A62.32,62.32,0,0,1,1055.39,452a80.56,80.56,0,0,1,116.51,69.77,80.54,80.54,0,0,1,97.6-3.42,64,64,0,0,1,114.06,3.13,43.77,43.77,0,0,1,76,29.66Z" transform="translate(0 -137.45)"/><path class="cls-34" d="M560.46,349.52a41.28,41.28,0,0,0-22.29,6.53,41.4,41.4,0,0,0-70.95-22.79A63.93,63.93,0,0,0,350.65,377a63.8,63.8,0,0,0-72.08,63.42v.33a63.72,63.72,0,0,0-44.41-20.37c.11-1.39.19-2.8.19-4.22a52,52,0,0,0-89.54-35.9c.1-1.41.16-2.83.16-4.27A64,64,0,1,0,39.55,424.63a63.95,63.95,0,0,0,45.83,82.58A64,64,0,0,0,206.8,543.15a64,64,0,0,0,88.88-58.91c0-.11,0-.22,0-.34a63.94,63.94,0,0,0,103.4-13.64,64,64,0,1,0,107.84-68.07,41.2,41.2,0,0,0,12.53-5.34,41.45,41.45,0,1,0,41-47.33Z" transform="translate(0 -137.45)"/><circle class="cls-35" cx="799.44" cy="441.32" r="43.78" transform="translate(-7.13 -124.27) rotate(-0.94)"/><path class="cls-36" d="M1924.6,368.31A54.14,54.14,0,0,0,1882.81,388a54.26,54.26,0,0,0-93.88,52.72,43.78,43.78,0,0,0-61.6,25.21,80.57,80.57,0,1,0,33.19,65.16,83.22,83.22,0,0,0-.45-8.55,43.81,43.81,0,0,0,50.58-56.1A54.27,54.27,0,0,0,1881,454.88a54.27,54.27,0,1,0,43.6-86.57Z" transform="translate(0 -137.45)"/><g class="cls-37"><ellipse class="cls-38" cx="310.56" cy="527.81" rx="286.25" ry="294.54"/></g><g class="cls-39"><ellipse class="cls-38" cx="882.46" cy="451.02" rx="286.25" ry="294.54"/></g><g class="cls-40"><ellipse class="cls-38" cx="1161.55" cy="606.39" rx="286.25" ry="294.54"/></g><g class="cls-41"><ellipse class="cls-38" cx="1682.33" cy="548.84" rx="286.25" ry="294.54"/></g><g class="cls-42"><ellipse class="cls-38" cx="670.62" cy="385.34" rx="286.25" ry="294.54"/></g><path class="cls-24" d="M2098.23,451.78a102.23,102.23,0,0,0-203.35-15.08,37.46,37.46,0,0,0-44.81,17.12,66.36,66.36,0,0,0-101.74,81.57,66.36,66.36,0,0,0-41.86,25.42,48.41,48.41,0,0,0-68.53-32.72,86.51,86.51,0,0,0-163.12,7.55A66.35,66.35,0,0,0,1381,562.35a47.41,47.41,0,0,0-10.79-1.26,46.93,46.93,0,0,0-28.61,9.68,47.16,47.16,0,0,0-93.31-2.53,48.06,48.06,0,0,0-62.67.22A42.34,42.34,0,0,0,1155.56,556a42.81,42.81,0,0,0-8.46.84c0-.66.05-1.33.05-2a48.1,48.1,0,0,0-82.75-33.36,66.16,66.16,0,0,0-12.52,3.88A66.35,66.35,0,0,0,944.53,503.1c0-.69.05-1.38.05-2.07A86.49,86.49,0,0,0,795,441.85c.11-1.23.17-2.47.17-3.73A44.6,44.6,0,0,0,720.68,405a66.36,66.36,0,1,0-125.51-39.31,44.61,44.61,0,0,0-65.87,9.79,65,65,0,0,0-99.75,67.74,58.59,58.59,0,0,0-41.8,18.11,66.35,66.35,0,0,0-108.81,51c0,1.92.1,3.83.26,5.71a66.31,66.31,0,0,0-75.29,18.4,36,36,0,0,0-53.66-21.81A66.37,66.37,0,1,0,20.22,539,66.37,66.37,0,0,0,98,645a66.37,66.37,0,0,0,126.92-5.94,66,66,0,0,0,20.15,6.21c12.9,1.8,26.46,38.25,51.29,40,21.39,1.5,42.5-11.93,64.5-13.95,67.28-6.2,136.88.53,203.78,7.81,133.77,14.55,266.82,41.17,401.9,39.2,69.12-1,137.89-9.57,206.92-13.4,64.45-3.58,129-3,193.6-4.08a3924.25,3924.25,0,0,0,566.77-50.47c25.25-4.11,50.79-8.57,74.08-19.16C2080.2,598.38,2098.23,524.07,2098.23,451.78Z" transform="translate(0 -137.45)"/><path class="cls-24" d="M2100.15,453.7a102.24,102.24,0,0,0-203.35-15.09A37.5,37.5,0,0,0,1852,455.74a66.35,66.35,0,0,0-101.74,81.57,66.33,66.33,0,0,0-41.86,25.42A48.41,48.41,0,0,0,1639.86,530a86.51,86.51,0,0,0-163.13,7.54,66.38,66.38,0,0,0-93.82,26.71,47.12,47.12,0,0,0-39.39,8.43,47.16,47.16,0,0,0-93.31-2.53,48.06,48.06,0,0,0-62.67.22,42.35,42.35,0,0,0-30.06-12.46,42.81,42.81,0,0,0-8.46.85c0-.66,0-1.33,0-2a48.09,48.09,0,0,0-82.75-33.36,65.32,65.32,0,0,0-12.53,3.88A66.36,66.36,0,0,0,946.45,505c0-.69,0-1.37,0-2.06a86.49,86.49,0,0,0-149.58-59.18c.1-1.23.17-2.47.17-3.73a44.6,44.6,0,0,0-74.49-33.1,66.37,66.37,0,1,0-125.52-39.31,44.6,44.6,0,0,0-65.86,9.79A65,65,0,0,0,430,431.37a65.31,65.31,0,0,0,1.48,13.79,58.59,58.59,0,0,0-41.8,18.11,66.35,66.35,0,0,0-108.81,51c0,1.92.1,3.82.26,5.71a66.33,66.33,0,0,0-75.29,18.39,36,36,0,0,0-53.67-21.8,66.37,66.37,0,1,0-130,24.35A66.36,66.36,0,0,0,99.93,647,66.37,66.37,0,0,0,226.85,641,65.94,65.94,0,0,0,247,647.23c12.9,1.8,26.46,38.25,51.29,40,21.39,1.5,42.5-11.93,64.5-14,67.27-6.19,136.88.54,203.78,7.82,133.76,14.55,266.82,41.17,401.89,39.19,69.13-1,137.9-9.56,206.93-13.39,64.45-3.58,129-3,193.6-4.08a3924.25,3924.25,0,0,0,566.77-50.47c25.25-4.11,50.79-8.57,74.08-19.16C2082.12,600.3,2100.15,526,2100.15,453.7Z" transform="translate(0 -137.45)"/></g></g></g></g></svg>