<svg xmlns="http://www.w3.org/2000/svg" xmlns:xlink="http://www.w3.org/1999/xlink" viewBox="0 0 497.7 369.99"><defs><style>.cls-1{fill:url(#radial-gradient);}.cls-2{isolation:isolate;}.cls-3{mask:url(#mask);}.cls-4{fill:#273a4d;opacity:0.12;mix-blend-mode:multiply;}.cls-5{fill:#fff;}.cls-6{fill:url(#linear-gradient);}.cls-7{fill:url(#linear-gradient-2);}.cls-8{fill:url(#linear-gradient-3);}.cls-9{fill:url(#linear-gradient-4);}</style><radialGradient id="radial-gradient" cx="396.97" cy="1716.31" r="133.28" gradientTransform="matrix(1.72, 0, 0, -1.17, -414.02, 2226.41)" gradientUnits="userSpaceOnUse"><stop offset="0" stop-color="#fff"/><stop offset="0.16" stop-color="#c2c2c2"/><stop offset="0.32" stop-color="#878787"/><stop offset="0.49" stop-color="#575757"/><stop offset="0.64" stop-color="#313131"/><stop offset="0.78" stop-color="#161616"/><stop offset="0.9" stop-color="#060606"/><stop offset="1"/></radialGradient><mask id="mask" x="39.38" y="57.38" width="458.32" height="312.61" maskUnits="userSpaceOnUse"><ellipse class="cls-1" cx="268.54" cy="213.69" rx="229.16" ry="156.3"/></mask><linearGradient id="linear-gradient" x1="38.03" y1="51.1" x2="172.69" y2="126.6" gradientUnits="userSpaceOnUse"><stop offset="0" stop-color="#fff"/><stop offset="1" stop-color="#ebebeb"/></linearGradient><linearGradient id="linear-gradient-2" x1="315.34" y1="93.07" x2="163.64" y2="93.07" gradientUnits="userSpaceOnUse"><stop offset="0" stop-color="#e1e6e9"/><stop offset="1" stop-color="#cdd2d5"/></linearGradient><linearGradient id="linear-gradient-3" x1="88.25" y1="64.45" x2="167.82" y2="110.7" xlink:href="#linear-gradient-2"/><linearGradient id="linear-gradient-4" x1="250.04" y1="93.07" x2="131.33" y2="93.07" xlink:href="#linear-gradient"/></defs><title>cloud-small</title><g class="cls-2"><g id="Layer_2" data-name="Layer 2"><g id="Cloud_Small" data-name="Cloud Small"><g class="cls-3"><ellipse class="cls-4" cx="268.54" cy="213.69" rx="229.16" ry="156.3"/></g><path class="cls-5" d="M154.29.88c-24.71,5-45.2,31.07-39.53,56.82-12.17-13.94-35-17-50.36-6.66S45.65,82.38,52.2,99.67c-14.44-8.44-34.89-4.47-45.1,8.78s-9.58,34.87,3.06,45.83c24.1,20.88,51.78,1.6,53.74-3.33,1.16,12,19.45,22.24,31.45,24.19,16,2.59,30.6-3.62,31.39-14.95,2.39,11.21,18.84,21.63,37.38,21.46V0A46,46,0,0,0,154.29.88Z"/><path class="cls-6" d="M156.53,3.12c-24.71,5-45.2,31.07-39.53,56.82C104.83,46,82,43,66.64,53.28s-18.75,31.34-12.2,48.63C40,93.47,19.55,97.44,9.34,110.69s-9.58,34.87,3.06,45.83c24.1,20.88,51.78,1.61,53.74-3.33,1.16,11.95,19.45,22.24,31.46,24.19,16,2.59,30.59-3.62,31.38-14.94,2.39,11.2,18.85,21.62,37.38,21.45V2.25A46.69,46.69,0,0,0,156.53,3.12Z"/><path class="cls-5" d="M174,.88c24.71,5,45.2,31.07,39.53,56.82,12.16-13.94,35-17,50.36-6.66S282.6,82.38,276,99.67c14.45-8.44,34.9-4.47,45.11,8.78s9.58,34.87-3.07,45.83c-24.09,20.88-51.77,1.6-53.73-3.33-1.16,12-19.46,22.24-31.46,24.19-15.95,2.59-30.59-3.62-31.38-14.95-2.4,11.21-18.85,21.63-37.39,21.46V0A46.07,46.07,0,0,1,174,.88Z"/><path class="cls-7" d="M176.2,3.12c24.71,5,45.2,31.07,39.53,56.82,12.16-13.93,35-16.95,50.36-6.66s18.75,31.34,12.19,48.63c14.45-8.44,34.9-4.47,45.11,8.78s9.58,34.87-3.07,45.83c-24.09,20.88-51.77,1.61-53.73-3.33-1.16,11.95-19.45,22.24-31.46,24.19-15.95,2.59-30.59-3.62-31.38-14.94-2.4,11.2-18.85,21.62-37.39,21.45V2.25A46.72,46.72,0,0,1,176.2,3.12Z"/><path class="cls-5" d="M157.73.88C141.65,5.85,128.32,32,132,57.7c-7.91-13.94-22.76-17-32.75-6.66s-12.2,31.34-7.93,48.63c-9.4-8.44-22.7-4.47-29.34,8.78s-6.24,34.87,2,45.83c15.67,20.88,33.68,1.6,35-3.33.76,12,12.66,22.24,20.46,24.19,10.38,2.59,19.9-3.62,20.41-14.95,1.56,11.21,12.26,21.63,24.32,21.46V0A19.8,19.8,0,0,0,157.73.88Z"/><path class="cls-8" d="M160,3.12c-16.07,5-29.4,31.07-25.72,56.82C126.34,46,111.49,43,101.5,53.28s-12.2,31.34-7.93,48.63c-9.4-8.44-22.7-4.47-29.34,8.78s-6.23,34.87,2,45.83c15.68,20.88,33.68,1.61,35-3.33.76,11.95,12.66,22.24,20.46,24.19,10.38,2.59,19.9-3.62,20.42-14.94,1.56,11.2,12.26,21.62,24.31,21.45V2.25A20.11,20.11,0,0,0,160,3.12Z"/><path class="cls-5" d="M266.26,108.45c-6.64-13.25-19.94-17.22-29.34-8.78C241.19,82.38,239,61.33,229,51s-24.85-7.28-32.76,6.66C199.92,32,186.59,5.85,170.52.88a19.9,19.9,0,0,0-6.4-.87V.82c.75-.16,1.5,1.4,2.24,1.43V181.56c11.12-1.05,20.62-10.86,22.08-21.37.52,11.33,10,17.54,20.41,14.95,7.81-1.95,19.71-12.24,20.46-24.19,1.28,4.93,19.28,24.21,35,3.33C272.49,143.32,272.9,121.7,266.26,108.45Z"/><path class="cls-9" d="M172.76,3.12c16.07,5,29.4,31.07,25.72,56.82C206.39,46,221.23,43,231.23,53.28s12.2,31.34,7.93,48.63c9.4-8.44,22.7-4.47,29.34,8.78s6.23,34.87-2,45.83c-15.68,20.88-33.68,1.61-34.95-3.33-.76,11.95-12.66,22.24-20.47,24.19-10.37,2.59-19.89-3.62-20.41-14.94-1.56,11.2-12.26,21.62-24.32,21.45V2.25A20.18,20.18,0,0,1,172.76,3.12Z"/></g></g></g></svg>