<svg xmlns="http://www.w3.org/2000/svg" xmlns:xlink="http://www.w3.org/1999/xlink" viewBox="0 0 768 528"><defs><style>.cls-1{fill:url(#radial-gradient);}.cls-2{fill:url(#radial-gradient-2);}.cls-3{fill:url(#radial-gradient-3);}.cls-4{fill:url(#radial-gradient-4);}.cls-5{fill:url(#radial-gradient-5);}.cls-6{fill:url(#radial-gradient-6);}.cls-7{fill:url(#radial-gradient-7);}.cls-8{fill:url(#radial-gradient-8);}.cls-9{fill:url(#radial-gradient-9);}.cls-10{fill:url(#radial-gradient-10);}.cls-11{fill:url(#radial-gradient-11);}.cls-12{fill:url(#radial-gradient-12);}.cls-13{isolation:isolate;}.cls-14{fill:#b8d1eb;}.cls-15{mask:url(#mask);}.cls-16{fill:#273a4d;}.cls-16,.cls-33{opacity:0.3;}.cls-16,.cls-28,.cls-33,.cls-35,.cls-54{mix-blend-mode:multiply;}.cls-17{fill:#fff;}.cls-18{fill:url(#linear-gradient);}.cls-19{fill:url(#linear-gradient-2);}.cls-20{fill:url(#linear-gradient-3);}.cls-21{fill:url(#linear-gradient-4);}.cls-22{mask:url(#mask-2);}.cls-23{fill:url(#linear-gradient-5);}.cls-24{fill:url(#linear-gradient-6);}.cls-25{fill:url(#linear-gradient-7);}.cls-26{fill:url(#linear-gradient-8);}.cls-27{mask:url(#mask-3);}.cls-28,.cls-33,.cls-35,.cls-54{fill:#004d99;}.cls-28{opacity:0.2;}.cls-29{mask:url(#mask-4);}.cls-30{mask:url(#mask-5);}.cls-31{mask:url(#mask-6);}.cls-32{mask:url(#mask-7);}.cls-34{mask:url(#mask-8);}.cls-35{opacity:0.4;}.cls-36{fill:url(#linear-gradient-9);}.cls-37{fill:url(#linear-gradient-10);}.cls-38{fill:url(#linear-gradient-11);}.cls-39{fill:url(#linear-gradient-12);}.cls-40{fill:url(#linear-gradient-13);}.cls-41{fill:url(#linear-gradient-14);}.cls-42{fill:url(#linear-gradient-15);}.cls-43{fill:url(#linear-gradient-16);}.cls-44{fill:url(#linear-gradient-17);}.cls-45{fill:url(#linear-gradient-18);}.cls-46{fill:url(#linear-gradient-19);}.cls-47{fill:url(#linear-gradient-20);}.cls-48{fill:url(#linear-gradient-21);}.cls-49{fill:url(#linear-gradient-22);}.cls-50{fill:url(#linear-gradient-23);}.cls-51{fill:url(#linear-gradient-24);}.cls-52{fill:url(#linear-gradient-25);}.cls-53{mask:url(#mask-9);}.cls-54{opacity:0.7;}.cls-55{mask:url(#mask-10);}.cls-56{fill:url(#linear-gradient-26);}.cls-57{fill:url(#linear-gradient-27);}.cls-58{fill:url(#linear-gradient-28);}.cls-59{fill:url(#linear-gradient-29);}.cls-60{fill:url(#linear-gradient-30);}.cls-61{fill:url(#linear-gradient-31);}.cls-62{fill:url(#linear-gradient-32);}.cls-63{fill:url(#linear-gradient-33);}.cls-64{fill:url(#linear-gradient-34);}.cls-65{fill:url(#linear-gradient-35);}.cls-66{fill:url(#linear-gradient-36);}.cls-67{fill:url(#linear-gradient-37);}.cls-68{fill:url(#linear-gradient-38);}.cls-69{fill:url(#linear-gradient-39);}.cls-70{fill:url(#linear-gradient-40);}.cls-71{fill:url(#linear-gradient-41);}.cls-72{fill:url(#linear-gradient-42);}.cls-73{fill:url(#linear-gradient-43);}.cls-74{fill:url(#linear-gradient-44);}.cls-75{fill:url(#linear-gradient-45);}.cls-76{fill:url(#linear-gradient-46);}.cls-77{fill:url(#linear-gradient-47);}.cls-78{fill:url(#linear-gradient-48);}.cls-79{fill:url(#linear-gradient-49);}.cls-80{fill:url(#linear-gradient-50);}.cls-81{fill:url(#linear-gradient-51);}.cls-82{fill:url(#linear-gradient-52);}.cls-83{fill:url(#linear-gradient-53);}.cls-84{fill:url(#linear-gradient-54);}.cls-85{fill:url(#linear-gradient-55);}.cls-86{fill:url(#linear-gradient-56);}.cls-87{fill:url(#linear-gradient-57);}.cls-88{fill:url(#linear-gradient-58);}.cls-89{fill:url(#linear-gradient-59);}.cls-90{fill:url(#linear-gradient-60);}.cls-91{fill:url(#linear-gradient-61);}.cls-92{fill:url(#linear-gradient-62);}.cls-93{fill:url(#linear-gradient-63);}.cls-94{fill:url(#linear-gradient-64);}.cls-95{fill:url(#linear-gradient-65);}.cls-96{fill:url(#linear-gradient-66);}.cls-97{fill:url(#linear-gradient-67);}.cls-98{fill:url(#linear-gradient-68);}.cls-99{fill:url(#linear-gradient-69);}.cls-100{fill:url(#linear-gradient-70);}.cls-101{fill:url(#linear-gradient-71);}.cls-102{fill:url(#linear-gradient-72);}.cls-103{fill:url(#linear-gradient-73);}.cls-104{fill:url(#linear-gradient-74);}.cls-105{fill:url(#linear-gradient-75);}.cls-106{fill:url(#linear-gradient-76);}.cls-107{fill:url(#linear-gradient-77);}.cls-108{fill:url(#linear-gradient-78);}.cls-109{fill:url(#linear-gradient-79);}.cls-110{fill:url(#linear-gradient-80);}.cls-111{fill:url(#linear-gradient-81);}.cls-112{mask:url(#mask-11);}.cls-113{mask:url(#mask-12);}.cls-114{fill:url(#linear-gradient-82);}.cls-115{fill:url(#linear-gradient-83);}.cls-116{fill:url(#linear-gradient-84);}.cls-117{fill:url(#linear-gradient-85);}.cls-118{fill:url(#linear-gradient-86);}.cls-119{fill:url(#linear-gradient-87);}.cls-120{fill:url(#linear-gradient-88);}.cls-121{fill:url(#linear-gradient-89);}.cls-122{fill:url(#linear-gradient-90);}.cls-123{fill:url(#linear-gradient-91);}.cls-124{fill:url(#linear-gradient-92);}.cls-125{fill:url(#linear-gradient-93);}.cls-126{fill:url(#linear-gradient-94);}.cls-127{fill:url(#linear-gradient-95);}.cls-128{fill:url(#linear-gradient-96);}.cls-129{fill:url(#linear-gradient-97);}.cls-130{fill:url(#linear-gradient-98);}.cls-131{fill:url(#linear-gradient-99);}.cls-132{fill:url(#linear-gradient-100);}.cls-133{fill:url(#linear-gradient-101);}.cls-134{fill:url(#linear-gradient-102);}.cls-135{fill:url(#linear-gradient-103);}.cls-136{fill:url(#linear-gradient-104);}.cls-137{fill:url(#linear-gradient-105);}.cls-138{fill:url(#linear-gradient-106);}.cls-139{fill:url(#linear-gradient-107);}.cls-140{fill:url(#linear-gradient-108);}.cls-141{fill:url(#linear-gradient-109);}.cls-142{fill:url(#linear-gradient-110);}.cls-143{fill:url(#linear-gradient-111);}.cls-144{fill:url(#linear-gradient-112);}.cls-145{fill:url(#linear-gradient-113);}.cls-146{fill:url(#linear-gradient-114);}.cls-147{fill:url(#linear-gradient-115);}.cls-148{fill:url(#linear-gradient-116);}.cls-149{fill:url(#linear-gradient-117);}.cls-150{fill:url(#linear-gradient-118);}.cls-151{fill:url(#linear-gradient-119);}.cls-152{fill:url(#linear-gradient-120);}.cls-153{fill:url(#linear-gradient-121);}.cls-154{fill:url(#linear-gradient-122);}.cls-155{fill:url(#linear-gradient-123);}.cls-156{fill:url(#linear-gradient-124);}.cls-157{fill:url(#linear-gradient-125);}.cls-158{fill:url(#linear-gradient-126);}.cls-159{fill:url(#linear-gradient-127);}.cls-160{fill:url(#linear-gradient-128);}.cls-161{fill:url(#linear-gradient-129);}.cls-162{fill:url(#linear-gradient-130);}.cls-163{fill:url(#linear-gradient-131);}.cls-164{fill:url(#linear-gradient-132);}</style><radialGradient id="radial-gradient" cx="-542.16" cy="2175.02" r="101.65" gradientTransform="matrix(1.72, 0, 0, -1.17, 1127.42, 2847.32)" gradientUnits="userSpaceOnUse"><stop offset="0" stop-color="#fff"/><stop offset="0.16" stop-color="#c2c2c2"/><stop offset="0.32" stop-color="#878787"/><stop offset="0.49" stop-color="#575757"/><stop offset="0.64" stop-color="#313131"/><stop offset="0.78" stop-color="#161616"/><stop offset="0.9" stop-color="#060606"/><stop offset="1"/></radialGradient><radialGradient id="radial-gradient-2" cx="-280.03" cy="2107.22" r="71.83" gradientTransform="matrix(1.7, 0, 0, -1.16, 1122.39, 2821.64)" xlink:href="#radial-gradient"/><radialGradient id="radial-gradient-3" cx="259.77" cy="2433.02" r="40.8" gradientTransform="matrix(0, 1.14, 1.17, 0, -2363.49, -172.64)" xlink:href="#radial-gradient"/><radialGradient id="radial-gradient-4" cx="104.56" cy="2398.01" r="40.8" gradientTransform="matrix(0, 1.14, 1.17, 0, -2501.56, 34.45)" xlink:href="#radial-gradient"/><radialGradient id="radial-gradient-5" cx="270.89" cy="2402.39" r="59.49" gradientTransform="matrix(0, 1.14, 1.17, 0, -2317.13, -148.81)" xlink:href="#radial-gradient"/><radialGradient id="radial-gradient-6" cx="135.1" cy="2426.5" r="59.49" gradientTransform="matrix(0, 1.14, 1.17, 0, -2498.16, -31.57)" xlink:href="#radial-gradient"/><radialGradient id="radial-gradient-7" cx="102.7" cy="2448.61" r="59.49" gradientTransform="matrix(0, 1.14, 1.17, 0, -2559.33, -23.01)" xlink:href="#radial-gradient"/><radialGradient id="radial-gradient-8" cx="257.11" cy="2478.76" r="59.49" gradientTransform="matrix(0, 1.14, 1.17, 0, -2416.84, -223.24)" xlink:href="#radial-gradient"/><radialGradient id="radial-gradient-9" cx="204.02" cy="2468.71" r="59.49" gradientTransform="matrix(0, 1.14, 1.17, 0, -2466.17, -154.7)" xlink:href="#radial-gradient"/><radialGradient id="radial-gradient-10" cx="70.3" cy="2386.98" r="59.49" gradientTransform="matrix(0, 1.14, 1.17, 0, -2528.39, 83.9)" xlink:href="#radial-gradient"/><radialGradient id="radial-gradient-11" cx="128.61" cy="2486.75" r="40.8" gradientTransform="matrix(0, 1.14, 1.17, 0, -2571.81, -95.12)" xlink:href="#radial-gradient"/><radialGradient id="radial-gradient-12" cx="190.33" cy="2431.77" r="40.8" gradientTransform="matrix(1.14, 0.07, 0.07, -1.17, 17.21, 2952.95)" xlink:href="#radial-gradient"/><mask id="mask" x="20.47" y="177.48" width="349.53" height="238.41" maskUnits="userSpaceOnUse"><ellipse class="cls-1" cx="195.24" cy="296.68" rx="174.76" ry="119.2"/></mask><linearGradient id="linear-gradient" x1="29" y1="197.58" x2="131.7" y2="255.16" gradientUnits="userSpaceOnUse"><stop offset="0" stop-color="#fff"/><stop offset="1" stop-color="#ebebeb"/></linearGradient><linearGradient id="linear-gradient-2" x1="240.49" y1="229.59" x2="124.8" y2="229.59" gradientUnits="userSpaceOnUse"><stop offset="0" stop-color="#e6e6e6"/><stop offset="1" stop-color="#d2d2d2"/></linearGradient><linearGradient id="linear-gradient-3" x1="67.3" y1="207.76" x2="127.99" y2="243.03" xlink:href="#linear-gradient-2"/><linearGradient id="linear-gradient-4" x1="190.69" y1="229.59" x2="100.16" y2="229.59" xlink:href="#linear-gradient"/><mask id="mask-2" x="523.46" y="291.81" width="244.54" height="166.8" maskUnits="userSpaceOnUse"><ellipse class="cls-2" cx="645.73" cy="375.21" rx="122.27" ry="83.4"/></mask><linearGradient id="linear-gradient-5" x1="529.42" y1="305.88" x2="601.28" y2="346.16" xlink:href="#linear-gradient"/><linearGradient id="linear-gradient-6" x1="677.39" y1="328.27" x2="596.45" y2="328.27" xlink:href="#linear-gradient-2"/><linearGradient id="linear-gradient-7" x1="556.22" y1="313" x2="598.68" y2="337.68" xlink:href="#linear-gradient-2"/><linearGradient id="linear-gradient-8" x1="642.55" y1="328.27" x2="579.21" y2="328.27" xlink:href="#linear-gradient"/><mask id="mask-3" x="432.46" y="90.37" width="135.62" height="139.52" maskUnits="userSpaceOnUse"><ellipse class="cls-5" cx="500.27" cy="160.13" rx="69.77" ry="67.8" transform="translate(309.43 649.51) rotate(-86.44)"/></mask><mask id="mask-4" x="279.74" y="52.53" width="135.62" height="139.52" maskUnits="userSpaceOnUse"><ellipse class="cls-6" cx="347.55" cy="122.29" rx="69.77" ry="67.8" transform="translate(203.91 461.57) rotate(-86.44)"/></mask><mask id="mask-5" x="244.49" y="24.36" width="135.62" height="139.52" maskUnits="userSpaceOnUse"><ellipse class="cls-7" cx="312.3" cy="94.12" rx="69.77" ry="67.8" transform="translate(198.99 399.98) rotate(-86.44)"/></mask><mask id="mask-6" x="422.34" y="0" width="135.62" height="139.52" maskUnits="userSpaceOnUse"><ellipse class="cls-8" cx="490.15" cy="69.76" rx="69.77" ry="67.8" transform="translate(390.09 554.63) rotate(-86.44)"/></mask><mask id="mask-7" x="361.22" y="8.01" width="135.62" height="139.52" maskUnits="userSpaceOnUse"><ellipse class="cls-9" cx="429.03" cy="77.77" rx="69.77" ry="67.8" transform="translate(324.77 501.14) rotate(-86.44)"/></mask><mask id="mask-8" x="203.15" y="94.21" width="135.62" height="139.52" maskUnits="userSpaceOnUse"><ellipse class="cls-10" cx="270.96" cy="163.97" rx="69.77" ry="67.8" transform="translate(90.48 424.22) rotate(-86.44)"/></mask><linearGradient id="linear-gradient-9" x1="392.85" y1="107.95" x2="365.42" y2="66.44" gradientTransform="translate(7.71 34.52) rotate(0.56)" gradientUnits="userSpaceOnUse"><stop offset="0" stop-color="#39f"/><stop offset="1" stop-color="#9cf"/></linearGradient><linearGradient id="linear-gradient-10" x1="363.9" y1="100.91" x2="378.59" y2="72.94" xlink:href="#linear-gradient-9"/><linearGradient id="linear-gradient-11" x1="380.66" y1="104.99" x2="352.45" y2="73.86" gradientTransform="translate(7.71 34.52) rotate(0.56)" gradientUnits="userSpaceOnUse"><stop offset="0" stop-color="#004d99"/><stop offset="1" stop-color="#39f"/></linearGradient><linearGradient id="linear-gradient-12" x1="378.33" y1="93.76" x2="406.79" y2="86.31" gradientTransform="translate(7.71 34.52) rotate(0.56)" gradientUnits="userSpaceOnUse"><stop offset="0.25" stop-color="#004d99"/><stop offset="1" stop-color="#06c"/></linearGradient><linearGradient id="linear-gradient-13" x1="384.01" y1="108.88" x2="358.39" y2="70.12" xlink:href="#linear-gradient-9"/><linearGradient id="linear-gradient-14" x1="375.9" y1="93.76" x2="363.62" y2="90.89" gradientTransform="translate(7.71 34.52) rotate(0.56)" gradientUnits="userSpaceOnUse"><stop offset="0" stop-color="#004d99"/><stop offset="1" stop-color="#06c"/></linearGradient><linearGradient id="linear-gradient-15" x1="387.96" y1="107.7" x2="362.35" y2="68.94" xlink:href="#linear-gradient-9"/><linearGradient id="linear-gradient-16" x1="374.49" y1="94" x2="389.62" y2="92.57" gradientTransform="translate(7.71 34.52) rotate(0.56)" gradientUnits="userSpaceOnUse"><stop offset="0" stop-color="#06c"/><stop offset="1" stop-color="#39f"/></linearGradient><linearGradient id="linear-gradient-17" x1="346.97" y1="180.66" x2="346.97" y2="-106.3" gradientTransform="translate(30.5 101.44) rotate(3.56)" gradientUnits="userSpaceOnUse"><stop offset="0.01" stop-color="#fff"/><stop offset="1" stop-color="#c3cfdd"/></linearGradient><linearGradient id="linear-gradient-18" x1="390.06" y1="148.61" x2="362.63" y2="107.1" gradientTransform="matrix(1, -0.06, 0.06, 1, -17.49, -56.91)" xlink:href="#linear-gradient-9"/><linearGradient id="linear-gradient-19" x1="361.11" y1="141.58" x2="375.8" y2="113.6" gradientTransform="matrix(1, -0.06, 0.06, 1, -17.49, -56.91)" xlink:href="#linear-gradient-9"/><linearGradient id="linear-gradient-20" x1="377.87" y1="145.65" x2="349.65" y2="114.52" gradientTransform="matrix(1, -0.06, 0.06, 1, -17.49, -56.91)" xlink:href="#linear-gradient-11"/><linearGradient id="linear-gradient-21" x1="375.54" y1="134.42" x2="404" y2="126.97" gradientTransform="matrix(1, -0.06, 0.06, 1, -17.49, -56.91)" xlink:href="#linear-gradient-12"/><linearGradient id="linear-gradient-22" x1="381.22" y1="149.55" x2="355.6" y2="110.78" gradientTransform="matrix(1, -0.06, 0.06, 1, -17.49, -56.91)" xlink:href="#linear-gradient-9"/><linearGradient id="linear-gradient-23" x1="373.11" y1="134.42" x2="360.83" y2="131.55" gradientTransform="matrix(1, -0.06, 0.06, 1, -17.49, -56.91)" xlink:href="#linear-gradient-14"/><linearGradient id="linear-gradient-24" x1="385.17" y1="148.36" x2="359.56" y2="109.6" gradientTransform="matrix(1, -0.06, 0.06, 1, -17.49, -56.91)" xlink:href="#linear-gradient-9"/><linearGradient id="linear-gradient-25" x1="371.7" y1="134.66" x2="386.83" y2="133.23" gradientTransform="matrix(1, -0.06, 0.06, 1, -17.49, -56.91)" xlink:href="#linear-gradient-16"/><mask id="mask-9" x="298.05" y="3.47" width="93.01" height="95.69" maskUnits="userSpaceOnUse"><ellipse class="cls-11" cx="344.56" cy="51.31" rx="47.85" ry="46.5" transform="translate(271.94 392.01) rotate(-86.44)"/></mask><mask id="mask-10" x="364.26" y="72.2" width="93.01" height="95.69" maskUnits="userSpaceOnUse"><path class="cls-12" d="M457.18,122.93c1.64-26.38-17.81-49.05-43.44-50.65S366,90.78,364.35,117.15s17.81,49,43.44,50.64S455.53,149.3,457.18,122.93Z"/></mask><linearGradient id="linear-gradient-26" x1="359.18" y1="180.89" x2="359.18" y2="-84.02" xlink:href="#linear-gradient-17"/><linearGradient id="linear-gradient-27" x1="316.41" y1="39.46" x2="340.26" y2="46.62" gradientTransform="translate(44.79 50.28) rotate(0.34)" xlink:href="#linear-gradient"/><linearGradient id="linear-gradient-28" x1="366.25" y1="35.34" x2="343.19" y2="47.66" gradientTransform="translate(44.79 50.28) rotate(0.34)" xlink:href="#linear-gradient-2"/><linearGradient id="linear-gradient-29" x1="326.93" y1="38.17" x2="343.62" y2="48.11" gradientTransform="translate(44.79 50.28) rotate(0.34)" xlink:href="#linear-gradient-2"/><linearGradient id="linear-gradient-30" x1="355.81" y1="46.53" x2="341.41" y2="46.53" gradientTransform="translate(44.79 50.28) rotate(0.34)" xlink:href="#linear-gradient"/><linearGradient id="linear-gradient-31" x1="276.1" y1="339.6" x2="299.95" y2="346.75" gradientTransform="translate(-37.3 -248.62) rotate(-11.48)" xlink:href="#linear-gradient"/><linearGradient id="linear-gradient-32" x1="325.93" y1="335.47" x2="302.88" y2="347.79" gradientTransform="translate(-37.3 -248.62) rotate(-11.48)" xlink:href="#linear-gradient-2"/><linearGradient id="linear-gradient-33" x1="286.62" y1="338.31" x2="303.31" y2="348.25" gradientTransform="translate(-37.3 -248.62) rotate(-11.48)" xlink:href="#linear-gradient-2"/><linearGradient id="linear-gradient-34" x1="315.49" y1="346.66" x2="301.09" y2="346.66" gradientTransform="translate(-37.3 -248.62) rotate(-11.48)" xlink:href="#linear-gradient"/><linearGradient id="linear-gradient-35" x1="288.32" y1="181.24" x2="288.32" y2="-60.41" xlink:href="#linear-gradient-17"/><linearGradient id="linear-gradient-36" x1="94.1" y1="1255.14" x2="66.68" y2="1213.63" gradientTransform="translate(-572.3 -820.95) rotate(-36.44)" xlink:href="#linear-gradient-9"/><linearGradient id="linear-gradient-37" x1="65.16" y1="1248.1" x2="79.85" y2="1220.13" gradientTransform="translate(-572.3 -820.95) rotate(-36.44)" xlink:href="#linear-gradient-9"/><linearGradient id="linear-gradient-38" x1="81.91" y1="1252.18" x2="53.7" y2="1221.05" gradientTransform="translate(-572.3 -820.95) rotate(-36.44)" xlink:href="#linear-gradient-11"/><linearGradient id="linear-gradient-39" x1="79.59" y1="1240.95" x2="108.05" y2="1233.5" gradientTransform="translate(-572.3 -820.95) rotate(-36.44)" xlink:href="#linear-gradient-12"/><linearGradient id="linear-gradient-40" x1="85.27" y1="1256.07" x2="59.65" y2="1217.31" gradientTransform="translate(-572.3 -820.95) rotate(-36.44)" xlink:href="#linear-gradient-9"/><linearGradient id="linear-gradient-41" x1="77.15" y1="1240.95" x2="64.87" y2="1238.08" gradientTransform="translate(-572.3 -820.95) rotate(-36.44)" xlink:href="#linear-gradient-14"/><linearGradient id="linear-gradient-42" x1="89.22" y1="1254.89" x2="63.61" y2="1216.13" gradientTransform="translate(-572.3 -820.95) rotate(-36.44)" xlink:href="#linear-gradient-9"/><linearGradient id="linear-gradient-43" x1="75.75" y1="1241.19" x2="90.87" y2="1239.76" gradientTransform="translate(-572.3 -820.95) rotate(-36.44)" xlink:href="#linear-gradient-16"/><linearGradient id="linear-gradient-44" x1="318.45" y1="181.58" x2="318.45" y2="-28.76" xlink:href="#linear-gradient-17"/><linearGradient id="linear-gradient-45" x1="193.13" y1="1223.58" x2="165.7" y2="1182.07" gradientTransform="matrix(0.83, -0.55, 0.55, 0.83, -528.11, -742.35)" xlink:href="#linear-gradient-9"/><linearGradient id="linear-gradient-46" x1="164.18" y1="1216.54" x2="178.88" y2="1188.57" gradientTransform="matrix(0.83, -0.55, 0.55, 0.83, -528.11, -742.35)" xlink:href="#linear-gradient-9"/><linearGradient id="linear-gradient-47" x1="180.94" y1="1220.62" x2="152.73" y2="1189.49" gradientTransform="matrix(0.83, -0.55, 0.55, 0.83, -528.11, -742.35)" xlink:href="#linear-gradient-11"/><linearGradient id="linear-gradient-48" x1="178.62" y1="1209.39" x2="207.08" y2="1201.94" gradientTransform="matrix(0.83, -0.55, 0.55, 0.83, -528.11, -742.35)" xlink:href="#linear-gradient-12"/><linearGradient id="linear-gradient-49" x1="184.3" y1="1224.51" x2="158.68" y2="1185.75" gradientTransform="matrix(0.83, -0.55, 0.55, 0.83, -528.11, -742.35)" xlink:href="#linear-gradient-9"/><linearGradient id="linear-gradient-50" x1="176.18" y1="1209.39" x2="163.9" y2="1206.52" gradientTransform="matrix(0.83, -0.55, 0.55, 0.83, -528.11, -742.35)" xlink:href="#linear-gradient-14"/><linearGradient id="linear-gradient-51" x1="188.25" y1="1223.32" x2="162.64" y2="1184.57" gradientTransform="matrix(0.83, -0.55, 0.55, 0.83, -528.11, -742.35)" xlink:href="#linear-gradient-9"/><linearGradient id="linear-gradient-52" x1="174.78" y1="1209.63" x2="189.9" y2="1208.2" gradientTransform="matrix(0.83, -0.55, 0.55, 0.83, -528.11, -742.35)" xlink:href="#linear-gradient-16"/><linearGradient id="linear-gradient-53" x1="404.21" y1="182.01" x2="404.21" y2="-60.86" xlink:href="#linear-gradient-17"/><linearGradient id="linear-gradient-54" x1="52.37" y1="-724.61" x2="24.94" y2="-766.11" gradientTransform="translate(80.35 761.38) rotate(30.56)" xlink:href="#linear-gradient-9"/><linearGradient id="linear-gradient-55" x1="23.42" y1="-731.64" x2="38.11" y2="-759.62" gradientTransform="translate(80.35 761.38) rotate(30.56)" xlink:href="#linear-gradient-9"/><linearGradient id="linear-gradient-56" x1="40.18" y1="-727.57" x2="11.97" y2="-758.7" gradientTransform="translate(80.35 761.38) rotate(30.56)" xlink:href="#linear-gradient-11"/><linearGradient id="linear-gradient-57" x1="37.86" y1="-738.8" x2="66.32" y2="-746.25" gradientTransform="translate(80.35 761.38) rotate(30.56)" xlink:href="#linear-gradient-12"/><linearGradient id="linear-gradient-58" x1="43.53" y1="-723.67" x2="17.92" y2="-762.44" gradientTransform="translate(80.35 761.38) rotate(30.56)" xlink:href="#linear-gradient-9"/><linearGradient id="linear-gradient-59" x1="35.42" y1="-738.8" x2="23.14" y2="-741.67" gradientTransform="translate(80.35 761.38) rotate(30.56)" xlink:href="#linear-gradient-14"/><linearGradient id="linear-gradient-60" x1="47.49" y1="-724.86" x2="21.87" y2="-763.62" gradientTransform="translate(80.35 761.38) rotate(30.56)" xlink:href="#linear-gradient-9"/><linearGradient id="linear-gradient-61" x1="34.02" y1="-738.56" x2="49.14" y2="-739.98" gradientTransform="translate(80.35 761.38) rotate(30.56)" xlink:href="#linear-gradient-16"/><linearGradient id="linear-gradient-62" x1="330.18" y1="180.57" x2="330.18" y2="-114.87" xlink:href="#linear-gradient-17"/><linearGradient id="linear-gradient-63" x1="330.14" y1="181.31" x2="330.14" y2="-84.88" xlink:href="#linear-gradient-17"/><linearGradient id="linear-gradient-64" x1="366.98" y1="180.9" x2="366.98" y2="-115.33" xlink:href="#linear-gradient-17"/><linearGradient id="linear-gradient-65" x1="393.28" y1="563.94" x2="365.85" y2="522.44" gradientTransform="translate(-196.14 -324.98) rotate(-16.44)" xlink:href="#linear-gradient-9"/><linearGradient id="linear-gradient-66" x1="364.33" y1="556.91" x2="379.03" y2="528.93" gradientTransform="translate(-196.14 -324.98) rotate(-16.44)" xlink:href="#linear-gradient-9"/><linearGradient id="linear-gradient-67" x1="381.09" y1="560.99" x2="352.88" y2="529.85" gradientTransform="translate(-196.14 -324.98) rotate(-16.44)" xlink:href="#linear-gradient-11"/><linearGradient id="linear-gradient-68" x1="378.77" y1="549.75" x2="407.23" y2="542.3" gradientTransform="translate(-196.14 -324.98) rotate(-16.44)" xlink:href="#linear-gradient-12"/><linearGradient id="linear-gradient-69" x1="384.45" y1="564.88" x2="358.83" y2="526.11" gradientTransform="translate(-196.14 -324.98) rotate(-16.44)" xlink:href="#linear-gradient-9"/><linearGradient id="linear-gradient-70" x1="376.33" y1="549.75" x2="364.05" y2="546.88" gradientTransform="translate(-196.14 -324.98) rotate(-16.44)" xlink:href="#linear-gradient-14"/><linearGradient id="linear-gradient-71" x1="388.4" y1="563.69" x2="362.79" y2="524.93" gradientTransform="translate(-196.14 -324.98) rotate(-16.44)" xlink:href="#linear-gradient-9"/><linearGradient id="linear-gradient-72" x1="374.93" y1="549.99" x2="390.05" y2="548.57" gradientTransform="translate(-196.14 -324.98) rotate(-16.44)" xlink:href="#linear-gradient-16"/><linearGradient id="linear-gradient-73" x1="380.48" y1="181.69" x2="380.48" y2="-15.22" xlink:href="#linear-gradient-17"/><linearGradient id="linear-gradient-74" x1="292.13" y1="-329.67" x2="264.7" y2="-371.18" gradientTransform="matrix(0.97, 0.25, -0.25, 0.97, 81.36, 378.33)" xlink:href="#linear-gradient-9"/><linearGradient id="linear-gradient-75" x1="263.18" y1="-336.71" x2="277.87" y2="-364.68" gradientTransform="matrix(0.97, 0.25, -0.25, 0.97, 81.36, 378.33)" xlink:href="#linear-gradient-9"/><linearGradient id="linear-gradient-76" x1="279.94" y1="-332.63" x2="251.73" y2="-363.76" gradientTransform="matrix(0.97, 0.25, -0.25, 0.97, 81.36, 378.33)" xlink:href="#linear-gradient-11"/><linearGradient id="linear-gradient-77" x1="277.62" y1="-343.86" x2="306.08" y2="-351.31" gradientTransform="matrix(0.97, 0.25, -0.25, 0.97, 81.36, 378.33)" xlink:href="#linear-gradient-12"/><linearGradient id="linear-gradient-78" x1="283.29" y1="-328.74" x2="257.68" y2="-367.5" gradientTransform="matrix(0.97, 0.25, -0.25, 0.97, 81.36, 378.33)" xlink:href="#linear-gradient-9"/><linearGradient id="linear-gradient-79" x1="275.18" y1="-343.86" x2="262.9" y2="-346.73" gradientTransform="matrix(0.97, 0.25, -0.25, 0.97, 81.36, 378.33)" xlink:href="#linear-gradient-14"/><linearGradient id="linear-gradient-80" x1="287.25" y1="-329.92" x2="261.64" y2="-368.68" gradientTransform="matrix(0.97, 0.25, -0.25, 0.97, 81.36, 378.33)" xlink:href="#linear-gradient-9"/><linearGradient id="linear-gradient-81" x1="273.78" y1="-343.62" x2="288.9" y2="-345.05" gradientTransform="matrix(0.97, 0.25, -0.25, 0.97, 81.36, 378.33)" xlink:href="#linear-gradient-16"/><mask id="mask-11" x="443.34" y="75.65" width="93.02" height="95.69" maskUnits="userSpaceOnUse"><ellipse class="cls-3" cx="489.84" cy="123.49" rx="47.85" ry="46.5" transform="translate(336.19 604.73) rotate(-86.44)"/></mask><mask id="mask-12" x="264.23" y="105.64" width="93.01" height="95.69" maskUnits="userSpaceOnUse"><ellipse class="cls-4" cx="310.74" cy="153.48" rx="47.85" ry="46.5" transform="translate(138.25 454.08) rotate(-86.44)"/></mask><linearGradient id="linear-gradient-82" x1="403.22" y1="180.89" x2="403.22" y2="-86.87" xlink:href="#linear-gradient-17"/><linearGradient id="linear-gradient-83" x1="136.24" y1="-673.37" x2="108.81" y2="-714.87" gradientTransform="translate(71.33 663.87) rotate(26.56)" xlink:href="#linear-gradient-9"/><linearGradient id="linear-gradient-84" x1="107.29" y1="-680.4" x2="121.99" y2="-708.38" gradientTransform="translate(71.33 663.87) rotate(26.56)" xlink:href="#linear-gradient-9"/><linearGradient id="linear-gradient-85" x1="124.05" y1="-676.33" x2="95.84" y2="-707.46" gradientTransform="translate(71.33 663.87) rotate(26.56)" xlink:href="#linear-gradient-11"/><linearGradient id="linear-gradient-86" x1="121.73" y1="-687.56" x2="150.19" y2="-695.01" gradientTransform="translate(71.33 663.87) rotate(26.56)" xlink:href="#linear-gradient-12"/><linearGradient id="linear-gradient-87" x1="127.41" y1="-672.43" x2="101.79" y2="-711.2" gradientTransform="translate(71.33 663.87) rotate(26.56)" xlink:href="#linear-gradient-9"/><linearGradient id="linear-gradient-88" x1="119.29" y1="-687.56" x2="107.01" y2="-690.43" gradientTransform="translate(71.33 663.87) rotate(26.56)" xlink:href="#linear-gradient-14"/><linearGradient id="linear-gradient-89" x1="131.36" y1="-673.62" x2="105.75" y2="-712.38" gradientTransform="translate(71.33 663.87) rotate(26.56)" xlink:href="#linear-gradient-9"/><linearGradient id="linear-gradient-90" x1="117.89" y1="-687.32" x2="133.01" y2="-688.74" gradientTransform="translate(71.33 663.87) rotate(26.56)" xlink:href="#linear-gradient-16"/><linearGradient id="linear-gradient-91" x1="398.9" y1="180.52" x2="398.9" y2="-119.53" xlink:href="#linear-gradient-17"/><linearGradient id="linear-gradient-92" x1="236.29" y1="-547.69" x2="260.13" y2="-540.54" gradientTransform="translate(58.33 457.6) rotate(18.56)" xlink:href="#linear-gradient"/><linearGradient id="linear-gradient-93" x1="286.12" y1="-551.81" x2="263.07" y2="-539.49" gradientTransform="translate(58.33 457.6) rotate(18.56)" xlink:href="#linear-gradient-2"/><linearGradient id="linear-gradient-94" x1="246.8" y1="-548.98" x2="263.5" y2="-539.04" gradientTransform="translate(58.33 457.6) rotate(18.56)" xlink:href="#linear-gradient-2"/><linearGradient id="linear-gradient-95" x1="275.68" y1="-540.62" x2="261.28" y2="-540.62" gradientTransform="translate(58.33 457.6) rotate(18.56)" xlink:href="#linear-gradient"/><linearGradient id="linear-gradient-96" x1="304.39" y1="180.7" x2="304.39" y2="-105.4" xlink:href="#linear-gradient-17"/><linearGradient id="linear-gradient-97" x1="240.25" y1="869.99" x2="212.83" y2="828.48" gradientTransform="translate(-301.39 -623.13) rotate(-25.44)" xlink:href="#linear-gradient-9"/><linearGradient id="linear-gradient-98" x1="211.31" y1="862.95" x2="226" y2="834.98" gradientTransform="translate(-301.39 -623.13) rotate(-25.44)" xlink:href="#linear-gradient-9"/><linearGradient id="linear-gradient-99" x1="228.06" y1="867.03" x2="199.85" y2="835.9" gradientTransform="translate(-301.39 -623.13) rotate(-25.44)" xlink:href="#linear-gradient-11"/><linearGradient id="linear-gradient-100" x1="225.74" y1="855.8" x2="254.2" y2="848.35" gradientTransform="translate(-301.39 -623.13) rotate(-25.44)" xlink:href="#linear-gradient-12"/><linearGradient id="linear-gradient-101" x1="231.42" y1="870.92" x2="205.8" y2="832.16" gradientTransform="translate(-301.39 -623.13) rotate(-25.44)" xlink:href="#linear-gradient-9"/><linearGradient id="linear-gradient-102" x1="223.3" y1="855.8" x2="211.02" y2="852.93" gradientTransform="translate(-301.39 -623.13) rotate(-25.44)" xlink:href="#linear-gradient-14"/><linearGradient id="linear-gradient-103" x1="235.37" y1="869.74" x2="209.76" y2="830.98" gradientTransform="translate(-301.39 -623.13) rotate(-25.44)" xlink:href="#linear-gradient-9"/><linearGradient id="linear-gradient-104" x1="221.9" y1="856.04" x2="237.03" y2="854.61" gradientTransform="translate(-301.39 -623.13) rotate(-25.44)" xlink:href="#linear-gradient-16"/><linearGradient id="linear-gradient-105" x1="388.27" y1="-74.47" x2="360.84" y2="-115.98" gradientTransform="translate(30.5 101.44) rotate(3.56)" xlink:href="#linear-gradient-9"/><linearGradient id="linear-gradient-106" x1="359.32" y1="-81.51" x2="374.01" y2="-109.48" gradientTransform="translate(30.5 101.44) rotate(3.56)" xlink:href="#linear-gradient-9"/><linearGradient id="linear-gradient-107" x1="376.08" y1="-77.43" x2="347.87" y2="-108.56" gradientTransform="translate(30.5 101.44) rotate(3.56)" xlink:href="#linear-gradient-11"/><linearGradient id="linear-gradient-108" x1="373.75" y1="-88.66" x2="402.21" y2="-96.11" gradientTransform="translate(30.5 101.44) rotate(3.56)" xlink:href="#linear-gradient-12"/><linearGradient id="linear-gradient-109" x1="379.43" y1="-73.53" x2="353.81" y2="-112.3" gradientTransform="translate(30.5 101.44) rotate(3.56)" xlink:href="#linear-gradient-9"/><linearGradient id="linear-gradient-110" x1="371.32" y1="-88.66" x2="359.04" y2="-91.53" gradientTransform="translate(30.5 101.44) rotate(3.56)" xlink:href="#linear-gradient-14"/><linearGradient id="linear-gradient-111" x1="383.38" y1="-74.72" x2="357.77" y2="-113.48" gradientTransform="translate(30.5 101.44) rotate(3.56)" xlink:href="#linear-gradient-9"/><linearGradient id="linear-gradient-112" x1="369.91" y1="-88.42" x2="385.04" y2="-89.85" gradientTransform="translate(30.5 101.44) rotate(3.56)" xlink:href="#linear-gradient-16"/><linearGradient id="linear-gradient-113" x1="311.31" y1="181.08" x2="311.31" y2="-71.96" xlink:href="#linear-gradient-17"/><linearGradient id="linear-gradient-114" x1="214.75" y1="925.07" x2="238.59" y2="932.22" gradientTransform="translate(-351.99 -612.08) rotate(-26.44)" xlink:href="#linear-gradient"/><linearGradient id="linear-gradient-115" x1="264.58" y1="920.95" x2="241.53" y2="933.27" gradientTransform="translate(-351.99 -612.08) rotate(-26.44)" xlink:href="#linear-gradient-2"/><linearGradient id="linear-gradient-116" x1="225.26" y1="923.78" x2="241.95" y2="933.72" gradientTransform="translate(-351.99 -612.08) rotate(-26.44)" xlink:href="#linear-gradient-2"/><linearGradient id="linear-gradient-117" x1="254.14" y1="932.14" x2="239.74" y2="932.14" gradientTransform="translate(-351.99 -612.08) rotate(-26.44)" xlink:href="#linear-gradient"/><linearGradient id="linear-gradient-118" x1="335.79" y1="181.44" x2="335.79" y2="-38.5" xlink:href="#linear-gradient-17"/><linearGradient id="linear-gradient-119" x1="345.67" y1="853.88" x2="318.24" y2="812.37" gradientTransform="matrix(0.93, -0.37, 0.37, 0.93, -287.03, -502.35)" xlink:href="#linear-gradient-9"/><linearGradient id="linear-gradient-120" x1="316.72" y1="846.84" x2="331.41" y2="818.87" gradientTransform="matrix(0.93, -0.37, 0.37, 0.93, -287.03, -502.35)" xlink:href="#linear-gradient-9"/><linearGradient id="linear-gradient-121" x1="333.48" y1="850.92" x2="305.27" y2="819.79" gradientTransform="matrix(0.93, -0.37, 0.37, 0.93, -287.03, -502.35)" xlink:href="#linear-gradient-11"/><linearGradient id="linear-gradient-122" x1="331.16" y1="839.69" x2="359.62" y2="832.24" gradientTransform="matrix(0.93, -0.37, 0.37, 0.93, -287.03, -502.35)" xlink:href="#linear-gradient-12"/><linearGradient id="linear-gradient-123" x1="336.83" y1="854.82" x2="311.21" y2="816.05" gradientTransform="matrix(0.93, -0.37, 0.37, 0.93, -287.03, -502.35)" xlink:href="#linear-gradient-9"/><linearGradient id="linear-gradient-124" x1="328.72" y1="839.69" x2="316.44" y2="836.82" gradientTransform="matrix(0.93, -0.37, 0.37, 0.93, -287.03, -502.35)" xlink:href="#linear-gradient-14"/><linearGradient id="linear-gradient-125" x1="340.79" y1="853.63" x2="315.17" y2="814.87" gradientTransform="matrix(0.93, -0.37, 0.37, 0.93, -287.03, -502.35)" xlink:href="#linear-gradient-9"/><linearGradient id="linear-gradient-126" x1="327.32" y1="839.93" x2="342.44" y2="838.5" gradientTransform="matrix(0.93, -0.37, 0.37, 0.93, -287.03, -502.35)" xlink:href="#linear-gradient-16"/><linearGradient id="linear-gradient-127" x1="382.33" y1="181.53" x2="382.33" y2="-28.58" xlink:href="#linear-gradient-17"/><linearGradient id="linear-gradient-128" x1="137.31" y1="-503.45" x2="161.16" y2="-496.29" gradientTransform="translate(103.52 578.43) rotate(21.56)" xlink:href="#linear-gradient"/><linearGradient id="linear-gradient-129" x1="187.15" y1="-507.57" x2="164.09" y2="-495.25" gradientTransform="translate(103.52 578.43) rotate(21.56)" xlink:href="#linear-gradient-2"/><linearGradient id="linear-gradient-130" x1="147.82" y1="-504.73" x2="164.52" y2="-494.8" gradientTransform="translate(103.52 578.43) rotate(21.56)" xlink:href="#linear-gradient-2"/><linearGradient id="linear-gradient-131" x1="176.7" y1="-496.38" x2="162.3" y2="-496.38" gradientTransform="translate(103.52 578.43) rotate(21.56)" xlink:href="#linear-gradient"/><linearGradient id="linear-gradient-132" x1="415.98" y1="472.35" x2="309.53" y2="321.55" xlink:href="#linear-gradient"/></defs><title>explanation-01</title><g class="cls-13"><g id="BG"><circle class="cls-14" cx="384" cy="288" r="240"/></g><g id="Objects"><g class="cls-15"><ellipse class="cls-16" cx="195.24" cy="296.68" rx="174.76" ry="119.2"/></g><path class="cls-17" d="M117.67,159.28C98.82,163.07,83.19,183,87.52,202.61c-9.28-10.62-26.69-12.93-38.41-5.08s-14.3,23.9-9.3,37.09c-11-6.44-26.61-3.41-34.4,6.7s-7.3,26.59,2.34,34.95c18.38,15.92,39.48,1.22,41-2.54.89,9.11,14.84,17,24,18.45,12.17,2,23.33-2.76,23.93-11.4,1.83,8.55,14.38,16.49,28.52,16.36V158.62A35.17,35.17,0,0,0,117.67,159.28Z"/><path class="cls-18" d="M119.38,161c-18.85,3.79-34.48,23.69-30.15,43.33C80,193.7,62.54,191.39,50.82,199.24s-14.3,23.9-9.3,37.09c-11-6.44-26.61-3.41-34.4,6.7s-7.3,26.59,2.34,35c18.38,15.92,39.48,1.22,41-2.54.89,9.11,14.84,17,24,18.45,12.17,2,23.33-2.76,23.93-11.4,1.83,8.55,14.38,16.49,28.52,16.36V160.32A35.84,35.84,0,0,0,119.38,161Z"/><path class="cls-17" d="M132.67,159.28c18.84,3.79,34.47,23.69,30.15,43.33,9.27-10.62,26.68-12.93,38.4-5.08s14.3,23.9,9.3,37.09c11-6.44,26.61-3.41,34.4,6.7s7.31,26.59-2.34,34.95c-18.38,15.92-39.48,1.22-41-2.54-.88,9.11-14.84,17-24,18.45-12.17,2-23.33-2.76-23.93-11.4-1.83,8.55-14.38,16.49-28.51,16.36V158.62A35.28,35.28,0,0,1,132.67,159.28Z"/><path class="cls-19" d="M134.38,161c18.84,3.79,34.47,23.69,30.15,43.33,9.27-10.62,26.68-12.93,38.4-5.08s14.3,23.9,9.3,37.09c11-6.44,26.61-3.41,34.4,6.7s7.31,26.59-2.34,35c-18.38,15.92-39.48,1.22-41-2.54-.89,9.11-14.84,17-24,18.45-12.17,2-23.33-2.76-23.93-11.4C153.56,291,141,299,126.88,298.85V160.32A36,36,0,0,1,134.38,161Z"/><path class="cls-17" d="M120.29,159.28C108,163.07,97.86,183,100.68,202.61c-6-10.62-17.36-12.93-25-5.08s-9.3,23.9-6,37.09c-7.17-6.44-17.31-3.41-22.38,6.7s-4.75,26.59,1.52,34.95c12,15.92,25.69,1.22,26.66-2.54.58,9.11,9.65,17,15.6,18.45,7.92,2,15.18-2.76,15.57-11.4,1.19,8.55,9.35,16.49,18.55,16.36V158.62A15.17,15.17,0,0,0,120.29,159.28Z"/><path class="cls-20" d="M122,161c-12.26,3.79-22.43,23.69-19.61,43.33-6-10.62-17.36-12.93-25-5.08s-9.31,23.9-6,37.09c-7.17-6.44-17.31-3.41-22.38,6.7s-4.75,26.59,1.52,35c12,15.92,25.69,1.22,26.66-2.54.58,9.11,9.65,17,15.6,18.45,7.92,2,15.18-2.76,15.57-11.4,1.19,8.55,9.35,16.49,18.55,16.36V160.32A15.46,15.46,0,0,0,122,161Z"/><path class="cls-17" d="M203.06,241.32c-5.07-10.11-15.21-13.14-22.38-6.7,3.26-13.19,1.58-29.24-6-37.09s-18.95-5.54-25,5.08c2.82-19.64-7.35-39.54-19.61-43.33a15.14,15.14,0,0,0-4.87-.66v.62c.57-.13,1.14,1.06,1.71,1.08V297.07c8.47-.79,15.72-8.28,16.83-16.29.39,8.64,7.66,13.38,15.57,11.4,5.95-1.49,15-9.34,15.6-18.45,1,3.76,14.7,18.46,26.66,2.54C207.81,267.91,208.13,251.43,203.06,241.32Z"/><path class="cls-21" d="M131.75,161c12.26,3.79,22.43,23.69,19.61,43.33,6-10.62,17.36-12.93,25-5.08s9.3,23.9,6,37.09c7.17-6.44,17.31-3.41,22.38,6.7s4.75,26.59-1.52,35c-12,15.92-25.68,1.22-26.66-2.54-.57,9.11-9.65,17-15.6,18.45-7.92,2-15.18-2.76-15.57-11.4-1.19,8.55-9.35,16.49-18.54,16.36V160.32A15.44,15.44,0,0,1,131.75,161Z"/><g class="cls-22"><ellipse class="cls-16" cx="645.73" cy="375.21" rx="122.27" ry="83.4"/></g><path class="cls-17" d="M591.46,279.08c-13.19,2.65-24.12,16.58-21.1,30.32-6.49-7.44-18.67-9-26.87-3.56s-10,16.72-6.5,26c-7.71-4.5-18.62-2.39-24.07,4.69s-5.11,18.6,1.64,24.45c12.85,11.14,27.62.86,28.67-1.78.62,6.38,10.38,11.87,16.78,12.91,8.51,1.38,16.32-1.93,16.75-8,1.27,6,10,11.53,19.94,11.44V278.61A25.1,25.1,0,0,0,591.46,279.08Z"/><path class="cls-23" d="M592.65,280.28c-13.18,2.65-24.12,16.57-21.09,30.31-6.49-7.43-18.67-9-26.87-3.55s-10,16.72-6.51,25.95c-7.71-4.51-18.62-2.39-24.07,4.68s-5.11,18.61,1.64,24.45c12.86,11.15,27.63.86,28.67-1.77.62,6.38,10.38,11.86,16.79,12.9,8.51,1.39,16.32-1.92,16.74-8,1.28,6,10.06,11.54,19.95,11.45V279.81A24.54,24.54,0,0,0,592.65,280.28Z"/><path class="cls-17" d="M602,279.08c13.19,2.65,24.12,16.58,21.1,30.32,6.49-7.44,18.67-9,26.87-3.56s10,16.72,6.5,26c7.71-4.5,18.62-2.39,24.07,4.69s5.11,18.6-1.64,24.45c-12.85,11.14-27.62.86-28.67-1.78-.62,6.38-10.38,11.87-16.78,12.91-8.52,1.38-16.33-1.93-16.75-8-1.28,6-10,11.53-19.95,11.44V278.61A25.14,25.14,0,0,1,602,279.08Z"/><path class="cls-24" d="M603.15,280.28c13.18,2.65,24.12,16.57,21.09,30.31,6.49-7.43,18.67-9,26.87-3.55s10,16.72,6.51,25.95c7.71-4.51,18.62-2.39,24.07,4.68s5.11,18.61-1.64,24.45c-12.86,11.15-27.63.86-28.67-1.77-.62,6.38-10.38,11.86-16.79,12.9-8.51,1.39-16.32-1.92-16.74-8-1.28,6-10.06,11.54-20,11.45V279.81A24.54,24.54,0,0,1,603.15,280.28Z"/><path class="cls-17" d="M593.29,279.08c-8.57,2.65-15.69,16.58-13.72,30.32-4.22-7.44-12.14-9-17.48-3.56s-6.5,16.72-4.23,26c-5-4.5-12.11-2.39-15.65,4.69s-3.33,18.6,1.06,24.45c8.36,11.14,18,.86,18.65-1.78.4,6.38,6.75,11.87,10.92,12.91,5.53,1.38,10.61-1.93,10.89-8,.83,6,6.54,11.53,13,11.44V278.61A10.88,10.88,0,0,0,593.29,279.08Z"/><path class="cls-25" d="M594.49,280.28c-8.58,2.65-15.69,16.57-13.72,30.31-4.22-7.43-12.15-9-17.48-3.55s-6.51,16.72-4.23,25.95c-5-4.51-12.11-2.39-15.66,4.68s-3.32,18.61,1.07,24.45c8.36,11.15,18,.86,18.65-1.77.4,6.38,6.75,11.86,10.91,12.9,5.54,1.39,10.62-1.92,10.89-8,.84,6,6.55,11.54,13,11.45V279.81A10.52,10.52,0,0,0,594.49,280.28Z"/><path class="cls-17" d="M651.2,336.48c-3.54-7.08-10.64-9.19-15.65-4.69,2.27-9.23,1.1-20.46-4.23-26s-13.26-3.88-17.48,3.56c2-13.74-5.15-27.67-13.72-30.32a10.9,10.9,0,0,0-3.42-.47v.44c.4-.09.8.75,1.2.76v95.68a13.79,13.79,0,0,0,11.78-11.4c.27,6,5.35,9.35,10.89,8,4.17-1,10.51-6.53,10.92-12.91.68,2.64,10.28,12.92,18.65,1.78C654.53,355.08,654.75,343.55,651.2,336.48Z"/><path class="cls-26" d="M601.31,280.28c8.58,2.65,15.69,16.57,13.72,30.31,4.22-7.43,12.15-9,17.48-3.55S639,323.76,636.74,333c5-4.51,12.11-2.39,15.66,4.68s3.32,18.61-1.07,24.45c-8.36,11.15-18,.86-18.65-1.77-.4,6.38-6.75,11.86-10.91,12.9-5.54,1.39-10.62-1.92-10.89-8-.84,6-6.55,11.54-13,11.45V279.81A10.52,10.52,0,0,1,601.31,280.28Z"/><g class="cls-27"><ellipse class="cls-28" cx="500.27" cy="160.13" rx="69.77" ry="67.8" transform="translate(309.43 649.51) rotate(-86.44)"/></g><g class="cls-29"><ellipse class="cls-28" cx="347.55" cy="122.29" rx="69.77" ry="67.8" transform="translate(203.91 461.57) rotate(-86.44)"/></g><g class="cls-30"><ellipse class="cls-28" cx="312.3" cy="94.12" rx="69.77" ry="67.8" transform="translate(198.99 399.98) rotate(-86.44)"/></g><g class="cls-31"><ellipse class="cls-28" cx="490.15" cy="69.76" rx="69.77" ry="67.8" transform="translate(390.09 554.63) rotate(-86.44)"/></g><g class="cls-32"><ellipse class="cls-33" cx="429.03" cy="77.77" rx="69.77" ry="67.8" transform="translate(324.77 501.14) rotate(-86.44)"/></g><g class="cls-34"><ellipse class="cls-35" cx="270.96" cy="163.97" rx="69.77" ry="67.8" transform="translate(90.48 424.22) rotate(-86.44)"/></g><path class="cls-36" d="M383,104.74l-.52,53.57a26.79,26.79,0,1,0,.52-53.57Z"/><path class="cls-37" d="M356,131.27a26.78,26.78,0,0,0,26.52,27l.52-53.57A26.78,26.78,0,0,0,356,131.27Z"/><path class="cls-38" d="M356.45,131.74a26.8,26.8,0,0,0,26.53,27l.52-53.57A26.79,26.79,0,0,0,356.45,131.74Z"/><path class="cls-39" d="M383.5,105.22,383,158.79a26.79,26.79,0,0,0,.52-53.57Z"/><path class="cls-40" d="M369.38,131.4c-.14,14.79,5.74,26.84,13.13,26.91l.52-53.57C375.64,104.67,369.53,116.61,369.38,131.4Z"/><path class="cls-41" d="M369.85,131.87c-.15,14.79,5.73,26.84,13.13,26.92l.52-53.57C376.1,105.15,370,117.08,369.85,131.87Z"/><path class="cls-42" d="M383,104.74V105c.16,0,.31.27.47.27L383,158.29c7.18-.42,13-12.15,13.18-26.63C396.31,116.87,390.43,104.82,383,104.74Z"/><path class="cls-43" d="M383.5,105.22,383,158.79c7.39.07,13.51-11.86,13.65-26.66S390.9,105.29,383.5,105.22Z"/><polygon class="cls-44" points="379.83 307.44 364.2 78.86 365.05 78.82 380.68 307.4 379.83 307.44"/><path class="cls-45" d="M361.46,27.71l3.22,53.48a26.79,26.79,0,0,0-3.22-53.48Z"/><path class="cls-46" d="M336.33,56.06a26.8,26.8,0,0,0,28.35,25.13l-3.22-53.48A26.79,26.79,0,0,0,336.33,56.06Z"/><path class="cls-47" d="M336.83,56.5a26.79,26.79,0,0,0,28.34,25.13L362,28.15A26.79,26.79,0,0,0,336.83,56.5Z"/><path class="cls-48" d="M362,28.15l3.21,53.48A26.79,26.79,0,0,0,362,28.15Z"/><path class="cls-49" d="M349.7,55.25c.89,14.77,7.59,26.38,15,25.94l-3.22-53.48C354.08,28.16,348.81,40.49,349.7,55.25Z"/><path class="cls-50" d="M350.2,55.69c.89,14.77,7.59,26.38,15,25.94L362,28.15C354.58,28.6,349.31,40.93,350.2,55.69Z"/><path class="cls-51" d="M361.46,27.71v.21c.16-.05.33.24.49.23l3.18,53c7.14-.92,12.17-13,11.3-27.48C375.55,38.88,368.84,27.27,361.46,27.71Z"/><path class="cls-52" d="M362,28.15l3.21,53.48c7.39-.45,12.65-12.78,11.76-27.54S369.34,27.71,362,28.15Z"/><g class="cls-53"><ellipse class="cls-54" cx="344.56" cy="51.31" rx="47.85" ry="46.5" transform="translate(271.94 392.01) rotate(-86.44)"/></g><g class="cls-55"><path class="cls-54" d="M457.18,122.93c1.64-26.38-17.81-49.05-43.44-50.65S366,90.78,364.35,117.15s17.81,49,43.44,50.64S455.53,149.3,457.18,122.93Z"/></g><polygon class="cls-56" points="379.83 307.41 385.86 124 386.71 124.02 380.68 307.43 379.83 307.41"/><path class="cls-17" d="M386.15,71.6l-.32,53.57a26.79,26.79,0,1,0,.32-53.57Z"/><path class="cls-17" d="M359.21,98.22a26.78,26.78,0,0,0,26.62,27l.32-53.57A26.78,26.78,0,0,0,359.21,98.22Z"/><path class="cls-57" d="M359.67,98.7a26.78,26.78,0,0,0,26.63,26.94l.32-53.57A26.79,26.79,0,0,0,359.67,98.7Z"/><path class="cls-58" d="M386.62,72.07l-.32,53.57a26.79,26.79,0,0,0,.32-53.57Z"/><path class="cls-17" d="M372.6,98.3c-.09,14.8,5.83,26.82,13.23,26.87l.32-53.57C378.76,71.56,372.69,83.51,372.6,98.3Z"/><path class="cls-59" d="M373.07,98.78c-.09,14.79,5.83,26.82,13.23,26.86l.32-53.57C379.22,72,373.16,84,373.07,98.78Z"/><path class="cls-17" d="M386.15,71.6v.2c.16,0,.31.27.47.27l-.32,53.08c7.18-.45,13-12.21,13.08-26.68C399.47,83.67,393.55,71.64,386.15,71.6Z"/><path class="cls-60" d="M386.62,72.07l-.32,53.57c7.39,0,13.46-11.91,13.55-26.7S394,72.12,386.62,72.07Z"/><path class="cls-17" d="M321.44,4.44l10.66,52.5a26.79,26.79,0,1,0-10.66-52.5Z"/><path class="cls-17" d="M300.52,36A26.79,26.79,0,0,0,332.1,56.94L321.44,4.44A26.79,26.79,0,0,0,300.52,36Z"/><path class="cls-61" d="M301.08,36.39A26.77,26.77,0,0,0,332.66,57.3L322,4.81A26.78,26.78,0,0,0,301.08,36.39Z"/><path class="cls-62" d="M322,4.81,332.66,57.3A26.78,26.78,0,0,0,322,4.81Z"/><path class="cls-17" d="M313.65,33.36c2.94,14.49,11.21,25,18.45,23.58L321.44,4.44C314.19,5.91,310.7,18.86,313.65,33.36Z"/><path class="cls-63" d="M314.2,33.72c2.95,14.5,11.21,25.06,18.46,23.58L322,4.81C314.74,6.28,311.26,19.23,314.2,33.72Z"/><path class="cls-17" d="M321.44,4.44l0,.2c.14-.07.36.2.51.17l10.57,52c6.94-1.92,10.22-14.61,7.34-28.8C337,13.53,328.69,3,321.44,4.44Z"/><path class="cls-64" d="M322,4.81,332.66,57.3c7.25-1.47,10.73-14.41,7.79-28.91S329.24,3.33,322,4.81Z"/><polygon class="cls-65" points="379.87 307.61 242.22 151.4 242.98 151.02 380.64 307.23 379.87 307.61"/><path class="cls-66" d="M210.79,109.62l31.82,43.1a26.79,26.79,0,0,0-31.82-43.1Z"/><path class="cls-67" d="M205.16,147.08a26.77,26.77,0,0,0,37.45,5.64l-31.82-43.1A26.78,26.78,0,0,0,205.16,147.08Z"/><path class="cls-68" d="M205.81,147.18a26.79,26.79,0,0,0,37.46,5.64l-31.82-43.1A26.8,26.8,0,0,0,205.81,147.18Z"/><path class="cls-69" d="M211.45,109.72l31.82,43.1a26.79,26.79,0,0,0-31.82-43.1Z"/><path class="cls-70" d="M215.93,139.13c8.79,11.9,20.73,18,26.68,13.59l-31.82-43.1C204.84,114,207.14,127.23,215.93,139.13Z"/><path class="cls-71" d="M216.59,139.23c8.78,11.9,20.73,18,26.68,13.59l-31.82-43.1C205.5,114.12,207.8,127.33,216.59,139.23Z"/><path class="cls-72" d="M210.79,109.62l.12.17c.11-.13.41,0,.54-.07L243,152.42c5.48-4.66,3.1-17.56-5.5-29.2C228.69,111.32,216.74,105.23,210.79,109.62Z"/><path class="cls-73" d="M211.45,109.72l31.82,43.1c5.95-4.39,3.65-17.6-5.13-29.5S217.4,105.33,211.45,109.72Z"/><polygon class="cls-74" points="379.85 307.56 300.07 191.56 300.88 191.28 380.66 307.29 379.85 307.56"/><path class="cls-75" d="M270.48,147,300,191.73A26.78,26.78,0,1,0,270.48,147Z"/><path class="cls-76" d="M262.89,184.14A26.79,26.79,0,0,0,300,191.73L270.48,147A26.79,26.79,0,0,0,262.89,184.14Z"/><path class="cls-77" d="M263.54,184.27a26.77,26.77,0,0,0,37.11,7.59l-29.52-44.7A26.79,26.79,0,0,0,263.54,184.27Z"/><path class="cls-78" d="M271.13,147.16l29.52,44.7a26.78,26.78,0,1,0-29.52-44.7Z"/><path class="cls-79" d="M274.07,176.76c8.15,12.34,19.76,19.05,25.93,15L270.48,147C264.31,151.1,265.91,164.42,274.07,176.76Z"/><path class="cls-80" d="M274.72,176.89c8.15,12.35,19.76,19.05,25.93,15l-29.52-44.7C265,151.24,266.56,164.55,274.72,176.89Z"/><path class="cls-81" d="M270.48,147l.11.17c.11-.12.41.05.54,0l29.25,44.29c5.72-4.37,4-17.37-4-29.45C288.26,149.66,276.65,143,270.48,147Z"/><path class="cls-82" d="M271.13,147.16l29.52,44.7c6.17-4.07,4.57-17.38-3.58-29.73S277.3,143.09,271.13,147.16Z"/><polygon class="cls-83" points="473.24 165.43 380.49 305.47 380.48 305.37 380.02 309.37 474.05 165.72 473.24 165.43"/><path class="cls-84" d="M500.36,119.81l-27.24,46.13a26.79,26.79,0,1,0,27.24-46.13Z"/><path class="cls-85" d="M463.68,129.25a26.79,26.79,0,0,0,9.44,36.69l27.24-46.13A26.79,26.79,0,0,0,463.68,129.25Z"/><path class="cls-86" d="M463.84,129.9a26.78,26.78,0,0,0,9.45,36.68l27.24-46.13A26.79,26.79,0,0,0,463.84,129.9Z"/><path class="cls-87" d="M500.53,120.45l-27.24,46.13a26.79,26.79,0,0,0,27.24-46.13Z"/><path class="cls-88" d="M475.21,136.06c-7.52,12.74-8.46,26.12-2.09,29.88l27.24-46.13C494,116.05,482.73,123.33,475.21,136.06Z"/><path class="cls-89" d="M475.38,136.71c-7.53,12.74-8.46,26.11-2.09,29.87l27.24-46.13C494.16,116.69,482.9,124,475.38,136.71Z"/><path class="cls-90" d="M500.36,119.81l-.1.17c.15,0,.13.39.27.47l-27,45.71c6.43,3.22,17.37-4,24.73-16.48C505.8,136.94,506.73,123.57,500.36,119.81Z"/><path class="cls-91" d="M500.53,120.45l-27.24,46.13c6.37,3.76,17.63-3.52,25.15-16.25S506.89,124.21,500.53,120.45Z"/><polygon class="cls-92" points="379.83 307.48 331.95 56.52 332.79 56.41 380.68 307.37 379.83 307.48"/><polygon class="cls-93" points="380.42 301.39 328.61 119.25 327.77 119.39 380.79 308.57 380.42 301.39"/><polygon class="cls-94" points="405.26 59.92 380.42 301.39 380.79 308.57 406.11 59.98 405.26 59.92"/><path class="cls-95" d="M312.76,69.66,327.92,121a26.78,26.78,0,1,0-15.16-51.38Z"/><path class="cls-96" d="M294.65,102.93A26.79,26.79,0,0,0,327.92,121L312.76,69.66A26.78,26.78,0,0,0,294.65,102.93Z"/><path class="cls-97" d="M295.23,103.25a26.8,26.8,0,0,0,33.27,18.11L313.34,70A26.79,26.79,0,0,0,295.23,103.25Z"/><path class="cls-98" d="M313.34,70l15.16,51.38A26.78,26.78,0,1,0,313.34,70Z"/><path class="cls-99" d="M307.49,99.14c4.19,14.19,13.34,24,20.43,21.9L312.76,69.66C305.67,71.75,303.31,85,307.49,99.14Z"/><path class="cls-100" d="M308.08,99.46c4.19,14.18,13.33,24,20.42,21.9L313.34,70C306.25,72.07,303.89,85.27,308.08,99.46Z"/><path class="cls-101" d="M312.76,69.66l.06.19c.14-.08.37.17.52.13l15,50.9c6.75-2.51,8.92-15.44,4.82-29.32C329,77.37,319.85,67.56,312.76,69.66Z"/><path class="cls-102" d="M313.34,70l15.16,51.38c7.1-2.1,9.46-15.3,5.27-29.48S320.44,67.88,313.34,70Z"/><polygon class="cls-103" points="380.67 307.52 379.84 307.32 427.58 139.62 428.41 139.82 380.67 307.52"/><path class="cls-104" d="M441.08,88.36l-13.47,51.85a26.79,26.79,0,0,0,13.47-51.85Z"/><path class="cls-105" d="M408.42,107.55a26.78,26.78,0,0,0,19.19,32.66l13.47-51.85A26.79,26.79,0,0,0,408.42,107.55Z"/><path class="cls-106" d="M408.76,108.13A26.79,26.79,0,0,0,428,140.79l13.47-51.85A26.78,26.78,0,0,0,408.76,108.13Z"/><path class="cls-107" d="M441.42,88.94,428,140.79a26.79,26.79,0,0,0,13.47-51.85Z"/><path class="cls-108" d="M421.38,110.92c-3.72,14.32-.93,27.43,6.23,29.29l13.47-51.85C433.92,86.5,425.1,96.6,421.38,110.92Z"/><path class="cls-109" d="M421.72,111.49c-3.72,14.32-.93,27.44,6.23,29.3l13.47-51.85C434.26,87.08,425.44,97.18,421.72,111.49Z"/><path class="cls-110" d="M441.08,88.36l-.05.2c.16,0,.23.34.39.38l-13.35,51.37c7.08,1.32,15.6-8.64,19.24-22.66C451,103.34,448.24,90.22,441.08,88.36Z"/><path class="cls-111" d="M441.42,88.94,428,140.79c7.16,1.85,16-8.24,19.69-22.56S448.57,90.8,441.42,88.94Z"/><g class="cls-112"><ellipse class="cls-54" cx="489.84" cy="123.49" rx="47.85" ry="46.5" transform="translate(336.19 604.73) rotate(-86.44)"/></g><g class="cls-113"><ellipse class="cls-54" cx="310.74" cy="153.48" rx="47.85" ry="46.5" transform="translate(138.25 454.08) rotate(-86.44)"/></g><polygon class="cls-114" points="380.66 307.55 379.85 307.3 474.1 124.49 474.91 124.74 380.66 307.55"/><path class="cls-115" d="M497.69,77.87l-23.95,47.92a26.79,26.79,0,0,0,23.95-47.92Z"/><path class="cls-116" d="M461.76,89.86a26.77,26.77,0,0,0,12,35.93l23.95-47.92A26.78,26.78,0,0,0,461.76,89.86Z"/><path class="cls-117" d="M462,90.49a26.77,26.77,0,0,0,12,35.93L497.9,78.51A26.77,26.77,0,0,0,462,90.49Z"/><path class="cls-118" d="M497.9,78.51,474,126.42A26.78,26.78,0,0,0,497.9,78.51Z"/><path class="cls-119" d="M473.74,95.84c-6.62,13.24-6.62,26.64,0,30l23.95-47.92C491.08,74.57,480.35,82.61,473.74,95.84Z"/><path class="cls-120" d="M474,96.48c-6.62,13.23-6.62,26.63,0,29.94L497.9,78.51C491.29,75.2,480.56,83.24,474,96.48Z"/><path class="cls-121" d="M497.69,77.87l-.09.19c.16,0,.16.37.3.45L474.17,126c6.64,2.77,17.05-5.21,23.52-18.16C504.31,94.59,504.31,81.18,497.69,77.87Z"/><path class="cls-122" d="M497.9,78.51,474,126.42c6.62,3.31,17.34-4.74,24-18S504.52,81.81,497.9,78.51Z"/><polygon class="cls-123" points="380.67 307.52 379.84 307.32 469.9 52.79 470.73 52.98 380.67 307.52"/><path class="cls-17" d="M486.85,2.44,469.79,53.22A26.78,26.78,0,0,0,486.85,2.44Z"/><path class="cls-17" d="M452.93,19.3a26.78,26.78,0,0,0,16.86,33.92L486.85,2.44A26.78,26.78,0,0,0,452.93,19.3Z"/><path class="cls-124" d="M453.22,19.9a26.8,26.8,0,0,0,16.87,33.92L487.14,3A26.8,26.8,0,0,0,453.22,19.9Z"/><path class="cls-125" d="M487.14,3,470.09,53.82A26.79,26.79,0,0,0,487.14,3Z"/><path class="cls-17" d="M465.62,23.57c-4.7,14-2.84,27.3,4.17,29.65L486.85,2.44C479.83.08,470.33,9.54,465.62,23.57Z"/><path class="cls-126" d="M465.92,24.16c-4.71,14-2.84,27.3,4.17,29.66L487.14,3C480.13.68,470.63,10.14,465.92,24.16Z"/><path class="cls-17" d="M486.85,2.44l-.07.19c.16,0,.21.35.36.4L470.25,53.35c7,1.81,16.16-7.53,20.77-21.26C495.73,18.07,493.86,4.79,486.85,2.44Z"/><path class="cls-127" d="M487.14,3,470.09,53.82c7,2.35,16.51-7.11,21.22-21.13S494.15,5.39,487.14,3Z"/><polygon class="cls-128" points="379.84 307.54 279.1 75.78 279.91 75.55 380.66 307.3 379.84 307.54"/><path class="cls-129" d="M256.29,29.12l23,48.37a26.78,26.78,0,1,0-23-48.37Z"/><path class="cls-130" d="M243.61,64.81A26.77,26.77,0,0,0,279.3,77.49l-23-48.37A26.77,26.77,0,0,0,243.61,64.81Z"/><path class="cls-131" d="M244.23,65a26.79,26.79,0,0,0,35.7,12.68l-23-48.37A26.79,26.79,0,0,0,244.23,65Z"/><path class="cls-132" d="M256.91,29.34l23,48.37a26.78,26.78,0,1,0-23-48.37Z"/><path class="cls-133" d="M255.7,59.06c6.35,13.36,16.92,21.61,23.6,18.43l-23-48.37C249.61,32.29,249.35,45.7,255.7,59.06Z"/><path class="cls-134" d="M256.33,59.28c6.35,13.36,16.92,21.61,23.6,18.43l-23-48.37C250.23,32.52,250,45.92,256.33,59.28Z"/><path class="cls-135" d="M256.29,29.12l.08.18c.13-.1.4.11.54,0l22.8,47.93c6.27-3.53,6.4-16.65.18-29.72C273.53,34.19,263,25.94,256.29,29.12Z"/><path class="cls-136" d="M256.91,29.34l23,48.37c6.68-3.17,6.94-16.58.58-29.94S263.59,26.16,256.91,29.34Z"/><path class="cls-137" d="M408.38,8.85l-3.32,53.46a26.78,26.78,0,1,0,3.32-53.46Z"/><path class="cls-138" d="M380,33.92a26.78,26.78,0,0,0,25.07,28.39l3.32-53.46A26.78,26.78,0,0,0,380,33.92Z"/><path class="cls-139" d="M380.43,34.41a26.78,26.78,0,0,0,25.07,28.4l3.32-53.47A26.79,26.79,0,0,0,380.43,34.41Z"/><path class="cls-140" d="M408.82,9.34,405.5,62.81a26.79,26.79,0,0,0,3.32-53.47Z"/><path class="cls-141" d="M393.35,34.75c-.91,14.76,4.33,27.1,11.71,27.56l3.32-53.46C401,8.39,394.27,20,393.35,34.75Z"/><path class="cls-142" d="M393.79,35.25c-.91,14.76,4.33,27.1,11.71,27.56l3.32-53.47C401.44,8.89,394.71,20.48,393.79,35.25Z"/><path class="cls-143" d="M408.38,8.85v.2c.16,0,.3.28.45.29l-3.29,53c7.19,0,13.66-11.46,14.56-25.91C421,21.65,415.77,9.31,408.38,8.85Z"/><path class="cls-144" d="M408.82,9.34,405.5,62.81c7.38.46,14.11-11.14,15-25.9S416.21,9.8,408.82,9.34Z"/><polygon class="cls-145" points="379.85 307.55 289.11 137.73 289.92 137.47 380.66 307.29 379.85 307.55"/><path class="cls-17" d="M265.68,91.37l23.86,48a26.78,26.78,0,0,0-23.86-48Z"/><path class="cls-17" d="M253.63,127.27a26.78,26.78,0,0,0,35.91,12.06l-23.86-48A26.77,26.77,0,0,0,253.63,127.27Z"/><path class="cls-146" d="M254.26,127.49a26.78,26.78,0,0,0,35.91,12l-23.86-48A26.78,26.78,0,0,0,254.26,127.49Z"/><path class="cls-147" d="M266.31,91.58l23.86,48a26.78,26.78,0,0,0-23.86-48Z"/><path class="cls-17" d="M265.62,121.31c6.58,13.25,17.29,21.32,23.92,18l-23.86-48C259.06,94.66,259,108.07,265.62,121.31Z"/><path class="cls-148" d="M266.25,121.52c6.58,13.25,17.29,21.32,23.92,18l-23.86-48C259.69,94.87,259.66,108.28,266.25,121.52Z"/><path class="cls-17" d="M265.68,91.37l.09.18c.13-.11.4.1.54,0L290,139.1c6.2-3.64,6.1-16.75-.35-29.71C283,96.14,272.31,88.07,265.68,91.37Z"/><path class="cls-149" d="M266.31,91.58l23.86,48c6.62-3.29,6.65-16.7.06-29.94S272.94,88.28,266.31,91.58Z"/><polygon class="cls-150" points="379.84 307.5 335.3 183.43 336.14 183.28 380.67 307.35 379.84 307.5"/><path class="cls-151" d="M316,133.72l19.58,49.86A26.78,26.78,0,1,0,316,133.72Z"/><path class="cls-152" d="M300.83,168.44a26.78,26.78,0,0,0,34.72,15.14L316,133.72A26.78,26.78,0,0,0,300.83,168.44Z"/><path class="cls-153" d="M301.44,168.71a26.78,26.78,0,0,0,34.72,15.14L316.58,134A26.78,26.78,0,0,0,301.44,168.71Z"/><path class="cls-154" d="M316.58,134l19.58,49.86A26.78,26.78,0,0,0,316.58,134Z"/><path class="cls-155" d="M313.3,163.55c5.4,13.77,15.37,22.74,22.25,20L316,133.72C309.09,136.43,307.89,149.78,313.3,163.55Z"/><path class="cls-156" d="M313.91,163.81c5.4,13.77,15.37,22.74,22.25,20L316.58,134C309.7,136.69,308.5,150.05,313.91,163.81Z"/><path class="cls-157" d="M316,133.72l.07.19c.14-.09.39.14.54.08l19.4,49.4c6.5-3.09,7.54-16.16,2.25-29.63C332.82,140,322.86,131,316,133.72Z"/><path class="cls-158" d="M316.58,134l19.58,49.86c6.89-2.7,8.08-16.06,2.68-29.83S323.46,131.28,316.58,134Z"/><polygon class="cls-159" points="380.67 307.51 379.84 307.33 427.57 199.3 428.41 199.48 380.67 307.51"/><path class="cls-17" d="M447,151.12l-19.69,49.82A26.78,26.78,0,0,0,447,151.12Z"/><path class="cls-17" d="M412.21,166.19a26.78,26.78,0,0,0,15.07,34.75L447,151.12A26.8,26.8,0,0,0,412.21,166.19Z"/><path class="cls-160" d="M412.48,166.8a26.79,26.79,0,0,0,15.07,34.76l19.68-49.83A26.78,26.78,0,0,0,412.48,166.8Z"/><path class="cls-161" d="M447.23,151.73l-19.68,49.83a26.79,26.79,0,0,0,19.68-49.83Z"/><path class="cls-17" d="M424.67,171.11c-5.44,13.76-4.27,27.12,2.61,29.83L447,151.12C440.09,148.41,430.1,157.35,424.67,171.11Z"/><path class="cls-162" d="M424.93,171.72c-5.43,13.76-4.26,27.12,2.62,29.84l19.68-49.83C440.35,149,430.37,158,424.93,171.72Z"/><path class="cls-17" d="M447,151.12l-.08.19c.16,0,.19.37.34.42l-19.5,49.37c6.86,2.17,16.53-6.68,21.85-20.14C455,167.2,453.85,153.84,447,151.12Z"/><path class="cls-163" d="M447.23,151.73l-19.68,49.83c6.87,2.71,16.86-6.24,22.29-20S454.11,154.45,447.23,151.73Z"/><rect class="cls-17" x="377.73" y="302.89" width="5.1" height="17.16"/><path class="cls-17" d="M362.76,475.25q-18.67,0-34.11,1.35-17.32,1.62-14.61,1.63c-1.18,0-2-.82-2.58-2.44q-1.35-3.93-3.31-16.17t-2-16.31c0-1.72,1.12-2.71,3.38-3q29-3.25,29-21.52a17.66,17.66,0,0,0-.4-3.93q-5.55.56-21.66.55h-9.88q-2.43-1.1-2.43-9.07,0-20.31,1.48-24.5c.73-2.07,2-3.11,3.93-3.11,1,0,2.55,0,4.67.13s3.67.14,4.67.14Q309.7,362.91,309.7,352q0-21.79,19.63-34,16.65-10.43,39.79-10.42,28.83,0,47.91,13.8a4.75,4.75,0,0,1,2,4.06q0-.54-2.84,11.23-.81,3.39-2.16,15.84a11.23,11.23,0,0,1-1.76,4.74,2.9,2.9,0,0,1-1.09.13q1.23,0-14.28-7.71t-27-7.72q-16.11,0-16.1,15.84,0,8.39,10.28,21.25,6,.27,37.22.27,4.88,0,4.88,17.86,0,18.28-6.09,18.28-10.15,0-19.09-.55a35.79,35.79,0,0,1,.81,7.18q0,11-10.28,17.19,9.46,0,28.89-.27t29-.28c2.43,0,3.65.5,3.65,1.49q0,8.67-4.2,32.08-.4,2.72-3.79,2.71-10.41,0-31.19.13T362.76,475.25Z"/><path class="cls-164" d="M363.65,477q-18.69,0-34.11,1.36Q312.22,480,314.92,480c-1.17,0-2-.81-2.57-2.44Q311,473.65,309,461.39t-2-16.31c0-1.71,1.13-2.71,3.39-3q28.95-3.24,29-21.52a17.48,17.48,0,0,0-.41-3.92q-5.55.54-21.65.54h-9.88q-2.44-1.08-2.44-9.07,0-20.29,1.49-24.5,1.08-3.11,3.93-3.11c1,0,2.54.05,4.67.14s3.67.13,4.66.13q-9.19-16.11-9.2-27.07,0-21.78,19.63-34,16.63-10.42,39.79-10.42,28.83,0,47.91,13.8a4.79,4.79,0,0,1,2,4.06q0-.54-2.84,11.24-.81,3.38-2.17,15.83a10.88,10.88,0,0,1-1.76,4.74,2.78,2.78,0,0,1-1.08.14q1.22,0-14.28-7.72t-27-7.71q-16.11,0-16.11,15.83,0,8.4,10.29,21.25,6,.27,37.22.27,4.88,0,4.87,17.87,0,18.27-6.09,18.27-10.15,0-19.08-.54a35.78,35.78,0,0,1,.81,7.17q0,11-10.29,17.19,9.48,0,28.9-.27t29-.27c2.44,0,3.66.5,3.66,1.49q0,8.65-4.2,32.07-.4,2.71-3.79,2.71-10.43,0-31.2.14T363.65,477Z"/></g></g></svg>