<svg xmlns="http://www.w3.org/2000/svg" xmlns:xlink="http://www.w3.org/1999/xlink" viewBox="0 0 464.17 510.71"><defs><style>.cls-1{fill:url(#radial-gradient);}.cls-2,.cls-3{mix-blend-mode:screen;}.cls-2{fill:url(#linear-gradient);}.cls-3{fill:url(#linear-gradient-2);}.cls-4{isolation:isolate;}.cls-5{mask:url(#mask);}.cls-6{fill:#273a4d;opacity:0.3;mix-blend-mode:multiply;}.cls-7{fill:url(#linear-gradient-3);}.cls-8{fill:url(#linear-gradient-4);}.cls-9{fill:url(#linear-gradient-5);}.cls-10{mask:url(#mask-2);}.cls-11{fill:url(#linear-gradient-6);}.cls-12{fill:url(#linear-gradient-7);}.cls-13{fill:url(#linear-gradient-8);}.cls-14{fill:url(#linear-gradient-9);}.cls-15{fill:url(#linear-gradient-10);}.cls-16{fill:url(#linear-gradient-11);}.cls-17{fill:url(#linear-gradient-12);}</style><radialGradient id="radial-gradient" cx="2.45" cy="1197.67" r="188.53" gradientTransform="matrix(1.14, 0, 0, -1.17, 246.5, 1694.13)" gradientUnits="userSpaceOnUse"><stop offset="0" stop-color="#fff"/><stop offset="0.16" stop-color="#c2c2c2"/><stop offset="0.32" stop-color="#878787"/><stop offset="0.49" stop-color="#575757"/><stop offset="0.64" stop-color="#313131"/><stop offset="0.78" stop-color="#161616"/><stop offset="0.9" stop-color="#060606"/><stop offset="1"/></radialGradient><linearGradient id="linear-gradient" x1="-429.43" y1="-1052.69" x2="-429.43" y2="-1020.06" gradientTransform="matrix(1, 0, 0, 1.11, 645.33, 1259.37)" gradientUnits="userSpaceOnUse"><stop offset="0" stop-color="#fff"/><stop offset="0.08" stop-color="#ccc"/><stop offset="0.17" stop-color="#9d9d9d"/><stop offset="0.26" stop-color="#737373"/><stop offset="0.36" stop-color="#4f4f4f"/><stop offset="0.46" stop-color="#323232"/><stop offset="0.57" stop-color="#1c1c1c"/><stop offset="0.68" stop-color="#0c0c0c"/><stop offset="0.82" stop-color="#030303"/><stop offset="1"/></linearGradient><linearGradient id="linear-gradient-2" x1="-3362.25" y1="1306.49" x2="-3362.25" y2="1334.16" gradientTransform="matrix(1, 0, 0, -1.11, 3461.64, 1582.16)" xlink:href="#linear-gradient"/><mask id="mask" x="34.42" y="68.52" width="429.75" height="442.2" maskUnits="userSpaceOnUse"><ellipse class="cls-1" cx="249.29" cy="289.62" rx="214.87" ry="221.1"/></mask><linearGradient id="linear-gradient-3" x1="139.97" y1="255.43" x2="139.97" y2="98.52" gradientUnits="userSpaceOnUse"><stop offset="0" stop-color="#e0f0ff"/><stop offset="1" stop-color="#4d7399"/></linearGradient><linearGradient id="linear-gradient-4" x1="202.9" y1="275.22" x2="79.9" y2="94.1" gradientUnits="userSpaceOnUse"><stop offset="0" stop-color="#fff"/><stop offset="1" stop-color="#fff"/></linearGradient><linearGradient id="linear-gradient-5" x1="204.58" y1="277.26" x2="81.59" y2="96.13" gradientUnits="userSpaceOnUse"><stop offset="0" stop-color="#fff"/><stop offset="1" stop-color="#ebebeb"/></linearGradient><mask id="mask-2" x="-1.6" y="19.83" width="318.5" height="250.96" maskUnits="userSpaceOnUse"><rect class="cls-2" x="98.75" y="92.68" width="234.37" height="40.61" transform="translate(129.98 -115.06) rotate(41.73)"/><rect class="cls-3" x="-17.81" y="92.68" width="234.37" height="40.61" transform="translate(248.74 131.16) rotate(138.27)"/></mask><linearGradient id="linear-gradient-6" x1="155.22" y1="35.93" x2="300.68" y2="181.38" xlink:href="#linear-gradient-5"/><linearGradient id="linear-gradient-7" x1="157.32" y1="109.89" x2="52.21" y2="108.56" xlink:href="#linear-gradient-5"/><linearGradient id="linear-gradient-8" x1="65.17" y1="67.46" x2="89.09" y2="103.9" xlink:href="#linear-gradient-5"/><linearGradient id="linear-gradient-9" x1="150.97" y1="4.92" x2="313.43" y2="167.38" gradientUnits="userSpaceOnUse"><stop offset="0" stop-color="#e6e6e6"/><stop offset="1" stop-color="#d2d2d2"/></linearGradient><linearGradient id="linear-gradient-10" x1="239.81" y1="15.75" x2="212.39" y2="69.34" gradientUnits="userSpaceOnUse"><stop offset="0" stop-color="#fff"/><stop offset="0.53" stop-color="#ebebeb"/><stop offset="0.71" stop-color="#e3e3e3"/><stop offset="1" stop-color="#ccc"/></linearGradient><linearGradient id="linear-gradient-11" x1="235.74" y1="-9.2" x2="204.29" y2="22.24" xlink:href="#linear-gradient-4"/><linearGradient id="linear-gradient-12" x1="238.15" y1="20.63" x2="205.94" y2="-6.5" gradientUnits="userSpaceOnUse"><stop offset="0" stop-color="#ccc"/><stop offset="1" stop-color="#b8b8b8"/></linearGradient></defs><title>house</title><g class="cls-4"><g id="Layer_2" data-name="Layer 2"><g id="Objects"><g class="cls-5"><ellipse class="cls-6" cx="249.29" cy="289.62" rx="214.87" ry="221.1"/></g><rect class="cls-7" x="62.33" y="93.82" width="155.27" height="159.9"/><path class="cls-8" d="M154.23,44.76,46.75,141V270.79l31.5-1.89V200.23h53.53V268.9l1.89,1.89,129.94-1.89V139.11ZM142.74,172.37H109.21V150.14h33.53Zm0-42.34H109.21V107.81h33.53Zm56.52,42.34H165.73V150.14h33.53Zm0-42.34H165.73V107.81h33.53Z"/><path class="cls-9" d="M156.12,46.65,46.75,141V270.79H80.14V202.12h53.53v68.67H265.5V141ZM144.63,174.26H111.1V152h33.53Zm0-42.34H111.1V109.7h33.53Zm56.52,42.34H167.62V152h33.53Zm0-42.34H167.62V109.7h33.53Z"/><g class="cls-10"><polygon points="156.12 46.65 46.75 141 46.75 270.79 80.14 270.79 80.14 202.12 133.67 202.12 133.67 270.79 265.5 270.79 265.5 141 156.12 46.65"/></g><polygon class="cls-11" points="301.8 180.26 145.62 45.53 154.83 37.58 309.66 171.15 301.8 180.26"/><polygon class="cls-12" points="7.86 180.26 0 171.15 154.83 37.59 164.04 45.53 7.86 180.26"/><polygon class="cls-13" points="0 134.8 0 171.15 154.83 37.59 154.83 1.06 0 134.8"/><polygon class="cls-14" points="154.83 1.06 154.83 37.59 309.66 171.15 309.66 134.8 154.83 1.06"/><polygon class="cls-15" points="244.94 95.83 195.09 54.59 195.09 13.03 244.94 13.03 244.94 95.83"/><rect class="cls-16" x="195.09" width="49.85" height="13.03"/><rect class="cls-17" x="201.01" y="1.94" width="38.01" height="6.84"/></g></g></g></svg>