<svg xmlns="http://www.w3.org/2000/svg" xmlns:xlink="http://www.w3.org/1999/xlink" viewBox="0 0 720 720"><defs><style>.cls-1{fill:url(#radial-gradient);}.cls-2{fill:#fff;}.cls-3{fill:url(#linear-gradient);}.cls-4{isolation:isolate;}.cls-5{mask:url(#mask);}.cls-6{fill:#004d99;opacity:0.3;mix-blend-mode:multiply;}.cls-7{mask:url(#mask-2);}.cls-8{fill:url(#radial-gradient-2);}.cls-9{fill:#4d7399;opacity:0.5;}.cls-10{fill:url(#linear-gradient-2);}.cls-11{fill:url(#radial-gradient-3);}.cls-12{mask:url(#mask-3);}.cls-13{fill:#9cf;mix-blend-mode:screen;}.cls-14{fill:url(#linear-gradient-3);}.cls-15{fill:url(#linear-gradient-4);}.cls-16{fill:url(#linear-gradient-5);}.cls-17{fill:url(#linear-gradient-6);}.cls-18{fill:#fafbf9;}.cls-19{fill:url(#linear-gradient-7);}.cls-20{fill:url(#linear-gradient-8);}.cls-21{fill:url(#linear-gradient-9);}.cls-22{opacity:0.9;mix-blend-mode:lighten;fill:url(#linear-gradient-10);}.cls-23{fill:#e1e2e0;}</style><radialGradient id="radial-gradient" cx="-943.31" cy="1984.85" r="144.44" gradientTransform="matrix(1.72, 0, 0, -0.69, 1982.07, 1991.54)" gradientUnits="userSpaceOnUse"><stop offset="0" stop-color="#fff"/><stop offset="0.16" stop-color="#c2c2c2"/><stop offset="0.32" stop-color="#878787"/><stop offset="0.49" stop-color="#575757"/><stop offset="0.64" stop-color="#313131"/><stop offset="0.78" stop-color="#161616"/><stop offset="0.9" stop-color="#060606"/><stop offset="1"/></radialGradient><linearGradient id="linear-gradient" x1="360.14" y1="301.01" x2="360.14" y2="357.96" gradientUnits="userSpaceOnUse"><stop offset="0" stop-color="#fff"/><stop offset="0.16" stop-color="#c6c5c5"/><stop offset="0.31" stop-color="#949293"/><stop offset="0.46" stop-color="#6b6969"/><stop offset="0.61" stop-color="#4c4949"/><stop offset="0.75" stop-color="#353233"/><stop offset="0.88" stop-color="#282425"/><stop offset="1" stop-color="#231f20"/></linearGradient><mask id="mask" x="111.8" y="520.41" width="496.68" height="199.59" maskUnits="userSpaceOnUse"><ellipse class="cls-1" cx="360.14" cy="620.21" rx="248.34" ry="99.8"/></mask><mask id="mask-2" x="52.81" y="67.87" width="614.66" height="612.72" maskUnits="userSpaceOnUse"><rect class="cls-2" x="52.81" y="352.44" width="614.66" height="328.16"/></mask><radialGradient id="radial-gradient-2" cx="360.14" cy="344.04" fx="239.3047725328688" r="276.17" gradientUnits="userSpaceOnUse"><stop offset="0.14" stop-color="#9cf"/><stop offset="1" stop-color="#4d7399"/></radialGradient><linearGradient id="linear-gradient-2" x1="359.86" y1="419.32" x2="359.86" y2="370.85" gradientUnits="userSpaceOnUse"><stop offset="0" stop-color="#06c"/><stop offset="1" stop-color="#004d99"/></linearGradient><radialGradient id="radial-gradient-3" cx="1155.88" cy="44988.08" r="244.07" gradientTransform="translate(-570.67 -6416.08) scale(0.81 0.15)" gradientUnits="userSpaceOnUse"><stop offset="0" stop-color="#5297dc"/><stop offset="0.35" stop-color="#59d"/><stop offset="0.61" stop-color="#5e9ede"/><stop offset="0.83" stop-color="#6ea7e1"/><stop offset="1" stop-color="#80b2e5"/></radialGradient><mask id="mask-3" x="84.46" y="301.84" width="551.36" height="87.56" maskUnits="userSpaceOnUse"><ellipse class="cls-3" cx="360.14" cy="345.62" rx="275.68" ry="43.78"/></mask><linearGradient id="linear-gradient-3" x1="390.58" y1="392.84" x2="319.48" y2="292.11" xlink:href="#linear-gradient-2"/><linearGradient id="linear-gradient-4" x1="260.07" y1="345.53" x2="265.6" y2="345.53" gradientUnits="userSpaceOnUse"><stop offset="0" stop-color="#004d99"/><stop offset="1" stop-color="#036"/></linearGradient><linearGradient id="linear-gradient-5" x1="-6526.84" y1="345.53" x2="-6521.31" y2="345.53" gradientTransform="matrix(-1, 0, 0, 1, -6067.01, 0)" xlink:href="#linear-gradient-4"/><linearGradient id="linear-gradient-6" x1="-1671.83" y1="-2985.23" x2="-1593.33" y2="-3023.02" gradientTransform="matrix(0.12, -0.99, -0.99, -0.12, -2333.73, -1846.57)" gradientUnits="userSpaceOnUse"><stop offset="0" stop-color="#e1e2e0"/><stop offset="1" stop-color="#bebfbd"/></linearGradient><linearGradient id="linear-gradient-7" x1="-6753.45" y1="282.27" x2="-6733.33" y2="200.39" gradientTransform="matrix(-1, 0, 0, 1, -6200.77, 0)" xlink:href="#linear-gradient-6"/><linearGradient id="linear-gradient-8" x1="-6586.52" y1="103.93" x2="-6558.91" y2="188.61" gradientTransform="matrix(-1, 0, 0, 1, -6200.77, 0)" gradientUnits="userSpaceOnUse"><stop offset="0" stop-color="#c4fe83"/><stop offset="1" stop-color="#ace172"/></linearGradient><linearGradient id="linear-gradient-9" x1="-6511.54" y1="285.57" x2="-6583.23" y2="142.19" gradientTransform="matrix(-1, 0, 0, 1, -6200.77, 0)" gradientUnits="userSpaceOnUse"><stop offset="0" stop-color="#76c019"/><stop offset="1" stop-color="#a4d566"/></linearGradient><linearGradient id="linear-gradient-10" x1="-206.7" y1="1749.42" x2="-274.77" y2="1652.98" gradientTransform="translate(-204.91 -1426.07) rotate(-26.79)" gradientUnits="userSpaceOnUse"><stop offset="0" stop-color="#fff"/><stop offset="1" stop-color="#ebebeb"/></linearGradient></defs><title>step-02</title><g class="cls-4"><g id="BG"><g class="cls-5"><ellipse class="cls-6" cx="360.14" cy="620.21" rx="248.34" ry="99.8"/></g><g class="cls-7"><circle class="cls-8" cx="360.14" cy="344.04" r="276.17"/></g><path class="cls-9" d="M635.77,348.08c0-.29,0-.61,0-.91-.08-1.9-516-5-551.47-1.78-.2,3.05-.37,6.62-.37,6.73-.08,1.39-.14,2.85-.18,4.35a30.68,30.68,0,0,0,1.09,8.28C93.7,392.78,213.48,415,359.93,415c152.26,0,275.68-24,275.68-53.59a4.89,4.89,0,0,1,.42-1.78c0-3.57-.1-7.32-.25-11.23C635.78,348.28,635.78,348.18,635.77,348.08Z"/><path class="cls-10" d="M635.77,347.82c0-.28,0-.58,0-.86-.08-1.77-516-4.65-551.47-1.66-.2,2.85-.37,6.19-.37,6.3-.08,1.29-.14,2.65-.18,4.06a26.88,26.88,0,0,0,1.09,7.74c8.91,26.22,128.69,47,275.14,47,152.26,0,275.68-22.44,275.68-50.11a4.31,4.31,0,0,1,.42-1.67c0-3.34-.1-6.85-.25-10.5A2.62,2.62,0,0,0,635.77,347.82Z"/><ellipse class="cls-11" cx="359.93" cy="345.62" rx="275.68" ry="43.78"/><g class="cls-12"><ellipse class="cls-13" cx="360.14" cy="345.62" rx="275.68" ry="43.78"/></g><polygon class="cls-14" points="459.83 352.44 260.07 352.44 265.59 338.63 454.31 338.63 459.83 352.44"/><polygon class="cls-15" points="265.6 352.44 260.07 352.44 265.6 338.63 265.6 352.44"/><polygon class="cls-16" points="454.3 352.44 459.83 352.44 454.3 338.63 454.3 352.44"/><path class="cls-17" d="M396.55,159.7s65.88-21.28,92-78.75l20.22,31.79s-41.73,44.46-105.1,60.11Z"/><path class="cls-18" d="M508.42,213l32.46-26.16s-1,60.11-1.14,72c-.17,12.59,43.91,19.08,43.91,19.08s-3.11,43.48-10.35,43.48-3.11-31.05-3.11-31.05-33.56-4.6-42.87-12.88S508.42,213,508.42,213Z"/><path class="cls-19" d="M507,214.4l32.46-26.16s-1,60.11-1.15,72c-.16,12.59,43.92,19.09,43.92,19.09s-3.11,43.47-10.36,43.47-3.1-31-3.1-31-33.56-4.6-42.88-12.88S507,214.4,507,214.4Z"/><circle class="cls-20" cx="354.69" cy="199.18" r="99.86"/><circle class="cls-21" cx="353.24" cy="200.63" r="99.86"/><path class="cls-22" d="M360.05,250.35q-11.83,3.12-21.38,6.54-10.71,3.9-9,3.46c-.74.19-1.42-.18-2-1.12a76.42,76.42,0,0,1-4.8-9.69,86.16,86.16,0,0,1-4-10c-.29-1.09.26-1.91,1.65-2.45q17.79-6.89,14.76-18.45a11.2,11.2,0,0,0-.91-2.42q-3.42,1.26-13.63,3.95l-6.25,1.64q-1.72-.28-3.06-5.34-3.37-12.85-3.13-15.76a2.62,2.62,0,0,1,2-2.63c.63-.16,1.62-.39,3-.69s2.35-.52,3-.69q-8.5-8.67-10.33-15.61-3.63-13.8,6.77-24.79,8.82-9.36,23.47-13.22,18.27-4.8,32.65.77a3.15,3.15,0,0,1,2,2.24q-.09-.34.07,7.59,0,2.28,1.26,10.39a7.12,7.12,0,0,1-.33,3.29,1.78,1.78,0,0,1-.66.27q.78-.21-10.33-2.52t-18.38-.39q-10.2,2.68-7.57,12.71,1.4,5.32,10.05,11.75,3.83-.83,23.62-6,3.09-.81,6.06,10.5,3,11.58-.82,12.59-6.42,1.68-12.18,2.83a23.35,23.35,0,0,1,1.71,4.41q1.83,6.94-3.65,12.6,6-1.58,18.25-5t18.35-5c1.54-.41,2.4-.3,2.56.33q1.44,5.49,2.68,21,.19,1.78-2,2.34-6.6,1.74-19.74,5.28T360.05,250.35Z"/><path class="cls-18" d="M413.84,174s35.28-17.79,59.87-52.7A264.22,264.22,0,0,1,493.63,71,36.75,36.75,0,1,1,529,66.2c-4.28,33.86,5.9,74.08,12.17,113.42,3.66,23-14.67,37.28-27.71,41.7a37.74,37.74,0,0,1-6.55,1.37C494.63,276.79,535,347.2,535,347.2l-1.46,1.45-46.16.62c-3.1-13.46,25.88-10.35,25.88-10.35-25.85-39.29-43.43-114.7-43.48-114.9h0a198.69,198.69,0,0,1-3.63-62.79,213.06,213.06,0,0,1-43.21,24.63l-10.55-10.44Z"/><path class="cls-23" d="M412.39,175.42s35.28-17.78,59.87-52.69a263.68,263.68,0,0,1,19.92-50.3,36.74,36.74,0,1,1,35.34-4.77c-4.28,33.85,5.9,74.07,12.17,113.41,3.66,23-14.68,37.29-27.71,41.7a37.67,37.67,0,0,1-6.56,1.37c-12.24,54.1,28.12,124.51,28.12,124.51l-47.61,2.07c-3.11-13.45,25.88-10.35,25.88-10.35-25.85-39.28-43.43-114.7-43.48-114.89h0a198.47,198.47,0,0,1-3.64-62.8,212.5,212.5,0,0,1-43.2,24.63Z"/></g></g></svg>