<svg xmlns="http://www.w3.org/2000/svg" xmlns:xlink="http://www.w3.org/1999/xlink" viewBox="0 0 720 720"><defs><style>.cls-1{fill:url(#radial-gradient);}.cls-2{fill:url(#radial-gradient-2);}.cls-3{fill:url(#radial-gradient-3);}.cls-4{fill:url(#radial-gradient-4);}.cls-5{fill:url(#radial-gradient-5);}.cls-6{fill:url(#radial-gradient-6);}.cls-7{fill:url(#radial-gradient-7);}.cls-8{fill:none;}.cls-9{isolation:isolate;}.cls-10{fill:url(#radial-gradient-8);}.cls-11{clip-path:url(#clip-path);}.cls-12{mask:url(#mask);}.cls-13{fill:#273a4d;opacity:0.3;}.cls-13,.cls-25,.cls-46,.cls-48{mix-blend-mode:multiply;}.cls-14{fill:#fff;}.cls-15{fill:url(#linear-gradient);}.cls-16{fill:url(#linear-gradient-2);}.cls-17{fill:url(#linear-gradient-3);}.cls-18{fill:url(#linear-gradient-4);}.cls-19{mask:url(#mask-2);}.cls-20{fill:url(#linear-gradient-5);}.cls-21{fill:url(#linear-gradient-6);}.cls-22{fill:url(#linear-gradient-7);}.cls-23{fill:url(#linear-gradient-8);}.cls-24{mask:url(#mask-3);}.cls-25,.cls-46,.cls-48{fill:#004d99;}.cls-25{opacity:0.2;}.cls-26{mask:url(#mask-4);}.cls-27{mask:url(#mask-5);}.cls-28{fill:url(#linear-gradient-9);}.cls-29{fill:url(#linear-gradient-10);}.cls-30{fill:url(#linear-gradient-11);}.cls-31{fill:url(#linear-gradient-12);}.cls-32{fill:url(#linear-gradient-13);}.cls-33{fill:url(#linear-gradient-14);}.cls-34{fill:url(#linear-gradient-15);}.cls-35{fill:url(#linear-gradient-16);}.cls-36{fill:url(#linear-gradient-17);}.cls-37{fill:url(#linear-gradient-18);}.cls-38{fill:url(#linear-gradient-19);}.cls-39{fill:url(#linear-gradient-20);}.cls-40{fill:url(#linear-gradient-21);}.cls-41{fill:url(#linear-gradient-22);}.cls-42{fill:url(#linear-gradient-23);}.cls-43{fill:url(#linear-gradient-24);}.cls-44{fill:url(#linear-gradient-25);}.cls-45{mask:url(#mask-6);}.cls-46{opacity:0.7;}.cls-47{mask:url(#mask-7);}.cls-48{opacity:0.4;}.cls-49{fill:url(#linear-gradient-26);}.cls-50{fill:url(#linear-gradient-27);}.cls-51{fill:url(#linear-gradient-28);}.cls-52{fill:url(#linear-gradient-29);}.cls-53{fill:url(#linear-gradient-30);}.cls-54{fill:url(#linear-gradient-31);}.cls-55{fill:url(#linear-gradient-32);}.cls-56{fill:url(#linear-gradient-33);}.cls-57{fill:url(#linear-gradient-34);}.cls-58{fill:url(#linear-gradient-35);}.cls-59{fill:url(#linear-gradient-36);}.cls-60{fill:url(#linear-gradient-37);}.cls-61{fill:url(#linear-gradient-38);}.cls-62{fill:url(#linear-gradient-39);}.cls-63{fill:url(#linear-gradient-40);}.cls-64{fill:url(#linear-gradient-41);}.cls-65{fill:url(#linear-gradient-42);}.cls-66{fill:url(#linear-gradient-43);}.cls-67{fill:url(#linear-gradient-44);}.cls-68{fill:url(#linear-gradient-45);}.cls-69{fill:url(#linear-gradient-46);}.cls-70{fill:url(#linear-gradient-47);}.cls-71{fill:url(#linear-gradient-48);}.cls-72{fill:url(#linear-gradient-49);}.cls-73{fill:url(#linear-gradient-50);}.cls-74{fill:url(#linear-gradient-51);}.cls-75{fill:url(#linear-gradient-52);}.cls-76{fill:url(#linear-gradient-53);}</style><radialGradient id="radial-gradient" cx="-401.87" cy="1966.33" r="87.35" gradientTransform="matrix(1.72, 0, 0, -1.17, 1292.88, 2847.32)" gradientUnits="userSpaceOnUse"><stop offset="0" stop-color="#fff"/><stop offset="0.16" stop-color="#c2c2c2"/><stop offset="0.32" stop-color="#878787"/><stop offset="0.49" stop-color="#575757"/><stop offset="0.64" stop-color="#313131"/><stop offset="0.78" stop-color="#161616"/><stop offset="0.9" stop-color="#060606"/><stop offset="1"/></radialGradient><radialGradient id="radial-gradient-2" cx="-662.22" cy="2052.16" r="109.36" xlink:href="#radial-gradient"/><radialGradient id="radial-gradient-3" cx="74.42" cy="2310.35" r="135.29" gradientTransform="matrix(0, 1.14, 1.17, 0, -2407.78, 185.53)" xlink:href="#radial-gradient"/><radialGradient id="radial-gradient-4" cx="0.74" cy="2360.63" r="135.29" gradientTransform="matrix(0, 1.14, 1.17, 0, -2546.9, 205.26)" xlink:href="#radial-gradient"/><radialGradient id="radial-gradient-5" cx="171.97" cy="2402.76" r="135.29" gradientTransform="matrix(0, 1.14, 1.17, 0, -2398.45, -26.96)" xlink:href="#radial-gradient"/><radialGradient id="radial-gradient-6" cx="59.67" cy="2447.37" r="92.79" gradientTransform="matrix(0, 1.14, 1.17, 0, -2575.27, 40.95)" xlink:href="#radial-gradient"/><radialGradient id="radial-gradient-7" cx="200.04" cy="2322.32" r="92.79" gradientTransform="matrix(1.14, 0.07, 0.07, -1.17, 48.86, 2969.23)" xlink:href="#radial-gradient"/><radialGradient id="radial-gradient-8" cx="194.7" cy="144.33" r="585.88" gradientUnits="userSpaceOnUse"><stop offset="0.01" stop-color="#9cf"/><stop offset="1" stop-color="#69c"/></radialGradient><clipPath id="clip-path"><circle class="cls-8" cx="360" cy="360" r="300"/></clipPath><mask id="mask" x="451.71" y="438.96" width="300.38" height="204.88" maskUnits="userSpaceOnUse"><ellipse class="cls-1" cx="601.9" cy="541.4" rx="150.19" ry="102.44"/></mask><linearGradient id="linear-gradient" x1="459.04" y1="456.24" x2="547.3" y2="505.72" gradientUnits="userSpaceOnUse"><stop offset="0" stop-color="#fff"/><stop offset="1" stop-color="#ebebeb"/></linearGradient><linearGradient id="linear-gradient-2" x1="640.79" y1="483.74" x2="541.37" y2="483.74" gradientUnits="userSpaceOnUse"><stop offset="0" stop-color="#e6e6e6"/><stop offset="1" stop-color="#d2d2d2"/></linearGradient><linearGradient id="linear-gradient-3" x1="491.96" y1="464.99" x2="544.11" y2="495.3" xlink:href="#linear-gradient-2"/><linearGradient id="linear-gradient-4" x1="597.99" y1="483.74" x2="520.19" y2="483.74" xlink:href="#linear-gradient"/><mask id="mask-2" x="-33.77" y="312.5" width="376.05" height="256.5" maskUnits="userSpaceOnUse"><ellipse class="cls-2" cx="154.26" cy="440.75" rx="188.03" ry="128.25"/></mask><linearGradient id="linear-gradient-5" x1="-24.59" y1="334.13" x2="85.9" y2="396.07" xlink:href="#linear-gradient"/><linearGradient id="linear-gradient-6" x1="202.94" y1="368.56" x2="78.48" y2="368.56" xlink:href="#linear-gradient-2"/><linearGradient id="linear-gradient-7" x1="16.61" y1="345.08" x2="81.9" y2="383.03" xlink:href="#linear-gradient-2"/><linearGradient id="linear-gradient-8" x1="149.37" y1="368.56" x2="51.96" y2="368.56" xlink:href="#linear-gradient"/><mask id="mask-3" x="147.49" y="111.58" width="308.44" height="317.31" maskUnits="userSpaceOnUse"><ellipse class="cls-3" cx="301.71" cy="270.24" rx="158.67" ry="154.2" transform="translate(13.26 554.58) rotate(-86.44)"/></mask><mask id="mask-4" x="67.34" y="47.52" width="308.44" height="317.31" maskUnits="userSpaceOnUse"><ellipse class="cls-4" cx="221.56" cy="206.17" rx="158.67" ry="154.2" transform="translate(2.04 414.51) rotate(-86.44)"/></mask><mask id="mask-5" x="265.19" y="10.32" width="308.44" height="317.31" maskUnits="userSpaceOnUse"><ellipse class="cls-5" cx="419.42" cy="168.98" rx="158.67" ry="154.2" transform="translate(224.72 577.09) rotate(-86.44)"/></mask><linearGradient id="linear-gradient-9" x1="414.93" y1="284.04" x2="352.55" y2="189.64" gradientTransform="translate(7.71 36.77) rotate(0.56)" gradientUnits="userSpaceOnUse"><stop offset="0" stop-color="#39f"/><stop offset="1" stop-color="#9cf"/></linearGradient><linearGradient id="linear-gradient-10" x1="349.1" y1="268.04" x2="382.51" y2="204.42" xlink:href="#linear-gradient-9"/><linearGradient id="linear-gradient-11" x1="387.21" y1="277.32" x2="323.05" y2="206.51" gradientTransform="translate(7.71 36.77) rotate(0.56)" gradientUnits="userSpaceOnUse"><stop offset="0" stop-color="#004d99"/><stop offset="1" stop-color="#39f"/></linearGradient><linearGradient id="linear-gradient-12" x1="381.93" y1="251.77" x2="446.65" y2="234.83" gradientTransform="translate(7.71 36.77) rotate(0.56)" gradientUnits="userSpaceOnUse"><stop offset="0.25" stop-color="#004d99"/><stop offset="1" stop-color="#06c"/></linearGradient><linearGradient id="linear-gradient-13" x1="394.84" y1="286.17" x2="336.58" y2="198.01" xlink:href="#linear-gradient-9"/><linearGradient id="linear-gradient-14" x1="376.39" y1="251.77" x2="348.46" y2="245.24" gradientTransform="translate(7.71 36.77) rotate(0.56)" gradientUnits="userSpaceOnUse"><stop offset="0" stop-color="#004d99"/><stop offset="1" stop-color="#06c"/></linearGradient><linearGradient id="linear-gradient-15" x1="403.83" y1="283.46" x2="345.58" y2="195.31" xlink:href="#linear-gradient-9"/><linearGradient id="linear-gradient-16" x1="373.2" y1="252.31" x2="407.59" y2="249.07" gradientTransform="translate(7.71 36.77) rotate(0.56)" gradientUnits="userSpaceOnUse"><stop offset="0" stop-color="#06c"/><stop offset="1" stop-color="#39f"/></linearGradient><linearGradient id="linear-gradient-17" x1="347.22" y1="545.65" x2="347.22" y2="-106.96" gradientTransform="translate(30.06 115.72) rotate(3.56)" gradientUnits="userSpaceOnUse"><stop offset="0.01" stop-color="#fff"/><stop offset="1" stop-color="#c3cfdd"/></linearGradient><linearGradient id="linear-gradient-18" x1="381.43" y1="240.87" x2="319.05" y2="146.47" gradientTransform="matrix(1, -0.06, 0.06, 1, -17.9, -70.71)" xlink:href="#linear-gradient-9"/><linearGradient id="linear-gradient-19" x1="315.6" y1="224.87" x2="349.01" y2="161.24" gradientTransform="matrix(1, -0.06, 0.06, 1, -17.9, -70.71)" xlink:href="#linear-gradient-9"/><linearGradient id="linear-gradient-20" x1="353.71" y1="234.14" x2="289.55" y2="163.34" gradientTransform="matrix(1, -0.06, 0.06, 1, -17.9, -70.71)" xlink:href="#linear-gradient-11"/><linearGradient id="linear-gradient-21" x1="348.43" y1="208.59" x2="413.16" y2="191.66" gradientTransform="matrix(1, -0.06, 0.06, 1, -17.9, -70.71)" xlink:href="#linear-gradient-12"/><linearGradient id="linear-gradient-22" x1="361.34" y1="243" x2="303.08" y2="154.83" gradientTransform="matrix(1, -0.06, 0.06, 1, -17.9, -70.71)" xlink:href="#linear-gradient-9"/><linearGradient id="linear-gradient-23" x1="342.88" y1="208.6" x2="314.96" y2="202.07" gradientTransform="matrix(1, -0.06, 0.06, 1, -17.9, -70.71)" xlink:href="#linear-gradient-14"/><linearGradient id="linear-gradient-24" x1="370.33" y1="240.29" x2="312.08" y2="152.14" gradientTransform="matrix(1, -0.06, 0.06, 1, -17.9, -70.71)" xlink:href="#linear-gradient-9"/><linearGradient id="linear-gradient-25" x1="339.7" y1="209.14" x2="374.09" y2="205.9" gradientTransform="matrix(1, -0.06, 0.06, 1, -17.9, -70.71)" xlink:href="#linear-gradient-16"/><mask id="mask-6" x="189.14" y="0" width="211.54" height="217.62" maskUnits="userSpaceOnUse"><ellipse class="cls-6" cx="294.91" cy="108.81" rx="108.82" ry="105.75" transform="translate(167.99 396.39) rotate(-86.44)"/></mask><mask id="mask-7" x="339.71" y="156.31" width="211.54" height="217.62" maskUnits="userSpaceOnUse"><path class="cls-7" d="M551,271.68c3.74-60-40.5-111.54-98.79-115.17s-108.57,42.06-112.31,102,40.5,111.55,98.8,115.18S547.3,331.67,551,271.68Z"/></mask><linearGradient id="linear-gradient-26" x1="374.99" y1="546.19" x2="374.99" y2="-56.29" xlink:href="#linear-gradient-17"/><linearGradient id="linear-gradient-27" x1="288.32" y1="147.14" x2="342.56" y2="163.41" gradientTransform="translate(44.79 51.66) rotate(0.34)" xlink:href="#linear-gradient"/><linearGradient id="linear-gradient-28" x1="401.66" y1="137.76" x2="349.23" y2="165.78" gradientTransform="translate(44.79 51.66) rotate(0.34)" xlink:href="#linear-gradient-2"/><linearGradient id="linear-gradient-29" x1="312.24" y1="144.21" x2="350.2" y2="166.8" gradientTransform="translate(44.79 51.66) rotate(0.34)" xlink:href="#linear-gradient-2"/><linearGradient id="linear-gradient-30" x1="377.91" y1="163.21" x2="345.16" y2="163.21" gradientTransform="translate(44.79 51.66) rotate(0.34)" xlink:href="#linear-gradient"/><linearGradient id="linear-gradient-31" x1="162.47" y1="393.18" x2="216.71" y2="409.45" gradientTransform="translate(-41.9 -294.41) rotate(-11.48)" xlink:href="#linear-gradient"/><linearGradient id="linear-gradient-32" x1="275.81" y1="383.8" x2="223.38" y2="411.82" gradientTransform="translate(-41.9 -294.41) rotate(-11.48)" xlink:href="#linear-gradient-2"/><linearGradient id="linear-gradient-33" x1="186.39" y1="390.25" x2="224.35" y2="412.85" gradientTransform="translate(-41.9 -294.41) rotate(-11.48)" xlink:href="#linear-gradient-2"/><linearGradient id="linear-gradient-34" x1="252.06" y1="409.25" x2="219.32" y2="409.25" gradientTransform="translate(-41.9 -294.41) rotate(-11.48)" xlink:href="#linear-gradient"/><linearGradient id="linear-gradient-35" x1="309.04" y1="545.46" x2="309.04" y2="-126.45" xlink:href="#linear-gradient-17"/><linearGradient id="linear-gradient-36" x1="308.94" y1="547.15" x2="308.94" y2="-58.26" xlink:href="#linear-gradient-17"/><linearGradient id="linear-gradient-37" x1="392.73" y1="546.21" x2="392.73" y2="-127.5" xlink:href="#linear-gradient-17"/><linearGradient id="linear-gradient-38" x1="296" y1="733.86" x2="233.62" y2="639.46" gradientTransform="translate(-205.54 -390.07) rotate(-16.44)" xlink:href="#linear-gradient-9"/><linearGradient id="linear-gradient-39" x1="230.17" y1="717.86" x2="263.58" y2="654.23" gradientTransform="translate(-205.54 -390.07) rotate(-16.44)" xlink:href="#linear-gradient-9"/><linearGradient id="linear-gradient-40" x1="268.28" y1="727.13" x2="204.12" y2="656.33" gradientTransform="translate(-205.54 -390.07) rotate(-16.44)" xlink:href="#linear-gradient-11"/><linearGradient id="linear-gradient-41" x1="263" y1="701.58" x2="327.73" y2="684.64" gradientTransform="translate(-205.54 -390.07) rotate(-16.44)" xlink:href="#linear-gradient-12"/><linearGradient id="linear-gradient-42" x1="275.91" y1="735.98" x2="217.65" y2="647.82" gradientTransform="translate(-205.54 -390.07) rotate(-16.44)" xlink:href="#linear-gradient-9"/><linearGradient id="linear-gradient-43" x1="257.46" y1="701.59" x2="229.53" y2="695.05" gradientTransform="translate(-205.54 -390.07) rotate(-16.44)" xlink:href="#linear-gradient-14"/><linearGradient id="linear-gradient-44" x1="284.9" y1="733.28" x2="226.65" y2="645.13" gradientTransform="translate(-205.54 -390.07) rotate(-16.44)" xlink:href="#linear-gradient-9"/><linearGradient id="linear-gradient-45" x1="254.27" y1="702.12" x2="288.66" y2="698.89" gradientTransform="translate(-205.54 -390.07) rotate(-16.44)" xlink:href="#linear-gradient-16"/><linearGradient id="linear-gradient-46" x1="441.14" y1="-34.57" x2="378.76" y2="-128.97" gradientTransform="translate(30.06 115.72) rotate(3.56)" xlink:href="#linear-gradient-9"/><linearGradient id="linear-gradient-47" x1="375.31" y1="-50.58" x2="408.72" y2="-114.2" gradientTransform="translate(30.06 115.72) rotate(3.56)" xlink:href="#linear-gradient-9"/><linearGradient id="linear-gradient-48" x1="413.42" y1="-41.3" x2="349.26" y2="-112.1" gradientTransform="translate(30.06 115.72) rotate(3.56)" xlink:href="#linear-gradient-11"/><linearGradient id="linear-gradient-49" x1="408.14" y1="-66.85" x2="472.86" y2="-83.79" gradientTransform="translate(30.06 115.72) rotate(3.56)" xlink:href="#linear-gradient-12"/><linearGradient id="linear-gradient-50" x1="421.05" y1="-32.45" x2="362.79" y2="-120.61" gradientTransform="translate(30.06 115.72) rotate(3.56)" xlink:href="#linear-gradient-9"/><linearGradient id="linear-gradient-51" x1="402.59" y1="-66.84" x2="374.67" y2="-73.38" gradientTransform="translate(30.06 115.72) rotate(3.56)" xlink:href="#linear-gradient-14"/><linearGradient id="linear-gradient-52" x1="430.04" y1="-35.15" x2="371.79" y2="-123.3" gradientTransform="translate(30.06 115.72) rotate(3.56)" xlink:href="#linear-gradient-9"/><linearGradient id="linear-gradient-53" x1="399.41" y1="-66.31" x2="433.8" y2="-69.54" gradientTransform="translate(30.06 115.72) rotate(3.56)" xlink:href="#linear-gradient-16"/></defs><title>step-01</title><g class="cls-9"><g id="BG"><circle class="cls-10" cx="360" cy="380.79" r="300"/><g class="cls-11"><g class="cls-12"><ellipse class="cls-13" cx="601.9" cy="541.4" rx="150.19" ry="102.44"/></g><path class="cls-14" d="M535.24,423.33c-16.2,3.25-29.63,20.36-25.91,37.24-8-9.14-22.93-11.12-33-4.37s-12.29,20.54-8,31.87c-9.47-5.53-22.87-2.93-29.56,5.76s-6.28,22.85,2,30c15.79,13.69,33.93,1,35.22-2.18.76,7.83,12.75,14.57,20.61,15.85,10.46,1.7,20-2.37,20.57-9.79,1.57,7.34,12.35,14.17,24.5,14.06v-119A30.5,30.5,0,0,0,535.24,423.33Z"/><path class="cls-15" d="M536.71,424.8c-16.2,3.25-29.63,20.36-25.91,37.23-8-9.13-22.94-11.11-33-4.36s-12.29,20.54-8,31.87c-9.47-5.53-22.87-2.93-29.56,5.76s-6.28,22.85,2,30c15.79,13.68,33.93,1,35.21-2.18.77,7.83,12.76,14.57,20.62,15.85,10.46,1.7,20.05-2.37,20.57-9.79,1.57,7.34,12.35,14.17,24.5,14.06v-119A30.5,30.5,0,0,0,536.71,424.8Z"/><path class="cls-14" d="M548.13,423.33c16.19,3.25,29.62,20.36,25.91,37.24,8-9.14,22.93-11.12,33-4.37s12.29,20.54,8,31.87c9.47-5.53,22.87-2.93,29.57,5.76s6.27,22.85-2,30c-15.8,13.69-33.93,1-35.22-2.18-.76,7.83-12.75,14.57-20.62,15.85-10.45,1.7-20-2.37-20.56-9.79-1.58,7.34-12.36,14.17-24.51,14.06v-119A30.54,30.54,0,0,1,548.13,423.33Z"/><path class="cls-16" d="M549.6,424.8c16.19,3.25,29.62,20.36,25.91,37.23,8-9.13,22.93-11.11,33-4.36s12.29,20.54,8,31.87c9.47-5.53,22.87-2.93,29.57,5.76s6.27,22.85-2,30c-15.8,13.68-33.94,1-35.22-2.18-.76,7.83-12.75,14.57-20.62,15.85-10.45,1.7-20.05-2.37-20.56-9.79-1.58,7.34-12.36,14.17-24.51,14.06v-119A30.6,30.6,0,0,1,549.6,424.8Z"/><path class="cls-14" d="M537.49,423.33c-10.53,3.25-19.27,20.36-16.85,37.24-5.19-9.14-14.92-11.12-21.47-4.37s-8,20.54-5.2,31.87c-6.16-5.53-14.87-2.93-19.23,5.76s-4.08,22.85,1.31,30c10.27,13.69,22.07,1,22.91-2.18.49,7.83,8.29,14.57,13.41,15.85,6.8,1.7,13-2.37,13.37-9.79,1,7.34,8,14.17,15.94,14.06v-119A13.17,13.17,0,0,0,537.49,423.33Z"/><path class="cls-17" d="M539,424.8c-10.53,3.25-19.27,20.36-16.85,37.23-5.19-9.13-14.92-11.11-21.47-4.36s-8,20.54-5.2,31.87c-6.16-5.53-14.87-2.93-19.23,5.76s-4.08,22.85,1.31,30c10.27,13.68,22.07,1,22.91-2.18.49,7.83,8.29,14.57,13.41,15.85,6.8,1.7,13-2.37,13.37-9.79,1,7.34,8,14.17,15.94,14.06v-119A13.17,13.17,0,0,0,539,424.8Z"/><path class="cls-14" d="M608.62,493.83c-4.35-8.69-13.07-11.29-19.23-5.76,2.8-11.33,1.36-25.13-5.19-31.87s-16.29-4.77-21.47,4.37c2.41-16.88-6.32-34-16.85-37.24a13.23,13.23,0,0,0-4.2-.58v.54c.49-.11,1,.91,1.47.93V541.74c7.29-.68,13.51-7.11,14.47-14,.34,7.42,6.58,11.49,13.38,9.79,5.12-1.28,12.91-8,13.41-15.85.83,3.23,12.63,15.87,22.91,2.18C612.71,516.68,613,502.51,608.62,493.83Z"/><path class="cls-18" d="M547.34,424.8c10.54,3.25,19.27,20.36,16.86,37.23,5.18-9.13,14.91-11.11,21.47-4.36s8,20.54,5.19,31.87c6.16-5.53,14.88-2.93,19.23,5.76s4.09,22.85-1.31,30c-10.27,13.68-22.07,1-22.9-2.18-.5,7.83-8.3,14.57-13.41,15.85-6.8,1.7-13-2.37-13.38-9.79-1,7.34-8,14.17-15.94,14.06v-119A13.13,13.13,0,0,1,547.34,424.8Z"/><g class="cls-19"><ellipse class="cls-13" cx="154.26" cy="440.75" rx="188.03" ry="128.25"/></g><path class="cls-14" d="M70.8,292.92C50.53,297,33.71,318.41,38.36,339.54c-10-11.43-28.71-13.91-41.32-5.46S-18.34,359.79-13,374c-11.86-6.93-28.63-3.67-37,7.2s-7.86,28.61,2.51,37.6C-27.69,435.92-5,420.1-3.37,416.06c1,9.8,16,18.24,25.81,19.84,13.09,2.13,25.1-3,25.75-12.26,2,9.2,15.47,17.74,30.68,17.61v-149A37.28,37.28,0,0,0,70.8,292.92Z"/><path class="cls-20" d="M72.64,294.76c-20.28,4.08-37.09,25.49-32.44,46.62-10-11.43-28.71-13.91-41.32-5.47s-15.38,25.72-10,39.91c-11.86-6.93-28.63-3.67-37,7.2s-7.85,28.61,2.52,37.6c19.77,17.14,42.48,1.32,44.09-2.72,1,9.8,16,18.24,25.81,19.84,13.09,2.13,25.1-3,25.75-12.26,2,9.2,15.47,17.74,30.68,17.6V294A37.93,37.93,0,0,0,72.64,294.76Z"/><path class="cls-14" d="M86.94,292.92c20.27,4.08,37.09,25.49,32.44,46.62,10-11.43,28.71-13.91,41.32-5.46s15.38,25.71,10,39.9c11.85-6.93,28.63-3.67,37,7.2s7.86,28.61-2.52,37.6c-19.77,17.14-42.48,1.32-44.08-2.72-1,9.8-16,18.24-25.82,19.84-13.09,2.13-25.1-3-25.74-12.26-2,9.2-15.47,17.74-30.68,17.61v-149A37.33,37.33,0,0,1,86.94,292.92Z"/><path class="cls-21" d="M88.78,294.76c20.27,4.08,37.09,25.49,32.43,46.62,10-11.43,28.71-13.91,41.32-5.47s15.39,25.72,10,39.91c11.85-6.93,28.63-3.67,37,7.2s7.86,28.61-2.52,37.6c-19.77,17.14-42.48,1.32-44.09-2.72-.95,9.8-16,18.24-25.81,19.84-13.09,2.13-25.1-3-25.75-12.26-2,9.2-15.46,17.74-30.67,17.6V294A38,38,0,0,1,88.78,294.76Z"/><path class="cls-14" d="M73.62,292.92C60.43,297,49.5,318.41,52.52,339.54c-6.49-11.43-18.67-13.91-26.88-5.46s-10,25.71-6.5,39.9c-7.71-6.93-18.62-3.67-24.08,7.2S-10,409.79-3.3,418.78c12.86,17.14,27.63,1.32,28.68-2.72.62,9.8,10.38,18.24,16.79,19.84,8.51,2.13,16.32-3,16.74-12.26,1.28,9.2,10.06,17.74,20,17.61v-149A16.07,16.07,0,0,0,73.62,292.92Z"/><path class="cls-22" d="M75.46,294.76c-13.19,4.08-24.13,25.49-21.1,46.62-6.49-11.43-18.67-13.91-26.88-5.47s-10,25.72-6.5,39.91c-7.71-6.93-18.63-3.67-24.08,7.2s-5.11,28.61,1.64,37.6c12.86,17.14,27.63,1.32,28.68-2.72.62,9.8,10.38,18.24,16.79,19.84,8.51,2.13,16.32-3,16.74-12.26,1.28,9.2,10.06,17.74,20,17.6V294A16.36,16.36,0,0,0,75.46,294.76Z"/><path class="cls-14" d="M162.67,381.18c-5.45-10.87-16.36-14.13-24.07-7.2,3.5-14.19,1.69-31.46-6.51-39.9s-20.38-6-26.87,5.46c3-21.13-7.92-42.54-21.1-46.62a16.11,16.11,0,0,0-5.25-.71v.66c.61-.13,1.23,1.15,1.84,1.17V441.17c9.12-.86,16.91-8.91,18.11-17.53.42,9.3,8.24,14.39,16.75,12.26,6.41-1.6,16.17-10,16.79-19.84,1,4,15.82,19.86,28.68,2.72C167.79,409.79,168.12,392.06,162.67,381.18Z"/><path class="cls-23" d="M86,294.76c13.18,4.08,24.12,25.49,21.09,46.62,6.5-11.43,18.68-13.91,26.88-5.47s10,25.72,6.51,39.91c7.71-6.93,18.62-3.67,24.07,7.2s5.11,28.61-1.63,37.6c-12.86,17.14-27.64,1.32-28.68-2.72-.62,9.8-10.39,18.24-16.79,19.84-8.51,2.13-16.33-3-16.75-12.26-1.28,9.2-10.06,17.74-20,17.6V294A16.43,16.43,0,0,1,86,294.76Z"/></g></g><g id="Objects"><g class="cls-24"><ellipse class="cls-25" cx="301.71" cy="270.24" rx="158.67" ry="154.2" transform="translate(13.26 554.58) rotate(-86.44)"/></g><g class="cls-26"><ellipse class="cls-25" cx="221.56" cy="206.17" rx="158.67" ry="154.2" transform="translate(2.04 414.51) rotate(-86.44)"/></g><g class="cls-27"><ellipse class="cls-25" cx="419.42" cy="168.98" rx="158.67" ry="154.2" transform="translate(224.72 577.09) rotate(-86.44)"/></g><path class="cls-28" d="M382.42,230.33l-1.19,121.83a60.92,60.92,0,1,0,1.19-121.83Z"/><path class="cls-29" d="M320.91,290.65a60.92,60.92,0,0,0,60.32,61.51l1.19-121.83A60.92,60.92,0,0,0,320.91,290.65Z"/><path class="cls-30" d="M322,291.73a60.91,60.91,0,0,0,60.32,61.51l1.19-121.83A60.92,60.92,0,0,0,322,291.73Z"/><path class="cls-31" d="M383.48,231.41l-1.19,121.83a60.92,60.92,0,0,0,1.19-121.83Z"/><path class="cls-32" d="M351.37,291c-.33,33.64,13,61.05,29.86,61.21l1.19-121.83C365.6,230.17,351.69,257.31,351.37,291Z"/><path class="cls-33" d="M352.42,292c-.32,33.64,13,61.05,29.87,61.21l1.19-121.83C366.66,231.25,352.75,258.39,352.42,292Z"/><path class="cls-34" d="M382.42,230.33v.46c.36-.08.71.62,1.07.62L382.3,352.12c16.33-1,29.66-27.65,30-60.58C412.61,257.9,399.24,230.5,382.42,230.33Z"/><path class="cls-35" d="M383.48,231.41l-1.19,121.83c16.82.16,30.72-27,31-60.62S400.3,231.58,383.48,231.41Z"/><polygon class="cls-36" points="375.13 691.32 339.59 171.45 341.52 171.37 377.06 691.23 375.13 691.32"/><path class="cls-37" d="M333.35,55.14l7.31,121.62a60.92,60.92,0,1,0-7.31-121.62Z"/><path class="cls-38" d="M276.2,119.61a60.92,60.92,0,0,0,64.46,57.15L333.35,55.14A60.92,60.92,0,0,0,276.2,119.61Z"/><path class="cls-39" d="M277.33,120.61a60.92,60.92,0,0,0,64.47,57.15L334.48,56.15A60.92,60.92,0,0,0,277.33,120.61Z"/><path class="cls-40" d="M334.48,56.15l7.32,121.61a60.92,60.92,0,1,0-7.32-121.61Z"/><path class="cls-41" d="M306.61,117.78c2,33.58,17.26,60,34.05,59L333.35,55.14C316.56,56.15,304.59,84.19,306.61,117.78Z"/><path class="cls-42" d="M307.74,118.78c2,33.58,17.26,60,34.06,59L334.48,56.15C317.69,57.16,305.72,85.2,307.74,118.78Z"/><path class="cls-43" d="M333.35,55.14l0,.46c.35-.1.75.57,1.1.55l7.25,120.49c16.23-2.11,27.66-29.65,25.68-62.52C365.39,80.54,350.15,54.13,333.35,55.14Z"/><path class="cls-44" d="M334.48,56.15l7.32,121.61c16.79-1,28.76-29,26.74-62.63S351.28,55.14,334.48,56.15Z"/><g class="cls-45"><ellipse class="cls-46" cx="294.91" cy="108.81" rx="108.82" ry="105.75" transform="translate(167.99 396.39) rotate(-86.44)"/></g><g class="cls-47"><path class="cls-48" d="M551,271.68c3.74-60-40.5-111.54-98.79-115.17s-108.57,42.06-112.31,102,40.5,111.55,98.8,115.18S547.3,331.67,551,271.68Z"/></g><polygon class="cls-49" points="375.13 691.26 388.84 274.13 390.78 274.16 377.06 691.29 375.13 691.26"/><path class="cls-14" d="M389.51,155l-.74,121.83A60.92,60.92,0,1,0,389.51,155Z"/><path class="cls-14" d="M328.23,215.5a60.9,60.9,0,0,0,60.54,61.28L389.51,155A60.92,60.92,0,0,0,328.23,215.5Z"/><path class="cls-50" d="M329.29,216.58a60.91,60.91,0,0,0,60.55,61.28L390.57,156A60.91,60.91,0,0,0,329.29,216.58Z"/><path class="cls-51" d="M390.57,156l-.73,121.83A60.92,60.92,0,1,0,390.57,156Z"/><path class="cls-14" d="M358.68,215.68c-.2,33.65,13.27,61,30.09,61.1L389.51,155C372.69,154.85,358.89,182,358.68,215.68Z"/><path class="cls-52" d="M359.75,216.76c-.21,33.64,13.26,61,30.09,61.1L390.57,156C373.75,155.93,360,183.12,359.75,216.76Z"/><path class="cls-14" d="M389.51,155v.46c.35-.08.7.62,1.06.62l-.73,120.71c16.33-1,29.56-27.76,29.76-60.69C419.8,182.41,406.33,155.06,389.51,155Z"/><path class="cls-53" d="M390.57,156l-.73,121.83c16.82.1,30.62-27.09,30.82-60.73S407.39,156.13,390.57,156Z"/><path class="cls-14" d="M242.33,2.21l24.26,119.4A60.92,60.92,0,0,0,242.33,2.21Z"/><path class="cls-14" d="M194.76,74a60.92,60.92,0,0,0,71.83,47.57L242.33,2.21A60.92,60.92,0,0,0,194.76,74Z"/><path class="cls-54" d="M196,74.87a60.92,60.92,0,0,0,71.83,47.57L243.59,3.05A60.91,60.91,0,0,0,196,74.87Z"/><path class="cls-55" d="M243.59,3.05l24.26,119.39A60.91,60.91,0,1,0,243.59,3.05Z"/><path class="cls-14" d="M224.61,68c6.7,33,25.49,57,42,53.64L242.33,2.21C225.84,5.56,217.91,35,224.61,68Z"/><path class="cls-56" d="M225.87,68.81c6.7,33,25.49,57,42,53.63L243.59,3.05C227.11,6.4,219.17,35.84,225.87,68.81Z"/><path class="cls-14" d="M242.33,2.21l.09.45c.33-.15.82.46,1.17.39l24,118.29c15.78-4.36,23.24-33.23,16.69-65.49C277.61,22.88,258.81-1.14,242.33,2.21Z"/><path class="cls-57" d="M243.59,3.05l24.26,119.39c16.48-3.35,24.42-32.79,17.72-65.76S260.07-.3,243.59,3.05Z"/><polygon class="cls-58" points="375.13 691.4 266.24 120.65 268.16 120.4 377.06 691.15 375.13 691.4"/><polygon class="cls-59" points="376.47 677.56 258.63 263.31 256.72 263.64 377.31 693.9 376.47 677.56"/><polygon class="cls-60" points="432.97 128.39 376.47 677.56 377.31 693.9 434.91 128.52 432.97 128.39"/><path class="cls-61" d="M222.59,150.54l34.48,116.85a60.92,60.92,0,1,0-34.48-116.85Z"/><path class="cls-62" d="M181.41,226.2a60.91,60.91,0,0,0,75.66,41.19L222.59,150.54A60.92,60.92,0,0,0,181.41,226.2Z"/><path class="cls-63" d="M182.74,226.93a60.91,60.91,0,0,0,75.66,41.18L223.92,151.26A60.91,60.91,0,0,0,182.74,226.93Z"/><path class="cls-64" d="M223.92,151.26,258.4,268.11a60.92,60.92,0,1,0-34.48-116.85Z"/><path class="cls-65" d="M210.62,217.58c9.52,32.27,30.32,54.57,46.45,49.81L222.59,150.54C206.46,155.3,201.1,185.31,210.62,217.58Z"/><path class="cls-66" d="M212,218.31c9.52,32.26,30.32,54.56,46.45,49.8L223.92,151.26C207.79,156,202.43,186,212,218.31Z"/><path class="cls-67" d="M222.59,150.54l.13.44c.32-.18.86.38,1.2.28L258.08,267c15.34-5.7,20.28-35.11,11-66.69C259.52,168.07,238.73,145.78,222.59,150.54Z"/><path class="cls-68" d="M223.92,151.26,258.4,268.11c16.13-4.76,21.5-34.78,12-67S240.05,146.5,223.92,151.26Z"/><path class="cls-69" d="M440.07,12.23l-7.57,121.6a60.92,60.92,0,0,0,7.57-121.6Z"/><path class="cls-70" d="M375.49,69.25a60.91,60.91,0,0,0,57,64.58l7.57-121.6A60.92,60.92,0,0,0,375.49,69.25Z"/><path class="cls-71" d="M376.49,70.38a60.91,60.91,0,0,0,57,64.58l7.57-121.59A60.91,60.91,0,0,0,376.49,70.38Z"/><path class="cls-72" d="M441.07,13.37,433.5,135a60.91,60.91,0,1,0,7.57-121.59Z"/><path class="cls-73" d="M405.89,71.14c-2.09,33.58,9.82,61.65,26.61,62.69l7.57-121.6C423.28,11.19,408,37.56,405.89,71.14Z"/><path class="cls-74" d="M406.89,72.28c-2.09,33.57,9.82,61.64,26.61,62.68l7.57-121.59C424.28,12.32,409,38.7,406.89,72.28Z"/><path class="cls-75" d="M440.07,12.23l0,.46c.36-.06.67.66,1,.68l-7.5,120.47c16.37-.11,31.07-26,33.11-58.92C468.77,41.35,456.86,13.28,440.07,12.23Z"/><path class="cls-76" d="M441.07,13.37,433.5,135c16.79,1,32.1-25.32,34.19-58.9S457.86,14.41,441.07,13.37Z"/><rect class="cls-14" x="370.36" y="680.98" width="11.59" height="39.02"/></g></g></svg>