<?xml version="1.0" encoding="UTF-8"?>
<svg width="416px" height="72px" viewBox="0 0 416 72" version="1.1" xmlns="http://www.w3.org/2000/svg" xmlns:xlink="http://www.w3.org/1999/xlink">
    <!-- Generator: Sketch 52.2 (67145) - http://www.bohemiancoding.com/sketch -->
    <title>logo-rc-mia-horizontal</title>
    <desc>Created with Sketch.</desc>
    <g id="Layouts.1440" stroke="none" stroke-width="1" fill="none" fill-rule="evenodd">
        <g id="RamseyCrookall.1440.01-01.home" transform="translate(-512.000000, -5626.000000)" fill="#FFFFFF">
            <g id="Footer" transform="translate(0.000000, 5562.000000)">
                <g id="logo-rc-mia-horizontal" transform="translate(512.000000, 64.000000)">
                    <g id="logo-white">
                        <g id="Group-40">
                            <path d="M199.646512,47.0514419 C199.646512,47.4979535 199.47907,47.9444651 199.088372,48.2235349 C198.64186,48.5026047 198.083721,48.6694884 197.469767,48.6142326 C196.911628,48.6142326 196.297674,48.5026047 195.795349,48.2787907 L195.795349,47.3305116 C196.353488,47.6095814 196.911628,47.7206512 197.525581,47.7770233 C198.195349,47.7770233 198.530233,47.5532093 198.530233,47.1625116 C198.530233,47.0514419 198.474419,46.939814 198.418605,46.828186 C198.306977,46.716 198.195349,46.6043721 198.027907,46.5491163 C197.804651,46.4369302 197.581395,46.3253023 197.302326,46.2142326 C196.855814,46.0462326 196.465116,45.8235349 196.074419,45.5444651 C195.851163,45.3206512 195.739535,44.9863256 195.739535,44.6508837 C195.739535,44.2043721 195.962791,43.8136744 196.297674,43.5909767 C196.744186,43.311907 197.246512,43.2002791 197.748837,43.2002791 C198.362791,43.2002791 198.92093,43.311907 199.47907,43.5909767 L199.144186,44.428186 C198.697674,44.2043721 198.195349,44.0927442 197.748837,44.0927442 C197.190698,44.0927442 196.855814,44.2607442 196.855814,44.5956279 C196.855814,44.7625116 196.967442,44.9299535 197.07907,45.0415814 C197.413953,45.2090233 197.748837,45.3770233 198.083721,45.488093 C198.418605,45.5997209 198.753488,45.7671628 199.032558,45.9351628 C199.423256,46.1578605 199.646512,46.6043721 199.646512,47.0514419" id="Fill-2"></path>
                            <path d="M202.77187,47.7207628 C203.05094,47.7207628 203.330009,47.6649488 203.609079,47.609693 L203.609079,48.4469023 C203.441637,48.5021581 203.274195,48.5579721 203.107312,48.5579721 C202.883498,48.6143442 202.716056,48.6143442 202.4928,48.6143442 C201.432893,48.6143442 200.930009,48.0562047 200.930009,46.9399256 L200.930009,44.1492279 L200.204428,44.1492279 L200.204428,43.6463442 L200.986381,43.2556465 L201.376521,42.1393674 L202.046288,42.1393674 L202.046288,43.3120186 L203.553265,43.3120186 L203.553265,44.1492279 L202.046288,44.1492279 L202.046288,46.9399256 C202.046288,47.1626233 202.10266,47.3300651 202.270102,47.4980651 C202.38173,47.609693 202.604428,47.6649488 202.77187,47.7207628" id="Fill-4"></path>
                            <path d="M207.906865,48.5023814 L207.684167,47.7768 L207.627795,47.7768 C207.405098,48.0558698 207.181284,48.2791256 206.846958,48.4460093 C206.511516,48.5581953 206.176633,48.6140093 205.841749,48.6140093 C205.395237,48.6140093 204.948726,48.5023814 204.669656,48.1669395 C204.390586,47.832614 204.223144,47.4419163 204.223144,46.9954047 C204.223144,46.4925209 204.4464,46.0465674 204.837098,45.7674977 C205.395237,45.432614 206.009749,45.320986 206.678958,45.320986 L207.571981,45.320986 L207.571981,45.0419163 C207.571981,44.7628465 207.516167,44.4837767 207.348726,44.3163349 C207.181284,44.148893 206.902214,44.0372651 206.623144,44.0930791 C206.344074,44.0930791 206.120819,44.148893 205.841749,44.204707 C205.618493,44.2599628 205.339423,44.3721488 205.116167,44.4837767 L204.781284,43.7018233 C205.060353,43.5349395 205.395237,43.4227535 205.674307,43.3674977 C206.009749,43.3116837 206.288819,43.2558698 206.623144,43.2558698 C207.181284,43.2000558 207.684167,43.3674977 208.130121,43.7018233 C208.521377,44.0372651 208.68826,44.5390326 208.632447,45.0419163 L208.632447,48.5581953 L207.906865,48.5023814 Z M206.232447,47.7768 C206.567888,47.7768 206.958028,47.6651721 207.181284,47.4419163 C207.405098,47.2186605 207.571981,46.8279628 207.516167,46.4930791 L207.516167,46.0465674 L206.846958,46.0465674 C206.455702,46.0465674 206.065005,46.1023814 205.730679,46.3256372 C205.506865,46.4930791 205.339423,46.7721488 205.395237,47.0512186 C205.395237,47.2744744 205.451609,47.4419163 205.618493,47.6093581 C205.785935,47.720986 206.009749,47.7768 206.232447,47.7768 Z" id="Fill-6"></path>
                            <path d="M212.87453,43.2000558 C213.488484,43.2000558 214.046623,43.4233116 214.381507,43.9256372 C215.107088,45.1535442 215.107088,46.6605209 214.381507,47.8884279 C213.655367,48.7256372 212.428019,48.8372651 211.590809,48.1116837 C211.479181,48.0558698 211.422809,47.9442419 211.367553,47.8884279 L211.31174,47.8884279 L211.088484,48.5023814 L210.251274,48.5023814 L210.251274,41.1907535 L211.367553,41.1907535 L211.367553,42.920986 L211.367553,43.4791256 L211.367553,43.9814512 L211.422809,43.9814512 C211.701879,43.4791256 212.260019,43.2000558 212.87453,43.2000558 M212.59546,44.148893 C212.204763,44.0930791 211.869879,44.2599628 211.646623,44.5390326 C211.422809,44.9302884 211.31174,45.3762419 211.367553,45.8233116 L211.367553,45.8791256 C211.31174,46.3814512 211.422809,46.8279628 211.646623,47.2744744 C211.869879,47.5535442 212.260019,47.720986 212.651274,47.720986 C212.986158,47.720986 213.376298,47.5535442 213.544298,47.2744744 C213.767553,46.8837767 213.879181,46.3814512 213.823367,45.9343814 C213.823367,44.7070326 213.376298,44.148893 212.59546,44.148893" id="Fill-8"></path>
                            <polygon id="Fill-10" points="216.223256 48.5028837 217.339535 48.5028837 217.339535 41.1912558 216.223256 41.1912558"></polygon>
                            <path d="M218.846735,41.9164465 C218.846735,41.7484465 218.902549,41.5810047 219.014177,41.4693767 C219.125805,41.358307 219.293247,41.3019349 219.460688,41.3019349 C219.627572,41.3019349 219.795014,41.358307 219.906642,41.4693767 C220.018828,41.5810047 220.074084,41.7484465 220.074084,41.9164465 C220.074084,42.0838884 220.018828,42.2513302 219.906642,42.3629581 C219.795014,42.474586 219.627572,42.5304 219.460688,42.5304 C219.293247,42.5304 219.125805,42.474586 219.014177,42.3629581 C218.902549,42.2513302 218.846735,42.0838884 218.846735,41.9164465 Z M218.902549,48.502493 L220.018828,48.502493 L220.018828,43.3117953 L218.902549,43.3117953 L218.902549,48.502493 Z" id="Fill-12"></path>
                            <path d="M225.097451,47.0514419 C225.097451,47.4979535 224.930009,47.9444651 224.539312,48.2235349 C224.0928,48.5026047 223.53466,48.6694884 222.921265,48.6142326 C222.363126,48.6142326 221.748614,48.5026047 221.246847,48.2787907 L221.246847,47.3305116 C221.804986,47.6095814 222.363126,47.7206512 222.976521,47.7770233 C223.646288,47.7770233 223.981172,47.5532093 223.981172,47.1625116 C223.981172,47.0514419 223.925358,46.939814 223.870102,46.828186 C223.758474,46.716 223.646288,46.6043721 223.479405,46.5491163 C223.255591,46.4369302 223.032893,46.3253023 222.753823,46.2142326 C222.306753,46.0462326 221.916614,45.8235349 221.525916,45.5444651 C221.302102,45.3206512 221.190474,44.9863256 221.190474,44.6508837 C221.190474,44.2043721 221.41373,43.8136744 221.748614,43.5909767 C222.195684,43.311907 222.697451,43.2002791 223.200335,43.2002791 C223.81373,43.2002791 224.37187,43.311907 224.930009,43.5909767 L224.595684,44.428186 C224.149172,44.2043721 223.646288,44.0927442 223.200335,44.0927442 C222.642195,44.0927442 222.306753,44.2607442 222.306753,44.5956279 C222.306753,44.7625116 222.418381,44.9299535 222.530009,45.0415814 C222.864893,45.2090233 223.200335,45.3770233 223.53466,45.488093 C223.870102,45.5997209 224.204428,45.7671628 224.483498,45.9351628 C224.65094,46.0462326 224.818381,46.2142326 224.930009,46.3816744 C225.041637,46.6043721 225.097451,46.828186 225.097451,47.0514419" id="Fill-13"></path>
                            <path d="M230.846735,48.5023814 L229.730456,48.5023814 L229.730456,45.320986 C229.730456,44.9861023 229.674084,44.7070326 229.5072,44.4279628 C229.283386,44.204707 229.004316,44.0930791 228.725247,44.148893 C228.335107,44.0930791 227.944409,44.2605209 227.720595,44.5395907 C227.441526,44.9302884 227.329898,45.432614 227.38627,45.9349395 L227.38627,48.5023814 L226.269991,48.5023814 L226.269991,41.1907535 L227.38627,41.1907535 L227.38627,43.032614 C227.38627,43.3674977 227.38627,43.6465674 227.329898,43.9814512 L227.38627,43.9814512 C227.553712,43.7581953 227.776967,43.5349395 227.999665,43.4233116 C228.278735,43.2558698 228.614177,43.2000558 228.94906,43.1442419 C230.176967,43.1442419 230.846735,43.7581953 230.846735,45.0419163 L230.846735,48.5023814 Z" id="Fill-14"></path>
                            <path d="M234.641972,48.6141209 C233.916391,48.6699349 233.246623,48.3908651 232.744298,47.8879814 C232.241972,47.3298419 232.018716,46.6606326 232.073972,45.934493 C232.018716,45.2089116 232.241972,44.4838884 232.688484,43.9257488 C233.134995,43.4228651 233.748391,43.1437953 234.418716,43.2001674 C235.03267,43.1437953 235.590809,43.3676093 236.037321,43.8135628 C236.483833,44.2600744 236.651274,44.9298419 236.651274,45.5443535 L236.651274,46.158307 L233.190251,46.158307 C233.190251,46.6042605 233.302437,46.9955163 233.581507,47.3298419 C233.860577,47.6089116 234.251274,47.7769116 234.641972,47.7205395 C234.921042,47.7205395 235.200112,47.7205395 235.479181,47.6089116 C235.758251,47.5536558 236.037321,47.4414698 236.316391,47.3298419 L236.316391,48.2234233 C236.037321,48.3350512 235.758251,48.4461209 235.479181,48.502493 C235.31174,48.6141209 234.976856,48.6141209 234.641972,48.6141209 M234.47453,44.0373767 C234.139647,44.0373767 233.860577,44.1490047 233.637321,44.3717023 C233.414065,44.6507721 233.302437,44.986214 233.246623,45.3210977 L235.590809,45.3210977 C235.590809,44.986214 235.479181,44.5955163 235.255926,44.3164465 C235.088484,44.1490047 234.7536,44.0373767 234.47453,44.0373767" id="Fill-15"></path>
                            <path d="M239.720819,48.6141209 C239.106865,48.6141209 238.548726,48.3908651 238.213842,47.8879814 C237.823702,47.3298419 237.599888,46.6042605 237.655702,45.8792372 C237.599888,45.1536558 237.823702,44.4838884 238.213842,43.8699349 C238.548726,43.3676093 239.162679,43.0885395 239.720819,43.1437953 C240.33533,43.0885395 240.948726,43.3676093 241.283609,43.8699349 L241.339423,43.8699349 C241.283609,43.5908651 241.283609,43.2554233 241.283609,42.9763535 L241.283609,41.0792372 L242.399888,41.0792372 L242.399888,48.4461209 L241.562679,48.4461209 L241.339423,47.7769116 L241.283609,47.7769116 C240.89347,48.3350512 240.33533,48.6699349 239.720819,48.6141209 M239.999888,47.7205395 C240.390586,47.7769116 240.72547,47.6094698 241.00454,47.3304 C241.227795,46.9397023 241.339423,46.5490047 241.339423,46.102493 L241.339423,45.9350512 C241.395237,45.4327256 241.283609,44.986214 241.00454,44.5397023 C240.781284,44.2606326 240.390586,44.0926326 239.999888,44.1490047 C239.665005,44.1490047 239.274307,44.3164465 239.106865,44.5955163 C238.883609,44.986214 238.771981,45.4879814 238.771981,45.9350512 C238.716167,46.3815628 238.827795,46.8280744 239.051051,47.274586 C239.274307,47.5536558 239.609191,47.7205395 239.999888,47.7205395" id="Fill-16"></path>
                            <path d="M249.32093,48.5023814 L248.204651,48.5023814 L248.204651,44.0372651 C248.204651,43.5349395 248.204651,43.0884279 248.260465,42.7535442 C248.148837,42.864614 248.093023,42.920986 247.981395,42.9768 L246.92093,43.8698233 L246.362791,43.1436837 L248.372093,41.5814512 L249.265116,41.5814512 L249.32093,48.5023814 Z" id="Fill-17"></path>
                            <path d="M256.242084,44.5954047 C256.297898,45.6558698 256.018828,46.7163349 255.404874,47.6093581 C254.790363,48.3349395 253.841526,48.6698233 252.893247,48.6140093 C252.614177,48.6140093 252.278735,48.6140093 251.999665,48.5581953 L251.999665,47.6093581 C252.278735,47.6651721 252.557805,47.720986 252.836874,47.720986 C253.451386,47.7768 254.06534,47.5535442 254.511293,47.1070326 C254.957805,46.548893 255.125805,45.8791256 255.125805,45.2093581 L255.069433,45.2093581 C254.902549,45.4884279 254.678735,45.6558698 254.399665,45.8233116 C254.120595,45.9349395 253.78627,46.0465674 253.5072,45.9907535 C252.94906,46.0465674 252.446177,45.8233116 252.056037,45.432614 C251.66534,44.9861023 251.497898,44.4279628 251.553712,43.8698233 C251.497898,43.2558698 251.720595,42.6419163 252.167107,42.1395907 C252.614177,41.6930791 253.172316,41.4698233 253.78627,41.4698233 C254.735107,41.4698233 255.572316,42.0279628 255.906642,42.8651721 C256.130456,43.4233116 256.242084,43.9814512 256.242084,44.5954047 M253.841526,42.4744744 C253.5072,42.4744744 253.172316,42.5855442 252.94906,42.864614 C252.725247,43.1436837 252.614177,43.5349395 252.669991,43.9256372 C252.669991,44.2599628 252.781619,44.5954047 252.94906,44.8744744 C253.172316,45.0971721 253.5072,45.2093581 253.78627,45.2093581 C254.120595,45.2093581 254.456037,45.0971721 254.735107,44.8744744 C254.957805,44.7070326 255.125805,44.4279628 255.125805,44.0930791 C255.125805,43.8140093 255.069433,43.5349395 254.957805,43.3116837 C254.846735,43.0884279 254.678735,42.920986 254.511293,42.7535442 C254.344409,42.5302884 254.06534,42.4744744 253.841526,42.4744744" id="Fill-18"></path>
                            <path d="M261.990809,46.995293 L261.041972,46.995293 L261.041972,48.5022698 L259.980949,48.5022698 L259.980949,46.995293 L256.855926,46.995293 L256.855926,46.1580837 L259.980949,41.6371535 L261.041972,41.6371535 L261.041972,46.1022698 L261.990809,46.1022698 L261.990809,46.995293 Z M259.980949,46.1022698 L259.980949,44.3720372 C259.980949,43.7580837 259.980949,43.2557581 260.037321,42.8656186 L259.980949,42.8656186 C259.869879,43.1446884 259.701879,43.367386 259.534995,43.5906419 L257.860577,46.0464558 L259.980949,46.0464558 L259.980949,46.1022698 Z" id="Fill-19"></path>
                            <path d="M262.60454,45.5999442 C262.60454,42.9208744 263.720819,41.5813395 265.897563,41.5813395 C266.176633,41.5813395 266.455702,41.5813395 266.790586,41.6371535 L266.790586,42.5865488 C266.511516,42.5301767 266.232447,42.4743628 265.953377,42.4743628 C265.339423,42.4185488 264.72547,42.6418047 264.278958,43.0883163 C263.832447,43.6464558 263.665005,44.3162233 263.665005,44.9859907 L263.720819,44.9859907 C263.88826,44.7069209 264.05626,44.5400372 264.33533,44.3720372 C264.6144,44.2045953 264.948726,44.1487814 265.283609,44.1487814 C265.841749,44.0929674 266.344074,44.3162233 266.734772,44.7069209 C267.126028,45.1534326 267.292912,45.7115721 267.237098,46.2697116 C267.292912,46.8836651 267.069656,47.4976186 266.623144,47.9999442 C266.176633,48.447014 265.562679,48.6697116 264.948726,48.6138977 C264.502214,48.6138977 264.05626,48.5022698 263.665005,48.279014 C263.274307,47.9999442 262.995237,47.6650605 262.827795,47.2185488 C262.660912,46.7162233 262.548726,46.1580837 262.60454,45.5999442 M265.00454,47.7208744 C265.339423,47.7208744 265.674307,47.6098047 265.897563,47.3307349 C266.120819,47.0516651 266.232447,46.6604093 266.232447,46.2697116 C266.232447,45.935386 266.120819,45.5999442 265.953377,45.3208744 C265.730679,45.0981767 265.395237,44.9301767 265.060353,44.9859907 C264.837098,44.9859907 264.6144,45.0418047 264.390586,45.1534326 C264.223144,45.2650605 264.05626,45.3772465 263.88826,45.5999442 C263.777191,45.767386 263.720819,45.935386 263.720819,46.1580837 C263.720819,46.5487814 263.832447,46.9394791 264.05626,47.2743628 C264.278958,47.5534326 264.6144,47.7208744 265.00454,47.7208744" id="Fill-20"></path>
                            <path d="M33.4779349,43.6137488 C32.5899349,41.5452837 32.0931907,39.262493 32.0931907,36.8368186 C32.1791442,33.1419349 33.3601674,29.5815628 35.4258419,26.5837953 C33.0693767,23.0552372 29.1635163,20.7071442 24.6699349,20.7071442 C21.3210977,20.7071442 18.0838884,22.158307 15.9071442,24.7815628 L15.9071442,43.2554233 L16.4652837,42.474586 C19.2001674,44.4280744 22.4931907,46.3815628 25.9536558,46.3815628 C28.8163535,46.3570047 31.4351442,45.3188651 33.4779349,43.6137488" id="Fill-21"></path>
                            <path d="M34.0848558,44.8777674 C31.6781581,46.4695814 28.7836465,47.4117209 25.7300651,47.4976744 L25.7300651,47.6093023 L27.1812279,48.2790698 C30.1393674,49.6186047 35.9998326,52.744186 39.1812279,52.744186 C40.0340651,52.744186 40.8338791,52.5873488 41.5845767,52.2820465 C38.3964837,50.6104186 35.7631814,48.040186 34.0848558,44.8777674" id="Fill-22"></path>
                            <path d="M35.6368744,41.2465674 C37.0054326,39.2819163 37.8080372,36.8958698 37.7862698,34.3256372 L37.7862698,33.9907535 C37.7265488,32.0618233 37.2772465,30.2216372 36.5198512,28.5572651 C35.4459907,30.7875907 34.8448744,33.3187535 34.8281302,36.0000558 C34.8164093,37.7922419 35.103293,39.560986 35.6368744,41.2465674" id="Fill-23"></path>
                            <path d="M35.9998884,69.7116837 C17.3580279,69.7116837 2.28826047,54.5861023 2.28826047,36.0000558 C2.28826047,17.4140093 17.4138419,2.28842791 35.9998884,2.28842791 C54.6417488,2.28842791 69.7115163,17.3581953 69.7115163,36.0000558 C69.7115163,54.5861023 54.6417488,69.7116837 35.9998884,69.7116837 M35.9998884,5.58139535e-05 C16.074307,5.58139535e-05 -0.000111627907,16.1302884 -0.000111627907,36.0000558 C-0.000111627907,55.8698233 16.1301209,72.0000558 35.9998884,72.0000558 C55.8696558,72.0000558 71.9998884,55.8698233 71.9998884,36.0000558 C71.9998884,16.1302884 55.9254698,5.58139535e-05 35.9998884,5.58139535e-05" id="Fill-24"></path>
                            <path d="M50.2883163,54.4184372 C47.2715721,54.4184372 44.3926884,53.7001116 41.8498047,52.4186233 L42.1394791,52.7440186 C41.079014,53.6928558 39.7394791,53.9166698 38.3999442,53.9166698 C31.8697116,53.9166698 21.4883163,48.6696 15.851107,45.2091349 L15.851107,49.5626233 C15.851107,51.6841116 16.0743628,52.4091349 19.0883163,52.4091349 L20.2604093,52.4091349 L20.2604093,53.3021581 L10.1580837,53.3021581 L10.1580837,52.4091349 L13.1162233,52.4091349 L13.1162233,22.7724837 C13.0045953,20.5951814 11.9999442,20.4282977 9.76738605,20.4282977 L9.76738605,19.5347163 L15.9069209,19.5347163 L15.9069209,22.7724837 C18.8092465,20.7073674 22.2138977,19.1998326 25.7859907,19.1998326 C30.2544558,19.1998326 34.4605953,21.1650419 37.2267349,24.3548093 C37.3205023,24.2554605 37.4109209,24.1533209 37.5069209,24.0562047 C41.1348279,20.4282977 46.1022698,18.641693 51.2371535,18.641693 C54.4743628,18.5864372 57.7115721,19.3672744 60.5022698,20.9864372 L60.5022698,17.9719256 L61.395293,17.9719256 L61.395293,31.1445767 L60.5022698,31.1445767 C60.5022698,26.4003907 60.1115721,24.6143442 58.995293,23.2189953 C57.2092465,20.8742512 53.1348279,19.8701581 50.2883163,19.8701581 C45.2533395,19.8701581 41.0248744,22.1490419 38.2698977,25.7127628 C39.6842233,27.821414 40.5208744,30.3358326 40.5208744,33.0980651 C40.5208744,37.0831814 38.8978047,40.5397395 36.323107,43.0681116 C38.8777116,48.8504372 44.4596651,53.2156465 51.1255256,53.1347163 C55.1999442,53.0230884 59.1069209,51.2928558 61.9534326,48.3352744 L62.9022698,49.4515535 C59.4418047,52.5765767 54.9208744,54.3073674 50.2883163,54.4184372 M35.9999442,2.79053023 C17.6929674,2.79053023 2.84645581,17.6376 2.84645581,35.9440186 C2.84645581,54.2509953 17.6929674,69.097507 35.9999442,69.097507 C54.3069209,69.097507 69.1534326,54.2509953 69.1534326,35.9440186 C69.1534326,17.6928558 54.3069209,2.84690233 35.9999442,2.79053023" id="Fill-25"></path>
                            <path d="M84.6138977,22.102493 C84.6138977,19.4234233 84.5580837,18.9210977 83.3859907,18.7536558 L82.4929674,18.6420279 C82.3255256,18.474586 82.3255256,18.1391442 82.4929674,17.9722605 L82.5487814,17.9164465 C84.167386,17.8048186 86.1208744,17.6931907 88.9115721,17.6931907 C90.6418047,17.6931907 92.3162233,17.8600744 93.6557581,18.5304 C95.1627349,19.2554233 96.0557581,20.8187721 95.9999442,22.4931907 C95.9999442,25.1722605 93.879014,26.6792372 92.4278512,27.2373767 C92.3162233,27.4048186 92.4278512,27.6838884 92.595293,27.906586 C94.8836651,31.5908651 96.3906419,33.8234233 98.2883163,35.4414698 C98.8464558,35.8885395 99.5162233,36.1676093 100.241805,36.2234233 C100.353433,36.2786791 100.409247,36.4466791 100.297619,36.5577488 C100.297619,36.6141209 100.241805,36.6141209 100.241805,36.6141209 C99.851107,36.7251907 99.4045953,36.7815628 99.0138977,36.7815628 C96.6138977,36.7815628 95.1627349,36.0559814 93.1534326,33.2089116 C92.4278512,32.1490047 91.2557581,30.1955163 90.3627349,28.9117953 C89.9720372,28.2978419 89.5255256,28.074586 88.4092465,28.074586 C87.1255256,28.074586 87.0697116,28.074586 87.0697116,28.6885395 L87.0697116,32.2600744 C87.0697116,35.2187721 87.1255256,35.6089116 88.7999442,35.7769116 L89.4138977,35.8879814 C89.5813395,36.1117953 89.5255256,36.3908651 89.3580837,36.6141209 C88.0743628,36.5577488 87.1255256,36.502493 85.9534326,36.502493 C84.7813395,36.502493 83.7208744,36.502493 82.3813395,36.6141209 C82.2138977,36.4461209 82.1580837,36.1117953 82.3255256,35.8879814 L83.051107,35.7769116 C84.6697116,35.6089116 84.7813395,35.2187721 84.7813395,32.2600744 L84.6138977,22.102493 Z M86.9580837,26.1769116 C86.9022698,26.5112372 86.9580837,26.790307 87.0138977,27.1257488 C87.0697116,27.2373767 87.5162233,27.2373767 88.967386,27.2373767 C89.9720372,27.2931907 91.0325023,27.0693767 91.8697116,26.5112372 C92.651107,25.8978419 93.2650605,24.8931907 93.2650605,22.9955163 C93.2650605,20.7629581 91.8697116,18.6420279 88.7441302,18.6420279 C87.0138977,18.6420279 86.9022698,18.7536558 86.9022698,19.534493 L86.9580837,26.1769116 Z" id="Fill-26"></path>
                            <path d="M105.990809,30.6419163 C106.437321,30.4744744 106.493135,30.2512186 106.493135,29.804707 L106.493135,28.520986 C106.548949,27.4605209 106.158251,26.0651721 104.428019,26.0651721 C103.646623,26.0651721 102.641972,26.4558698 102.586158,27.348893 C102.530344,27.7954047 102.530344,28.1302884 102.307088,28.2977302 C101.804763,28.632614 101.246623,28.8558698 100.688484,28.8558698 C100.465228,28.8558698 100.297786,28.7442419 100.297786,28.520986 L100.297786,28.4651721 C100.297786,27.0140093 103.534995,24.948893 105.600112,24.948893 C107.665228,24.948893 108.614065,26.120986 108.558251,28.2977302 L108.390809,33.2651721 C108.334995,34.548893 108.614065,35.720986 109.67453,35.720986 C109.897786,35.720986 110.176856,35.6651721 110.400112,35.5535442 C110.51174,35.4419163 110.679181,35.3302884 110.790809,35.3302884 C110.902437,35.3302884 111.014065,35.4977302 111.014065,35.720986 C110.455926,36.5023814 109.562902,36.948893 108.614065,36.948893 C107.888484,36.948893 107.218716,36.6140093 106.772205,36.0558698 C106.660577,35.8878698 106.493135,35.6651721 106.325693,35.6651721 C105.934995,35.7768 105.544298,36.0000558 105.209414,36.2233116 C104.59546,36.6140093 103.869879,36.8930791 103.144298,36.948893 C102.418716,37.004707 101.693135,36.7256372 101.134995,36.2791256 C100.576856,35.7768 100.241972,35.0512186 100.241972,34.2698233 C100.241972,33.1535442 100.800112,32.4837767 102.586158,31.8698233 L105.990809,30.6419163 Z M104.260577,35.6651721 C104.87453,35.6093581 105.488484,35.3861023 105.990809,34.9395907 C106.325693,34.604707 106.325693,34.2134512 106.381507,33.6000558 L106.437321,31.9256372 C106.437321,31.5907535 106.325693,31.5349395 106.158251,31.5349395 C105.767553,31.5907535 105.376856,31.7023814 104.986158,31.8140093 C103.31174,32.3721488 102.47453,32.8186605 102.47453,33.9349395 C102.47453,34.8837767 103.255926,35.6651721 104.204763,35.6651721 L104.260577,35.6651721 Z" id="Fill-27"></path>
                            <path d="M128.59546,29.2465674 C128.59546,27.2930791 127.758251,26.3442419 125.972205,26.3442419 C125.079181,26.2884279 124.241972,26.6791256 123.628019,27.348893 C123.293135,27.7954047 123.181507,28.0744744 123.181507,29.0791256 L123.181507,33.432614 C123.181507,35.4977302 123.237321,35.7768 124.241972,35.8884279 L124.855926,36.0000558 C125.023367,36.2233116 125.023367,36.5023814 124.800112,36.6698233 C123.962902,36.6140093 123.125693,36.5581953 122.121042,36.5581953 C121.116391,36.5581953 120.334995,36.5581953 119.5536,36.6698233 C119.330344,36.5023814 119.330344,36.1669395 119.497786,35.9442419 L120.000112,35.832614 C121.060577,35.6651721 121.060577,35.3861023 121.060577,33.3762419 L121.060577,29.2465674 C121.060577,27.348893 120.223367,26.3442419 118.437321,26.3442419 C117.544298,26.2884279 116.651274,26.6791256 116.037321,27.348893 C115.702437,27.7954047 115.534995,28.4093581 115.590809,28.9674977 L115.590809,33.3768 C115.590809,35.4419163 115.646623,35.6651721 116.651274,35.832614 L117.1536,35.9442419 C117.321042,36.1674977 117.321042,36.4465674 117.097786,36.6140093 C116.316391,36.5581953 115.479181,36.5023814 114.530344,36.5023814 C113.581507,36.5023814 112.63267,36.5023814 111.79546,36.6140093 C111.572205,36.4460093 111.572205,36.1116837 111.739647,35.9442419 L112.409414,35.832614 C113.469879,35.720986 113.469879,35.3861023 113.469879,33.3768 L113.469879,28.4093581 C113.469879,27.2930791 113.469879,27.1814512 112.688484,26.6233116 L112.409414,26.4558698 C112.297786,26.2884279 112.297786,26.0651721 112.465228,25.9535442 C113.469879,25.5628465 114.418716,25.1163349 115.31174,24.5581953 C115.423367,24.5581953 115.590809,24.6140093 115.646623,24.7814512 C115.590809,25.2279628 115.590809,25.6744744 115.590809,26.120986 C115.590809,26.2884279 115.702437,26.4000558 115.869879,26.4558698 C116.930344,25.6186605 118.269879,25.1163349 119.665228,25.004707 C120.893135,24.948893 122.065228,25.6186605 122.679181,26.6791256 C122.958251,26.7349395 123.181507,26.6233116 123.404763,26.4558698 C124.521042,25.6186605 125.860577,25.1163349 127.255926,25.004707 C129.544298,25.004707 130.660577,26.5674977 130.660577,28.520986 L130.660577,33.432614 C130.660577,35.4977302 130.716391,35.7768 131.721042,35.8884279 L132.390809,36.0000558 C132.558251,36.2233116 132.558251,36.5023814 132.334995,36.6698233 C131.386158,36.6140093 130.604763,36.5581953 129.600112,36.5581953 C128.59546,36.5581953 127.814065,36.5581953 127.03267,36.6698233 C126.809414,36.5023814 126.809414,36.1669395 126.976856,35.9442419 L127.479181,35.832614 C128.539647,35.6651721 128.539647,35.3861023 128.539647,33.3762419 L128.59546,29.2465674 Z" id="Fill-28"></path>
                            <path d="M140.87453,25.5069209 C141.1536,26.2325023 141.321042,27.0138977 141.321042,27.7958512 C141.1536,28.0185488 140.87453,28.0185488 140.651274,27.9069209 C140.148949,26.6795721 139.31174,25.8423628 138.139647,25.8423628 C137.190251,25.7859907 136.409414,26.4557581 136.353042,27.3487814 L136.353042,27.5720372 C136.353042,28.7441302 137.525693,29.3580837 138.530344,29.9162233 C140.037321,30.7534326 141.43267,31.7580837 141.43267,33.767386 C141.43267,35.9441302 139.422809,37.0051535 137.358251,37.0051535 C136.297786,37.0604093 135.181507,36.7813395 134.344298,36.1679442 C134.065228,35.2185488 133.9536,34.2697116 134.009414,33.3208744 C134.176856,33.1534326 134.455926,33.1534326 134.678623,33.2650605 C135.181507,34.8278512 136.073972,36.1679442 137.693135,36.1679442 C138.641972,36.279014 139.479181,35.5534326 139.590809,34.6045953 L139.590809,34.3813395 C139.590809,33.0976186 138.47453,32.3720372 137.414065,31.7580837 C135.739647,30.8092465 134.623367,29.8045953 134.623367,28.2418047 C134.623367,26.1766884 136.297786,25.0051535 138.47453,25.0051535 C139.255926,24.9487814 140.093135,25.1162233 140.87453,25.5069209" id="Fill-29"></path>
                            <path d="M145.953377,29.3021581 C145.227795,29.3021581 145.17254,29.3585302 145.17254,30.0835535 C145.17254,32.9300651 146.846958,35.3858791 149.916726,35.3858791 C150.865005,35.3858791 151.6464,35.1068093 152.539423,33.9905302 C152.707423,33.9352744 152.930121,33.9905302 153.041749,34.2143442 L153.041749,34.325414 C152.149284,35.9998326 150.418493,37.0050419 148.576633,36.9486698 C147.013842,37.0044837 145.451609,36.2789023 144.4464,35.0509953 C143.665005,33.9905302 143.219051,32.7073674 143.274307,31.3672744 C143.274307,27.8509953 145.562679,24.9486698 148.96733,24.9486698 C151.423144,24.9486698 152.986493,26.6230884 152.986493,28.3533209 C152.986493,28.5765767 152.986493,28.8556465 152.874307,29.0794605 C152.818493,29.2463442 152.371981,29.3021581 151.199888,29.3021581 L145.953377,29.3021581 Z M147.739423,28.4649488 C149.860353,28.4649488 150.474865,28.3538791 150.697563,28.1858791 C150.753935,28.1300651 150.865005,28.0184372 150.865005,27.6277395 C150.865005,26.8469023 150.306865,25.8422512 148.68826,25.8422512 C147.069656,25.8422512 145.562679,27.4050419 145.562679,28.297507 C145.562679,28.3538791 145.562679,28.4649488 145.785935,28.4649488 L147.739423,28.4649488 Z" id="Fill-30"></path>
                            <path d="M154.15814,42.4184372 C154.102326,41.8602977 154.548837,41.3585302 155.162791,41.3021581 L155.274419,41.3021581 L155.832558,41.3021581 C156.223256,41.3021581 156.55814,41.1347163 156.781395,40.8003907 C157.451163,39.7951814 158.009302,38.7347163 158.455814,37.6184372 C158.623256,37.2277395 158.734884,36.8370419 158.734884,36.3905302 C158.67907,35.7207628 158.511628,35.0515535 158.232558,34.4370419 L156,28.3538791 C155.497674,27.013786 155.330233,26.3440186 154.325581,26.1213209 L153.6,26.009693 C153.432558,25.8422512 153.432558,25.3951814 153.655814,25.2841116 C154.548837,25.3393674 155.386047,25.3951814 156.334884,25.3951814 C157.116279,25.3951814 157.897674,25.3951814 158.790698,25.2841116 C159.013953,25.4515535 159.069767,25.7306233 158.902326,25.9533209 C158.902326,25.9533209 158.902326,26.009693 158.846512,26.009693 L158.12093,26.1213209 C157.730233,26.2323907 157.506977,26.2887628 157.506977,26.5114605 C157.730233,27.4050419 158.009302,28.297507 158.344186,29.1910884 L159.237209,31.813786 C159.460465,32.4835535 159.739535,33.1533209 160.074419,33.8236465 C160.465116,33.1533209 160.855814,32.4282977 161.134884,31.7021581 L162.083721,29.4696 C162.530233,28.5765767 162.865116,27.6277395 163.088372,26.6230884 C163.088372,26.4556465 162.92093,26.2323907 162.418605,26.1207628 L161.525581,26.009693 C161.35814,25.841693 161.35814,25.5068093 161.525581,25.3393674 L161.581395,25.2835535 C162.474419,25.3393674 163.311628,25.3951814 164.093023,25.3951814 C164.874419,25.3951814 165.432558,25.3951814 166.269767,25.2835535 C166.493023,25.4515535 166.548837,25.7306233 166.381395,25.9533209 C166.381395,25.9533209 166.381395,26.009693 166.325581,26.009693 L165.823256,26.1207628 C164.874419,26.2887628 164.372093,27.1259721 163.423256,29.1347163 L161.804651,32.4282977 C160.855814,34.325414 158.511628,39.2928558 157.172093,42.3626233 C156.669767,43.4236465 156,43.7027163 155.330233,43.7027163 C154.716279,43.813786 154.15814,43.3672744 154.046512,42.7538791 C154.15814,42.5864372 154.15814,42.5300651 154.15814,42.4184372" id="Fill-31"></path>
                            <path d="M177.87907,19.813786 C180.111628,18.1957395 182.790698,17.3021581 185.525581,17.413786 C187.2,17.4701581 188.930233,17.6928558 190.548837,18.0835535 C190.827907,18.1957395 191.051163,18.1957395 191.330233,18.1957395 C191.330233,18.865507 191.497674,20.6509953 191.72093,22.381786 C191.497674,22.6044837 191.218605,22.6044837 190.939535,22.4370419 C190.493023,20.4835535 189.265116,18.3073674 185.134884,18.3073674 C180.781395,18.3073674 177.097674,21.041693 177.097674,26.9585302 C177.097674,32.8742512 180.893023,36.2230884 185.525581,36.2230884 C188.204651,36.3352744 190.604651,34.6608558 191.44186,32.1492279 C191.665116,32.0370419 192,32.0370419 192.167442,32.2602977 C192,33.6556465 191.497674,34.9951814 190.772093,36.1672744 C190.437209,36.2230884 190.102326,36.3352744 189.767442,36.4463442 C188.316279,36.893414 186.809302,37.0602977 185.302326,37.1161116 C182.790698,37.2277395 180.334884,36.5579721 178.213953,35.2189953 C175.646512,33.4882047 174.083721,30.5300651 174.195349,27.4050419 C174.251163,24.3905302 175.590698,21.5998326 177.87907,19.813786" id="Fill-32"></path>
                            <path d="M195.404874,28.4093581 C195.404874,27.2930791 195.404874,27.1814512 194.623479,26.6233116 L194.344409,26.4558698 C194.232223,26.2884279 194.232223,26.0651721 194.399665,25.9535442 C195.404874,25.5628465 196.353153,25.1163349 197.246735,24.5581953 C197.414177,24.5581953 197.469433,24.6698233 197.469433,24.7814512 L197.469433,26.4558698 C197.469433,26.5674977 197.469433,26.6791256 197.525805,26.7349395 C198.530456,25.8977302 199.590921,25.004707 200.650828,25.004707 C201.321153,24.948893 201.879293,25.4512186 201.934549,26.0651721 L201.934549,26.120986 C201.990921,26.7907535 201.432781,27.404707 200.7072,27.404707 C200.483944,27.404707 200.26013,27.348893 200.092688,27.1814512 C199.701991,26.9023814 199.311851,26.7349395 198.864781,26.7349395 C198.474642,26.7349395 198.083944,26.9581953 197.86013,27.2930791 C197.525805,27.9628465 197.414177,28.7442419 197.469433,29.4698233 L197.469433,33.320986 C197.469433,35.3861023 197.525805,35.720986 198.585712,35.7768 L199.590921,35.8884279 C199.758363,36.1116837 199.758363,36.3907535 199.534549,36.6140093 C198.195572,36.5581953 197.358363,36.5023814 196.409526,36.5023814 C195.460688,36.5023814 194.511293,36.5023814 193.78627,36.6140093 C193.562456,36.4465674 193.562456,36.1116837 193.730456,35.9442419 L194.288595,35.832614 C195.348502,35.6651721 195.348502,35.3861023 195.348502,33.3768 L195.404874,28.4093581 Z" id="Fill-33"></path>
                            <path d="M214.660688,30.8653953 C214.660688,34.4369302 212.204874,36.9485581 208.688595,36.9485581 C205.562456,37.0607442 202.995572,34.6607442 202.883386,31.5346047 L202.883386,31.088093 C202.771758,27.7956279 205.395014,25.0607442 208.688595,24.9485581 L208.967665,24.9485581 C212.092688,24.8933023 214.660688,27.4049302 214.716502,30.5299535 C214.660688,30.6421395 214.660688,30.7537674 214.660688,30.8653953 M208.576967,25.8421395 C206.678735,25.8421395 205.283386,27.6276279 205.283386,30.7537674 C205.283386,33.3206512 206.456037,36.1113488 208.967665,36.1113488 C211.479293,36.1113488 212.26013,33.488093 212.26013,31.311907 C212.26013,28.911907 211.255479,25.8421395 208.576967,25.8421395" id="Fill-34"></path>
                            <path d="M228.446288,30.8653953 C228.446288,34.4369302 225.991033,36.9485581 222.474753,36.9485581 C219.348614,37.0607442 216.78173,34.6607442 216.669544,31.5346047 L216.669544,31.088093 C216.557916,27.7956279 219.181172,25.0607442 222.474753,24.9485581 L222.753823,24.9485581 C225.878847,24.8933023 228.446288,27.4049302 228.50266,30.5299535 C228.50266,30.6421395 228.50266,30.7537674 228.446288,30.8653953 M222.363126,25.8421395 C220.464893,25.8421395 219.069544,27.6276279 219.069544,30.7537674 C219.069544,33.3206512 220.242195,36.1113488 222.753823,36.1113488 C225.265451,36.1113488 226.046288,33.488093 226.046288,31.311907 C226.046288,28.911907 225.041637,25.8421395 222.363126,25.8421395" id="Fill-35"></path>
                            <path d="M231.963014,20.539814 C231.963014,18.8653953 231.963014,18.6973953 231.069433,18.1956279 L230.790363,18.028186 C230.678735,17.860186 230.678735,17.6374884 230.790363,17.4700465 C231.851386,17.1346047 232.856037,16.743907 233.86013,16.2973953 C233.972316,16.2973953 234.083944,16.3537674 234.1392,16.4648372 C234.1392,17.3020465 234.083944,18.7537674 234.083944,19.9816744 L234.083944,29.6927442 C234.083944,30.084 234.083944,30.1392558 234.585712,30.1392558 C235.200223,30.1392558 235.758363,29.8049302 236.5392,29.0229767 L237.711851,27.7956279 C238.492688,26.9584186 238.716502,26.6229767 238.716502,26.5113488 C238.716502,26.4002791 238.604316,26.2886512 238.102549,26.2322791 L237.432781,26.1212093 C237.153712,26.0095814 237.153712,25.5066977 237.432781,25.3950698 L238.102549,25.3950698 C239.608967,25.3950698 241.115944,25.339814 242.623479,25.1723721 C242.846735,25.284 242.846735,25.7305116 242.678735,25.8979535 L241.78627,26.0648372 C241.115944,26.2322791 240.502549,26.5677209 239.999665,27.0694884 C238.883386,27.9630698 237.934549,28.9677209 237.432781,29.4700465 C237.09734,29.8049302 237.042084,29.9165581 237.208967,30.1392558 C237.823479,30.9212093 238.437433,31.7026047 239.1072,32.428186 C240.223479,33.6555349 241.22813,34.771814 241.78627,35.3299535 C242.232223,35.6653953 242.735107,35.888093 243.236874,35.9444651 L243.627572,35.9997209 C243.851386,36.1113488 243.795014,36.6142326 243.572316,36.7253023 C242.735107,36.6694884 241.78627,36.6142326 240.893247,36.6142326 C239.776967,36.6142326 238.771758,36.6142326 237.934549,36.7253023 C237.711851,36.5578605 237.655479,36.2787907 237.823479,36.056093 C237.823479,36.056093 237.823479,35.9997209 237.879293,35.9997209 L238.381619,35.8886512 C238.82813,35.8322791 239.1072,35.7770233 239.1072,35.6095814 C239.1072,35.4415814 238.995572,35.2188837 238.604316,34.828186 L235.590921,31.311907 C235.367665,31.0328372 235.032781,30.9212093 234.69734,30.9212093 C234.195572,30.9212093 234.1392,31.0328372 234.1392,31.8700465 L234.1392,33.4328372 C234.1392,35.4979535 234.195572,35.7770233 235.200223,35.8886512 L235.869991,35.9997209 C236.037433,36.2235349 236.037433,36.5026047 235.813619,36.7258605 C234.864781,36.6694884 234.083944,36.6142326 233.079293,36.6142326 C232.074084,36.6142326 231.181619,36.6142326 230.344409,36.7258605 C230.120595,36.5578605 230.120595,36.2787907 230.288595,36.056093 C230.288595,36.056093 230.288595,35.9997209 230.344409,35.9997209 L230.957805,35.8886512 C232.018828,35.7770233 232.018828,35.4415814 232.018828,33.4328372 L231.963014,20.539814 Z" id="Fill-36"></path>
                            <path d="M249.87907,30.6419163 C250.325581,30.4744744 250.381395,30.2512186 250.381395,29.804707 L250.437209,28.520986 C250.437209,27.4605209 250.102326,26.0651721 248.372093,26.0651721 C247.590698,26.0651721 246.64186,26.4558698 246.586047,27.348893 C246.530233,27.7954047 246.530233,28.1302884 246.306977,28.2977302 C245.804651,28.632614 245.246512,28.8558698 244.688372,28.8558698 C244.465116,28.8558698 244.297674,28.7442419 244.297674,28.520986 L244.297674,28.4651721 C244.297674,27.0140093 247.47907,24.948893 249.6,24.948893 C251.72093,24.948893 252.613953,26.120986 252.55814,28.2977302 L252.390698,33.2651721 C252.334884,34.548893 252.613953,35.720986 253.674419,35.720986 C253.897674,35.720986 254.176744,35.6651721 254.4,35.5535442 C254.567442,35.4419163 254.67907,35.3302884 254.790698,35.3302884 C254.902326,35.3302884 255.013953,35.4977302 255.013953,35.720986 C254.455814,36.5023814 253.562791,36.948893 252.613953,36.948893 C251.888372,36.948893 251.218605,36.6140093 250.772093,36.0558698 C250.660465,35.8878698 250.493023,35.6651721 250.325581,35.6651721 C249.934884,35.7768 249.544186,36.0000558 249.209302,36.2233116 C248.595349,36.6140093 247.925581,36.8930791 247.144186,36.948893 C246.418605,37.004707 245.693023,36.7256372 245.134884,36.2791256 C244.576744,35.7768 244.24186,35.0512186 244.24186,34.2698233 C244.24186,33.1535442 244.8,32.4837767 246.586047,31.8698233 L249.87907,30.6419163 Z M248.093023,35.6651721 C248.706977,35.6093581 249.32093,35.3861023 249.823256,34.9395907 C250.15814,34.604707 250.15814,34.2134512 250.213953,33.6000558 L250.269767,31.9256372 C250.269767,31.5907535 250.15814,31.5349395 249.990698,31.5349395 C249.6,31.5907535 249.209302,31.7023814 248.818605,31.8140093 C247.144186,32.3721488 246.306977,32.8186605 246.306977,33.9349395 C246.306977,34.8837767 247.088372,35.6651721 248.037209,35.6651721 L248.093023,35.6651721 Z" id="Fill-37"></path>
                            <path d="M259.200112,33.3770233 C259.200112,35.4415814 259.255926,35.7206512 260.260019,35.8322791 L260.930344,35.9444651 C261.097228,36.1677209 261.097228,36.4467907 260.87453,36.6694884 C259.925693,36.6142326 259.14374,36.5578605 258.139647,36.5578605 C257.134995,36.5578605 256.241972,36.5578605 255.404763,36.6694884 C255.181507,36.5026047 255.181507,36.1677209 255.348949,35.9997209 L256.018716,35.8886512 C257.079181,35.7206512 257.079181,35.4415814 257.079181,33.4328372 L257.079181,20.5956279 C257.079181,18.9212093 257.079181,18.7537674 256.186158,18.2508837 L255.907088,18.084 C255.794902,17.9165581 255.794902,17.6927442 255.907088,17.5258605 C256.967553,17.1909767 257.972205,16.8002791 258.976856,16.3537674 C259.088484,16.3537674 259.200112,16.4095814 259.255926,16.5212093 C259.255926,17.3584186 259.200112,18.8090233 259.200112,20.0374884 L259.200112,33.3770233 Z" id="Fill-38"></path>
                            <path d="M266.232447,33.3770233 C266.232447,35.4415814 266.288819,35.7206512 267.292912,35.8322791 L267.963237,35.9444651 C268.130121,36.1677209 268.130121,36.4467907 267.906865,36.6694884 C266.958028,36.6142326 266.120819,36.5578605 265.17254,36.5578605 C264.223144,36.5578605 263.274307,36.5578605 262.437098,36.6694884 C262.213842,36.5026047 262.213842,36.1677209 262.381842,35.9997209 L263.051051,35.8886512 C264.111516,35.7206512 264.111516,35.4415814 264.111516,33.4328372 L264.111516,20.5956279 C264.111516,18.9212093 264.111516,18.7537674 263.219051,18.2508837 L262.939981,18.084 C262.827795,17.9165581 262.827795,17.6927442 262.939981,17.5258605 C263.999888,17.1909767 265.00454,16.8002791 266.009749,16.3537674 C266.120819,16.3537674 266.232447,16.4095814 266.288819,16.5212093 C266.288819,17.3584186 266.232447,18.8090233 266.232447,20.0374884 L266.232447,33.3770233 Z" id="Fill-39"></path>
                            <polygon id="Fill-1" points="194.790586 48.5023814 190.883609 48.5023814 190.883609 41.6372651 194.790586 41.6372651 194.790586 42.5861023 191.999888 42.5861023 191.999888 44.4837767 194.623144 44.4837767 194.623144 45.432614 191.999888 45.432614 191.999888 47.5535442 194.790586 47.5535442"></polygon>
                        </g>
                    </g>
                    <path d="M319.898,18 L318.998,18 C318.602,18 318.278,17.676 318.278,17.28 L318.278,6.21 C318.278,5.814 318.602,5.49 318.998,5.49 L321.14,5.49 C321.554,5.49 321.932,5.778 322.04,6.192 L323.228,10.854 C323.48,11.862 323.624,12.726 323.678,13.716 L323.696,13.716 C323.768,12.636 323.894,11.862 324.128,10.854 L325.208,6.192 C325.298,5.778 325.676,5.49 326.09,5.49 L328.43,5.49 C328.826,5.49 329.15,5.814 329.15,6.21 L329.15,17.28 C329.15,17.676 328.826,18 328.43,18 L327.278,18 C326.882,18 326.558,17.676 326.558,17.28 L326.558,12.546 C326.558,10.494 326.666,8.73 326.738,7.83 L326.702,7.83 C326.576,8.838 326.216,10.782 325.838,12.132 L324.974,15.228 C324.848,15.642 324.47,15.93 324.056,15.93 L323.048,15.93 C322.634,15.93 322.238,15.642 322.13,15.246 L321.302,12.312 C320.906,10.872 320.582,8.802 320.438,7.83 L320.42,7.83 C320.492,8.766 320.618,10.836 320.618,12.6 L320.618,17.28 C320.618,17.676 320.294,18 319.898,18 Z M341.192,11.736 C341.192,16.326 339.572,18.234 336.26,18.234 C332.966,18.234 331.292,16.326 331.292,11.772 C331.292,7.218 332.984,5.256 336.26,5.256 C339.536,5.256 341.192,7.2 341.192,11.736 Z M334.208,11.718 C334.208,14.994 334.694,16.056 336.242,16.056 C337.79,16.056 338.276,14.994 338.276,11.718 C338.276,8.478 337.79,7.452 336.242,7.452 C334.694,7.452 334.208,8.478 334.208,11.718 Z M345.062,18 L344.054,18 C343.658,18 343.334,17.676 343.334,17.28 L343.334,6.21 C343.334,5.814 343.658,5.49 344.054,5.49 L345.17,5.49 C345.602,5.49 346.016,5.76 346.196,6.138 L348.482,11.034 C348.914,11.934 349.31,13.086 349.562,13.932 L349.58,13.932 C349.49,13.158 349.328,11.736 349.328,10.602 L349.328,6.21 C349.328,5.814 349.652,5.49 350.048,5.49 L351.038,5.49 C351.434,5.49 351.758,5.814 351.758,6.21 L351.758,17.28 C351.758,17.676 351.434,18 351.038,18 L349.778,18 C349.364,18 348.968,17.766 348.788,17.37 L346.646,12.618 C346.124,11.466 345.764,10.458 345.494,9.63 L345.476,9.63 C345.548,10.242 345.782,11.736 345.782,13.284 L345.782,17.28 C345.782,17.676 345.458,18 345.062,18 Z M358.274,18 L357.05,18 C356.654,18 356.33,17.676 356.33,17.28 L356.33,7.794 L354.35,7.794 C353.954,7.794 353.63,7.47 353.63,7.074 L353.63,6.21 C353.63,5.814 353.954,5.49 354.35,5.49 L360.974,5.49 C361.37,5.49 361.694,5.814 361.694,6.21 L361.694,7.074 C361.694,7.47 361.37,7.794 360.974,7.794 L358.994,7.794 L358.994,17.28 C358.994,17.676 358.67,18 358.274,18 Z M365.528,18 L364.268,18 C363.872,18 363.548,17.676 363.548,17.28 L363.548,6.21 C363.548,5.814 363.872,5.49 364.268,5.49 L365.528,5.49 C365.924,5.49 366.248,5.814 366.248,6.21 L366.248,10.242 L369.236,10.242 L369.236,6.21 C369.236,5.814 369.56,5.49 369.956,5.49 L371.216,5.49 C371.612,5.49 371.936,5.814 371.936,6.21 L371.936,17.28 C371.936,17.676 371.612,18 371.216,18 L369.956,18 C369.56,18 369.236,17.676 369.236,17.28 L369.236,12.546 L366.248,12.546 L366.248,17.28 C366.248,17.676 365.924,18 365.528,18 Z M380.27,18 L375.212,18 C374.816,18 374.492,17.676 374.492,17.28 L374.492,6.21 C374.492,5.814 374.816,5.49 375.212,5.49 L376.436,5.49 C376.832,5.49 377.156,5.814 377.156,6.21 L377.156,15.696 L380.27,15.696 C380.666,15.696 380.99,16.02 380.99,16.416 L380.99,17.28 C380.99,17.676 380.666,18 380.27,18 Z M387.272,18 L386.012,18 C385.616,18 385.292,17.676 385.292,17.28 L385.292,12.69 L382.268,6.138 C382.124,5.832 382.34,5.49 382.682,5.49 L384.212,5.49 C384.644,5.49 385.04,5.76 385.202,6.156 L386.066,8.262 C386.39,9.09 386.588,9.702 386.732,10.476 C386.912,9.702 387.074,9.054 387.38,8.316 L388.28,6.156 C388.442,5.76 388.838,5.49 389.27,5.49 L390.692,5.49 C391.034,5.49 391.25,5.832 391.106,6.138 L387.992,12.636 L387.992,17.28 C387.992,17.676 387.668,18 387.272,18 Z M322.31,42 L318.584,42 C318.188,42 317.864,41.676 317.864,41.28 L317.864,41.244 C317.864,40.83 318.152,40.452 318.566,40.362 L319.07,40.254 L319.07,31.254 L318.566,31.146 C318.152,31.056 317.864,30.678 317.864,30.264 L317.864,30.21 C317.864,29.814 318.188,29.49 318.584,29.49 L322.31,29.49 C322.706,29.49 323.03,29.814 323.03,30.21 L323.03,30.264 C323.03,30.678 322.742,31.056 322.328,31.146 L321.824,31.254 L321.824,40.254 L322.328,40.362 C322.742,40.452 323.03,40.83 323.03,41.244 L323.03,41.28 C323.03,41.676 322.706,42 322.31,42 Z M326.9,42 L325.892,42 C325.496,42 325.172,41.676 325.172,41.28 L325.172,30.21 C325.172,29.814 325.496,29.49 325.892,29.49 L327.008,29.49 C327.44,29.49 327.854,29.76 328.034,30.138 L330.32,35.034 C330.752,35.934 331.148,37.086 331.4,37.932 L331.418,37.932 C331.328,37.158 331.166,35.736 331.166,34.602 L331.166,30.21 C331.166,29.814 331.49,29.49 331.886,29.49 L332.876,29.49 C333.272,29.49 333.596,29.814 333.596,30.21 L333.596,41.28 C333.596,41.676 333.272,42 332.876,42 L331.616,42 C331.202,42 330.806,41.766 330.626,41.37 L328.484,36.618 C327.962,35.466 327.602,34.458 327.332,33.63 L327.314,33.63 C327.386,34.242 327.62,35.736 327.62,37.284 L327.62,41.28 C327.62,41.676 327.296,42 326.9,42 Z M340.58,42 L339.608,42 C339.194,42 338.798,41.712 338.69,41.316 L335.396,30.174 C335.306,29.832 335.558,29.49 335.918,29.49 L337.376,29.49 C337.79,29.49 338.168,29.778 338.276,30.192 L339.608,35.628 C339.842,36.546 339.968,37.086 340.112,38.112 L340.13,38.112 C340.31,37.086 340.418,36.582 340.67,35.646 L342.146,30.192 C342.254,29.778 342.632,29.49 343.046,29.49 L344.396,29.49 C344.756,29.49 345.008,29.832 344.9,30.174 L341.516,41.316 C341.39,41.712 340.994,42 340.58,42 Z M352.964,42 L347.402,42 C347.006,42 346.682,41.676 346.682,41.28 L346.682,30.21 C346.682,29.814 347.006,29.49 347.402,29.49 L352.658,29.49 C353.054,29.49 353.378,29.814 353.378,30.21 L353.378,31.056 C353.378,31.452 353.054,31.776 352.658,31.776 L349.382,31.776 L349.382,34.386 L351.848,34.386 C352.244,34.386 352.568,34.71 352.568,35.106 L352.568,35.88 C352.568,36.276 352.244,36.6 351.848,36.6 L349.382,36.6 L349.382,39.696 L352.964,39.696 C353.36,39.696 353.684,40.02 353.684,40.416 L353.684,41.28 C353.684,41.676 353.36,42 352.964,42 Z M363.296,38.256 C363.296,40.632 362.18,42.234 358.922,42.234 C357.608,42.234 356.384,41.91 355.52,41.46 C355.16,41.28 354.998,40.848 355.16,40.47 L355.502,39.696 C355.664,39.336 356.078,39.192 356.42,39.372 C357.122,39.75 357.878,39.948 358.67,39.948 C359.93,39.948 360.47,39.39 360.47,38.472 C360.47,37.482 359.948,37.212 358.796,36.852 C356.726,36.204 355.412,35.412 355.412,32.928 C355.412,30.39 357.032,29.256 359.372,29.256 C360.542,29.256 361.37,29.436 362.126,29.778 C362.468,29.94 362.63,30.372 362.468,30.732 L362.126,31.434 C361.964,31.794 361.532,31.956 361.172,31.794 C360.686,31.596 360.218,31.524 359.588,31.524 C358.652,31.524 358.148,31.938 358.148,32.712 C358.148,33.558 358.436,33.864 359.57,34.224 C361.586,34.836 363.296,35.502 363.296,38.256 Z M369.326,42 L368.102,42 C367.706,42 367.382,41.676 367.382,41.28 L367.382,31.794 L365.402,31.794 C365.006,31.794 364.682,31.47 364.682,31.074 L364.682,30.21 C364.682,29.814 365.006,29.49 365.402,29.49 L372.026,29.49 C372.422,29.49 372.746,29.814 372.746,30.21 L372.746,31.074 C372.746,31.47 372.422,31.794 372.026,31.794 L370.046,31.794 L370.046,41.28 C370.046,41.676 369.722,42 369.326,42 Z M376.22,42 L375.32,42 C374.924,42 374.6,41.676 374.6,41.28 L374.6,30.21 C374.6,29.814 374.924,29.49 375.32,29.49 L377.462,29.49 C377.876,29.49 378.254,29.778 378.362,30.192 L379.55,34.854 C379.802,35.862 379.946,36.726 380,37.716 L380.018,37.716 C380.09,36.636 380.216,35.862 380.45,34.854 L381.53,30.192 C381.62,29.778 381.998,29.49 382.412,29.49 L384.752,29.49 C385.148,29.49 385.472,29.814 385.472,30.21 L385.472,41.28 C385.472,41.676 385.148,42 384.752,42 L383.6,42 C383.204,42 382.88,41.676 382.88,41.28 L382.88,36.546 C382.88,34.494 382.988,32.73 383.06,31.83 L383.024,31.83 C382.898,32.838 382.538,34.782 382.16,36.132 L381.296,39.228 C381.17,39.642 380.792,39.93 380.378,39.93 L379.37,39.93 C378.956,39.93 378.56,39.642 378.452,39.246 L377.624,36.312 C377.228,34.872 376.904,32.802 376.76,31.83 L376.742,31.83 C376.814,32.766 376.94,34.836 376.94,36.6 L376.94,41.28 C376.94,41.676 376.616,42 376.22,42 Z M394.31,42 L388.748,42 C388.352,42 388.028,41.676 388.028,41.28 L388.028,30.21 C388.028,29.814 388.352,29.49 388.748,29.49 L394.004,29.49 C394.4,29.49 394.724,29.814 394.724,30.21 L394.724,31.056 C394.724,31.452 394.4,31.776 394.004,31.776 L390.728,31.776 L390.728,34.386 L393.194,34.386 C393.59,34.386 393.914,34.71 393.914,35.106 L393.914,35.88 C393.914,36.276 393.59,36.6 393.194,36.6 L390.728,36.6 L390.728,39.696 L394.31,39.696 C394.706,39.696 395.03,40.02 395.03,40.416 L395.03,41.28 C395.03,41.676 394.706,42 394.31,42 Z M398.666,42 L397.658,42 C397.262,42 396.938,41.676 396.938,41.28 L396.938,30.21 C396.938,29.814 397.262,29.49 397.658,29.49 L398.774,29.49 C399.206,29.49 399.62,29.76 399.8,30.138 L402.086,35.034 C402.518,35.934 402.914,37.086 403.166,37.932 L403.184,37.932 C403.094,37.158 402.932,35.736 402.932,34.602 L402.932,30.21 C402.932,29.814 403.256,29.49 403.652,29.49 L404.642,29.49 C405.038,29.49 405.362,29.814 405.362,30.21 L405.362,41.28 C405.362,41.676 405.038,42 404.642,42 L403.382,42 C402.968,42 402.572,41.766 402.392,41.37 L400.25,36.618 C399.728,35.466 399.368,34.458 399.098,33.63 L399.08,33.63 C399.152,34.242 399.386,35.736 399.386,37.284 L399.386,41.28 C399.386,41.676 399.062,42 398.666,42 Z M411.878,42 L410.654,42 C410.258,42 409.934,41.676 409.934,41.28 L409.934,31.794 L407.954,31.794 C407.558,31.794 407.234,31.47 407.234,31.074 L407.234,30.21 C407.234,29.814 407.558,29.49 407.954,29.49 L414.578,29.49 C414.974,29.49 415.298,29.814 415.298,30.21 L415.298,31.074 C415.298,31.47 414.974,31.794 414.578,31.794 L412.598,31.794 L412.598,41.28 C412.598,41.676 412.274,42 411.878,42 Z M319.322,66 L318.008,66 C317.648,66 317.378,65.658 317.486,65.316 L320.654,54.174 C320.762,53.778 321.158,53.49 321.572,53.49 L322.922,53.49 C323.336,53.49 323.714,53.778 323.822,54.192 L326.846,65.298 C326.936,65.658 326.666,66 326.306,66 L324.884,66 C324.47,66 324.092,65.712 324.002,65.298 L323.588,63.462 L320.654,63.462 L320.204,65.298 C320.114,65.712 319.736,66 319.322,66 Z M322.166,56.712 C322.076,57.396 321.968,58.206 321.68,59.322 L321.158,61.428 L323.12,61.428 L322.634,59.322 C322.364,58.206 322.256,57.342 322.184,56.712 L322.166,56.712 Z M336.008,65.478 C335.324,65.928 334.46,66.234 333.2,66.234 C329.762,66.234 328.178,64.29 328.178,59.772 C328.178,54.93 329.96,53.256 333.146,53.256 C334.208,53.256 335.108,53.472 335.774,53.832 C336.116,54.012 336.26,54.444 336.08,54.786 L335.666,55.578 C335.486,55.92 335.054,56.064 334.712,55.884 C334.28,55.668 333.812,55.542 333.29,55.542 C331.544,55.542 331.148,56.334 331.148,59.61 C331.148,63.102 331.778,63.948 333.308,63.948 C333.92,63.948 334.424,63.786 334.838,63.516 C335.162,63.318 335.612,63.426 335.81,63.75 L336.224,64.452 C336.44,64.794 336.332,65.244 336.008,65.478 Z M345.728,65.478 C345.044,65.928 344.18,66.234 342.92,66.234 C339.482,66.234 337.898,64.29 337.898,59.772 C337.898,54.93 339.68,53.256 342.866,53.256 C343.928,53.256 344.828,53.472 345.494,53.832 C345.836,54.012 345.98,54.444 345.8,54.786 L345.386,55.578 C345.206,55.92 344.774,56.064 344.432,55.884 C344,55.668 343.532,55.542 343.01,55.542 C341.264,55.542 340.868,56.334 340.868,59.61 C340.868,63.102 341.498,63.948 343.028,63.948 C343.64,63.948 344.144,63.786 344.558,63.516 C344.882,63.318 345.332,63.426 345.53,63.75 L345.944,64.452 C346.16,64.794 346.052,65.244 345.728,65.478 Z M357.518,59.736 C357.518,64.326 355.898,66.234 352.586,66.234 C349.292,66.234 347.618,64.326 347.618,59.772 C347.618,55.218 349.31,53.256 352.586,53.256 C355.862,53.256 357.518,55.2 357.518,59.736 Z M350.534,59.718 C350.534,62.994 351.02,64.056 352.568,64.056 C354.116,64.056 354.602,62.994 354.602,59.718 C354.602,56.478 354.116,55.452 352.568,55.452 C351.02,55.452 350.534,56.478 350.534,59.718 Z M365.798,65.136 C365.222,65.748 364.43,66.234 363.116,66.234 C360.92,66.234 359.552,65.028 359.552,61.878 L359.552,54.21 C359.552,53.814 359.876,53.49 360.272,53.49 L361.532,53.49 C361.928,53.49 362.252,53.814 362.252,54.21 L362.252,62.202 C362.252,63.372 362.468,63.93 363.638,63.93 C364.43,63.93 365.006,63.66 365.366,63.354 L365.366,54.21 C365.366,53.814 365.69,53.49 366.086,53.49 L367.346,53.49 C367.742,53.49 368.066,53.814 368.066,54.21 L368.066,65.28 C368.066,65.676 367.742,66 367.346,66 L366.86,66 C366.428,66 366.032,65.73 365.87,65.334 L365.798,65.136 Z M372.368,66 L371.36,66 C370.964,66 370.64,65.676 370.64,65.28 L370.64,54.21 C370.64,53.814 370.964,53.49 371.36,53.49 L372.476,53.49 C372.908,53.49 373.322,53.76 373.502,54.138 L375.788,59.034 C376.22,59.934 376.616,61.086 376.868,61.932 L376.886,61.932 C376.796,61.158 376.634,59.736 376.634,58.602 L376.634,54.21 C376.634,53.814 376.958,53.49 377.354,53.49 L378.344,53.49 C378.74,53.49 379.064,53.814 379.064,54.21 L379.064,65.28 C379.064,65.676 378.74,66 378.344,66 L377.084,66 C376.67,66 376.274,65.766 376.094,65.37 L373.952,60.618 C373.43,59.466 373.07,58.458 372.8,57.63 L372.782,57.63 C372.854,58.242 373.088,59.736 373.088,61.284 L373.088,65.28 C373.088,65.676 372.764,66 372.368,66 Z M385.58,66 L384.356,66 C383.96,66 383.636,65.676 383.636,65.28 L383.636,55.794 L381.656,55.794 C381.26,55.794 380.936,55.47 380.936,55.074 L380.936,54.21 C380.936,53.814 381.26,53.49 381.656,53.49 L388.28,53.49 C388.676,53.49 389,53.814 389,54.21 L389,55.074 C389,55.47 388.676,55.794 388.28,55.794 L386.3,55.794 L386.3,65.28 C386.3,65.676 385.976,66 385.58,66 Z" id="MONTHLY-INVESTMENT-A"></path>
                    <rect id="Rectangle" x="293" y="0" width="2" height="72" rx="1"></rect>
                </g>
            </g>
        </g>
    </g>
</svg>