<svg xmlns="http://www.w3.org/2000/svg" xmlns:xlink="http://www.w3.org/1999/xlink" viewBox="0 0 743.69 706.4"><defs><style>.cls-1{fill:url(#linear-gradient);}.cls-2{fill:url(#radial-gradient);}.cls-3{fill:url(#radial-gradient-2);}.cls-4{fill:url(#radial-gradient-3);}.cls-5{fill:url(#radial-gradient-4);}.cls-6{fill:url(#radial-gradient-5);}.cls-7{fill:url(#radial-gradient-6);}.cls-8{fill:url(#radial-gradient-7);}.cls-9{fill:url(#radial-gradient-8);}.cls-10{fill:url(#radial-gradient-9);}.cls-11{fill:url(#radial-gradient-10);}.cls-12{fill:url(#radial-gradient-11);}.cls-13{fill:url(#radial-gradient-12);}.cls-14{isolation:isolate;}.cls-15{fill:#4d7399;opacity:0.5;}.cls-16{fill:url(#linear-gradient-2);}.cls-17{fill:url(#radial-gradient-13);}.cls-18{mask:url(#mask);}.cls-19{fill:#ffe278;mix-blend-mode:screen;}.cls-20{mask:url(#mask-2);}.cls-21{opacity:0.1;}.cls-21,.cls-25,.cls-36{mix-blend-mode:multiply;}.cls-22{fill:url(#linear-gradient-3);}.cls-23{mask:url(#mask-3);}.cls-24{mask:url(#mask-4);}.cls-25{opacity:0.2;}.cls-26{mask:url(#mask-5);}.cls-27{mask:url(#mask-6);}.cls-28{mask:url(#mask-7);}.cls-29{mask:url(#mask-8);}.cls-30{mask:url(#mask-9);}.cls-31{fill:url(#linear-gradient-4);}.cls-32{fill:url(#linear-gradient-5);}.cls-33{fill:url(#linear-gradient-6);}.cls-34{fill:url(#linear-gradient-7);}.cls-35{mask:url(#mask-10);}.cls-36{fill:#194f19;}.cls-37{fill:url(#linear-gradient-8);}.cls-38{mask:url(#mask-11);}.cls-39{fill:url(#linear-gradient-9);}.cls-40{fill:url(#linear-gradient-10);}.cls-41{opacity:0.75;fill:url(#linear-gradient-11);}.cls-41,.cls-45,.cls-59,.cls-68,.cls-69{mix-blend-mode:lighten;}.cls-42{mask:url(#mask-12);}.cls-43{fill:url(#linear-gradient-12);}.cls-44{fill:url(#linear-gradient-13);}.cls-45,.cls-59,.cls-68,.cls-69{opacity:0.9;}.cls-45{fill:url(#linear-gradient-14);}.cls-46{fill:url(#linear-gradient-15);}.cls-47{fill:url(#linear-gradient-16);}.cls-48{fill:url(#linear-gradient-17);}.cls-49{fill:#e1e2e0;}.cls-50{fill:url(#linear-gradient-18);}.cls-51{fill:url(#linear-gradient-19);}.cls-52{fill:url(#linear-gradient-20);}.cls-53{fill:#fafbf9;}.cls-54{fill:url(#linear-gradient-21);}.cls-55{fill:url(#linear-gradient-22);}.cls-56{fill:url(#linear-gradient-23);}.cls-57{fill:url(#linear-gradient-24);}.cls-58{fill:url(#linear-gradient-25);}.cls-59{fill:url(#linear-gradient-26);}.cls-60{fill:#c2e399;}.cls-61{fill:url(#linear-gradient-27);}.cls-62{fill:url(#linear-gradient-28);}.cls-63{fill:url(#linear-gradient-29);}.cls-64{mask:url(#mask-13);}.cls-65{fill:url(#linear-gradient-30);}.cls-66{fill:url(#linear-gradient-31);}.cls-67{fill:url(#linear-gradient-32);}.cls-68{fill:url(#linear-gradient-33);}.cls-69{fill:url(#linear-gradient-34);}</style><linearGradient id="linear-gradient" x1="371.94" y1="582.85" x2="371.94" y2="644.59" gradientUnits="userSpaceOnUse"><stop offset="0" stop-color="#fff"/><stop offset="0.16" stop-color="#c6c5c5"/><stop offset="0.31" stop-color="#949293"/><stop offset="0.46" stop-color="#6b6969"/><stop offset="0.61" stop-color="#4c4949"/><stop offset="0.75" stop-color="#353233"/><stop offset="0.88" stop-color="#282425"/><stop offset="1" stop-color="#231f20"/></linearGradient><radialGradient id="radial-gradient" cx="264.6" cy="66.91" r="105.7" gradientTransform="translate(34.85 625.77) scale(0.78 0.22)" gradientUnits="userSpaceOnUse"><stop offset="0" stop-color="#fff"/><stop offset="0.14" stop-color="#c8c8c8"/><stop offset="0.32" stop-color="#8c8c8c"/><stop offset="0.48" stop-color="#5a5a5a"/><stop offset="0.64" stop-color="#333"/><stop offset="0.78" stop-color="#171717"/><stop offset="0.91" stop-color="#060606"/><stop offset="1"/></radialGradient><radialGradient id="radial-gradient-2" cx="485.6" cy="327.22" r="132.11" gradientTransform="translate(373.61 -247.53) rotate(45)" xlink:href="#radial-gradient"/><radialGradient id="radial-gradient-3" cx="400.52" cy="133" r="132.11" gradientTransform="matrix(1, 0, 0, 1, 0, 0)" xlink:href="#radial-gradient"/><radialGradient id="radial-gradient-4" cx="324.23" cy="326.01" r="106.63" gradientTransform="matrix(1, 0, 0, 1, 0, 0)" xlink:href="#radial-gradient"/><radialGradient id="radial-gradient-5" cx="119.84" cy="78.46" r="105.7" xlink:href="#radial-gradient"/><radialGradient id="radial-gradient-6" cx="435.23" cy="-5.04" r="185.29" xlink:href="#radial-gradient"/><radialGradient id="radial-gradient-7" cx="601.95" cy="59.12" r="105.7" xlink:href="#radial-gradient"/><radialGradient id="radial-gradient-8" cx="721.78" cy="39.78" r="105.7" xlink:href="#radial-gradient"/><radialGradient id="radial-gradient-9" cx="467.05" cy="42.6" r="38.44" xlink:href="#radial-gradient"/><radialGradient id="radial-gradient-10" cx="364.47" cy="14.2" r="38.44" xlink:href="#radial-gradient"/><radialGradient id="radial-gradient-11" cx="532.57" cy="88.07" r="38.44" xlink:href="#radial-gradient"/><radialGradient id="radial-gradient-12" cx="250.31" cy="280.45" r="132.11" gradientTransform="translate(271.63 -94.86) rotate(45)" xlink:href="#radial-gradient"/><linearGradient id="linear-gradient-2" x1="371.84" y1="711.1" x2="371.84" y2="658.56" gradientUnits="userSpaceOnUse"><stop offset="0" stop-color="#d9945b"/><stop offset="1" stop-color="#c4825d"/></linearGradient><radialGradient id="radial-gradient-13" cx="371.94" cy="47693.07" r="264.58" gradientTransform="translate(0 -6537.05) scale(1 0.15)" gradientUnits="userSpaceOnUse"><stop offset="0" stop-color="#e3ad72"/><stop offset="0.38" stop-color="#e5b075"/><stop offset="0.66" stop-color="#eab97e"/><stop offset="0.9" stop-color="#f2c98c"/><stop offset="1" stop-color="#f7d295"/></radialGradient><mask id="mask" x="0.75" y="583.76" width="742.38" height="94.92" maskUnits="userSpaceOnUse"><ellipse class="cls-1" cx="371.94" cy="631.22" rx="371.19" ry="47.46"/></mask><mask id="mask-2" x="158.36" y="617.08" width="164.34" height="47.35" maskUnits="userSpaceOnUse"><ellipse class="cls-2" cx="240.53" cy="640.76" rx="82.17" ry="23.67"/></mask><linearGradient id="linear-gradient-3" x1="479.1" y1="412.99" x2="417.99" y2="271.86" gradientUnits="userSpaceOnUse"><stop offset="0" stop-color="#71a233"/><stop offset="1" stop-color="#4d8b00"/></linearGradient><mask id="mask-3" x="45.83" y="619.67" width="164.34" height="47.35" maskUnits="userSpaceOnUse"><ellipse class="cls-6" cx="128" cy="643.34" rx="82.17" ry="23.67"/></mask><mask id="mask-4" x="229.11" y="583.14" width="288.08" height="83" maskUnits="userSpaceOnUse"><ellipse class="cls-7" cx="373.15" cy="624.64" rx="144.04" ry="41.5"/></mask><mask id="mask-5" x="420.57" y="615.34" width="164.34" height="47.35" maskUnits="userSpaceOnUse"><ellipse class="cls-8" cx="502.74" cy="639.01" rx="82.17" ry="23.67"/></mask><mask id="mask-6" x="513.72" y="611.01" width="164.34" height="47.35" maskUnits="userSpaceOnUse"><ellipse class="cls-9" cx="595.89" cy="634.68" rx="82.17" ry="23.67"/></mask><mask id="mask-7" x="368.01" y="626.7" width="59.77" height="17.22" maskUnits="userSpaceOnUse"><path class="cls-10" d="M427.78,635.31c0,4.76-13.38,8.61-29.89,8.61S368,640.07,368,635.31s13.38-8.61,29.88-8.61S427.78,630.55,427.78,635.31Z"/></mask><mask id="mask-8" x="288.27" y="620.34" width="59.77" height="17.22" maskUnits="userSpaceOnUse"><path class="cls-11" d="M348,629c0,4.75-13.38,8.61-29.89,8.61s-29.88-3.86-29.88-8.61,13.38-8.61,29.88-8.61S348,624.19,348,629Z"/></mask><mask id="mask-9" x="418.93" y="636.89" width="59.77" height="17.22" maskUnits="userSpaceOnUse"><path class="cls-12" d="M478.71,645.5c0,4.75-13.38,8.61-29.89,8.61s-29.89-3.86-29.89-8.61,13.38-8.61,29.89-8.61S478.71,640.74,478.71,645.5Z"/></mask><linearGradient id="linear-gradient-4" x1="450.88" y1="58.63" x2="474.48" y2="130.74" gradientUnits="userSpaceOnUse"><stop offset="0" stop-color="#93c266"/><stop offset="1" stop-color="#84b65e"/></linearGradient><linearGradient id="linear-gradient-5" x1="490.01" y1="153.95" x2="436.17" y2="75.38" xlink:href="#linear-gradient-3"/><linearGradient id="linear-gradient-6" x1="247.3" y1="176.77" x2="270.1" y2="256.8" xlink:href="#linear-gradient-4"/><linearGradient id="linear-gradient-7" x1="281.11" y1="369.98" x2="275.29" y2="269.58" gradientTransform="translate(273.99 -114.75) rotate(45)" xlink:href="#linear-gradient-3"/><mask id="mask-10" x="118.2" y="137.4" width="293.42" height="275.16" maskUnits="userSpaceOnUse"><circle class="cls-13" cx="250.31" cy="280.45" r="132.11" transform="translate(-125 259.14) rotate(-45)"/></mask><linearGradient id="linear-gradient-8" x1="388.66" y1="421.23" x2="469.76" y2="421.23" gradientUnits="userSpaceOnUse"><stop offset="0" stop-color="#b79b7a"/><stop offset="1" stop-color="#93816c"/></linearGradient><mask id="mask-11" x="320.03" y="195.11" width="297.68" height="273.71" maskUnits="userSpaceOnUse"><circle class="cls-3" cx="485.6" cy="327.22" r="132.11" transform="translate(-89.15 439.21) rotate(-45)"/></mask><linearGradient id="linear-gradient-9" x1="208.25" y1="67.88" x2="265.97" y2="193.01" gradientTransform="translate(204.69 -131.16) rotate(45)" gradientUnits="userSpaceOnUse"><stop offset="0" stop-color="#abde75"/><stop offset="1" stop-color="#98c96d"/></linearGradient><linearGradient id="linear-gradient-10" x1="256.81" y1="175.96" x2="170.61" y2="59.79" gradientUnits="userSpaceOnUse"><stop offset="0" stop-color="#82ae4c"/><stop offset="1" stop-color="#71a233"/></linearGradient><linearGradient id="linear-gradient-11" x1="292.04" y1="204.18" x2="199.98" y2="73.76" gradientTransform="matrix(1, -0.07, 0.07, 1, -0.16, 60.69)" gradientUnits="userSpaceOnUse"><stop offset="0" stop-color="#fff"/><stop offset="1" stop-color="#ebebeb"/></linearGradient><mask id="mask-12" x="135.94" y="0.89" width="420.36" height="307.27" maskUnits="userSpaceOnUse"><circle class="cls-4" cx="400.52" cy="133" r="132.11"/></mask><linearGradient id="linear-gradient-12" x1="330.56" y1="4.65" x2="404.28" y2="159.22" gradientTransform="matrix(1, 0, 0, 1, 0, 0)" xlink:href="#linear-gradient-9"/><linearGradient id="linear-gradient-13" x1="401.52" y1="140.12" x2="315.83" y2="-1.23" gradientTransform="translate(176.7 -236.74) rotate(45)" xlink:href="#linear-gradient-10"/><linearGradient id="linear-gradient-14" x1="395.18" y1="96.68" x2="326.01" y2="-1.31" gradientTransform="translate(12.64 31.83) rotate(2.7)" xlink:href="#linear-gradient-11"/><linearGradient id="linear-gradient-15" x1="254.9" y1="351.35" x2="338.65" y2="351.35" xlink:href="#linear-gradient-8"/><linearGradient id="linear-gradient-16" x1="306.31" y1="463.04" x2="346.41" y2="473.71" xlink:href="#linear-gradient-8"/><linearGradient id="linear-gradient-17" x1="433.08" y1="598.86" x2="353.18" y2="407.47" gradientUnits="userSpaceOnUse"><stop offset="0" stop-color="#876d50"/><stop offset="1" stop-color="#6d5b46"/></linearGradient><linearGradient id="linear-gradient-18" x1="553.36" y1="351.36" x2="583.32" y2="403.35" gradientUnits="userSpaceOnUse"><stop offset="0" stop-color="#bebfbd"/><stop offset="0.21" stop-color="#d7d8d6"/><stop offset="0.34" stop-color="#e1e2e0"/><stop offset="1" stop-color="#bebfbd"/></linearGradient><linearGradient id="linear-gradient-19" x1="427.67" y1="137.45" x2="481.99" y2="304.3" gradientUnits="userSpaceOnUse"><stop offset="0" stop-color="#c4fe83"/><stop offset="1" stop-color="#ace172"/></linearGradient><linearGradient id="linear-gradient-20" x1="504.56" y1="347.77" x2="417.78" y2="140.42" gradientTransform="translate(324.43 -254.66) rotate(45)" gradientUnits="userSpaceOnUse"><stop offset="0" stop-color="#76c019"/><stop offset="1" stop-color="#a4d566"/></linearGradient><linearGradient id="linear-gradient-21" x1="618.49" y1="629.76" x2="588.42" y2="531.9" gradientUnits="userSpaceOnUse"><stop offset="0" stop-color="#e1e2e0"/><stop offset="1" stop-color="#bebfbd"/></linearGradient><linearGradient id="linear-gradient-22" x1="228.98" y1="755.39" x2="281.36" y2="730.16" gradientTransform="matrix(-0.12, -0.99, 0.99, -0.12, -544.86, 827.48)" xlink:href="#linear-gradient-21"/><linearGradient id="linear-gradient-23" x1="103.02" y1="595.71" x2="116.44" y2="541.06" xlink:href="#linear-gradient-21"/><linearGradient id="linear-gradient-24" x1="214.42" y1="476.69" x2="232.85" y2="533.2" xlink:href="#linear-gradient-19"/><linearGradient id="linear-gradient-25" x1="264.46" y1="597.91" x2="216.62" y2="502.22" gradientTransform="matrix(1, 0, 0, 1, 0, 0)" xlink:href="#linear-gradient-20"/><linearGradient id="linear-gradient-26" x1="212.43" y1="511.7" x2="165.91" y2="445.79" gradientTransform="translate(150.3 32.37) rotate(12.07)" xlink:href="#linear-gradient-11"/><linearGradient id="linear-gradient-27" x1="468.25" y1="643.93" x2="424.13" y2="581.43" gradientTransform="matrix(1, 0, 0, 1, 0, 0)" xlink:href="#linear-gradient-20"/><linearGradient id="linear-gradient-28" x1="333.7" y1="627.13" x2="301.93" y2="582.12" gradientTransform="matrix(1, 0, 0, 1, 0, 0)" xlink:href="#linear-gradient-20"/><linearGradient id="linear-gradient-29" x1="503.44" y1="628.87" x2="499.4" y2="543.29" xlink:href="#linear-gradient-21"/><mask id="mask-13" x="217.6" y="219.38" width="213.26" height="213.26" maskUnits="userSpaceOnUse"><circle class="cls-5" cx="324.23" cy="326.01" r="106.63"/></mask><linearGradient id="linear-gradient-30" x1="259.37" y1="226.41" x2="285.32" y2="270.07" xlink:href="#linear-gradient-19"/><linearGradient id="linear-gradient-31" x1="331.46" y1="339.27" x2="248.03" y2="218.98" gradientTransform="matrix(1, 0, 0, 1, 0, 0)" xlink:href="#linear-gradient-20"/><linearGradient id="linear-gradient-32" x1="413.69" y1="633.05" x2="378.89" y2="583.76" gradientTransform="matrix(1, 0, 0, 1, 0, 0)" xlink:href="#linear-gradient-20"/><linearGradient id="linear-gradient-33" x1="494.85" y1="293.67" x2="407.06" y2="169.31" gradientTransform="translate(-18.68 119.7) rotate(-10.78)" xlink:href="#linear-gradient-11"/><linearGradient id="linear-gradient-34" x1="293.48" y1="273.47" x2="241.86" y2="200.35" gradientTransform="translate(7.71 80.4) rotate(-4.99)" xlink:href="#linear-gradient-11"/></defs><title>tree-money</title><g class="cls-14"><g id="Layer_2" data-name="Layer 2"><g id="Objects"><path class="cls-15" d="M743.34,633.88c0-.32,0-.66-.06-1-.11-2-694.73-5.39-742.53-1.92-.28,3.3-.5,7.17-.51,7.29-.1,1.5-.18,3.08-.24,4.71a27.38,27.38,0,0,0,1.47,9c12,30.39,173.27,54.45,370.47,54.45,205,0,371.19-26,371.19-58.09a4.35,4.35,0,0,1,.56-1.93c0-3.88-.14-7.94-.34-12.17C743.35,634.1,743.35,634,743.34,633.88Z"/><path class="cls-16" d="M743.34,633.59c0-.3,0-.62-.06-.92-.11-1.92-694.73-5-742.53-1.8-.28,3.09-.5,6.71-.51,6.82-.1,1.4-.18,2.88-.24,4.4a24.11,24.11,0,0,0,1.47,8.4c12,28.42,173.27,50.92,370.47,50.92,205,0,371.19-24.32,371.19-54.32a3.89,3.89,0,0,1,.56-1.81c0-3.62-.14-7.42-.34-11.38C743.35,633.8,743.35,633.69,743.34,633.59Z"/><ellipse class="cls-17" cx="371.94" cy="631.22" rx="371.19" ry="47.46"/><g class="cls-18"><ellipse class="cls-19" cx="371.94" cy="631.22" rx="371.19" ry="47.46"/></g><g class="cls-20"><ellipse class="cls-21" cx="240.53" cy="640.76" rx="82.17" ry="23.67"/></g><circle class="cls-22" cx="436.2" cy="313.91" r="116.17"/><g class="cls-23"><ellipse class="cls-21" cx="128" cy="643.34" rx="82.17" ry="23.67"/></g><g class="cls-24"><ellipse class="cls-25" cx="373.15" cy="624.64" rx="144.04" ry="41.5"/></g><g class="cls-26"><ellipse class="cls-21" cx="502.74" cy="639.01" rx="82.17" ry="23.67"/></g><g class="cls-27"><ellipse class="cls-21" cx="595.89" cy="634.68" rx="82.17" ry="23.67"/></g><g class="cls-28"><path class="cls-25" d="M427.78,635.31c0,4.76-13.38,8.61-29.89,8.61S368,640.07,368,635.31s13.38-8.61,29.88-8.61S427.78,630.55,427.78,635.31Z"/></g><g class="cls-29"><path class="cls-25" d="M348,629c0,4.75-13.38,8.61-29.89,8.61s-29.88-3.86-29.88-8.61,13.38-8.61,29.88-8.61S348,624.19,348,629Z"/></g><g class="cls-30"><path class="cls-25" d="M478.71,645.5c0,4.75-13.38,8.61-29.89,8.61s-29.89-3.86-29.89-8.61,13.38-8.61,29.89-8.61S478.71,640.74,478.71,645.5Z"/></g><circle class="cls-31" cx="475.11" cy="132.65" r="80.22"/><circle class="cls-32" cx="476.08" cy="133.62" r="80.22"/><circle class="cls-33" cx="274.54" cy="272.39" r="135.96"/><circle class="cls-34" cx="275.51" cy="273.36" r="135.96" transform="translate(-112.6 274.88) rotate(-45)"/><g class="cls-35"><circle class="cls-36" cx="275.66" cy="273.36" r="135.96" transform="translate(-112.56 274.99) rotate(-45)"/></g><path class="cls-37" d="M451.86,374.61s-.44,58-62.54,59.76l-.66,33.48s81.9-6.28,81.1-91.51Z"/><g class="cls-38"><path class="cls-36" d="M552.37,313.91a116.17,116.17,0,1,0-132.67,115c-7.82,3.68-17.47,6.1-29.41,6.44l-.66,33.48s45.7-3.51,68.49-40.82A116.19,116.19,0,0,0,552.37,313.91Z"/></g><circle class="cls-39" cx="260.66" cy="181.5" r="125.7" transform="translate(-51.99 237.48) rotate(-45)"/><circle class="cls-40" cx="261.63" cy="182.47" r="125.7"/><path class="cls-41" d="M259.67,252.39q-16.13,1.05-29.36,3.09-14.87,2.37-12.52,2.22c-1,.07-1.8-.58-2.36-1.95q-1.4-3.31-3.77-13.78A112.19,112.19,0,0,1,209,228c-.09-1.48.82-2.4,2.76-2.76q24.81-4.44,23.78-20.21a15.08,15.08,0,0,0-.57-3.36q-4.77.78-18.66,1.69l-8.53.55q-2.16-.79-2.61-7.68-1.14-17.53-.1-21.23a3.46,3.46,0,0,1,3.21-2.91c.86,0,2.21-.1,4-.15s3.18-.09,4-.14q-8.85-13.38-9.47-22.84-1.23-18.81,15-30.43,13.78-9.93,33.76-11.23,24.87-1.64,42.13,9.21a4.14,4.14,0,0,1,2,3.39q0-.47-1.82,9.85-.51,3-1,13.79a9.52,9.52,0,0,1-1.25,4.19,2.38,2.38,0,0,1-.93.18q1.05-.07-12.76-5.86t-23.73-5.13q-13.91.9-13,14.57.47,7.25,10.07,17.76,5.16-.1,32.14-1.86,4.2-.28,5.21,15.14,1,15.77-4.22,16.11-8.78.57-16.5.61a31,31,0,0,1,1.1,6.15q.62,9.45-7.91,15.41,8.17-.54,24.92-1.86t25-1.87q3.17-.21,3.24,1.08.49,7.47-1.81,27.92-.19,2.35-3.12,2.55-9,.59-26.92,1.87T259.67,252.39Z"/><g class="cls-42"><path class="cls-36" d="M476.08,53.41a80.88,80.88,0,0,0-16.8,1.77,94,94,0,0,0-172.14,4.18A125.72,125.72,0,1,0,387.2,188a93.34,93.34,0,0,0,24.28-6.82,80.21,80.21,0,1,0,64.6-127.75Z"/></g><circle class="cls-43" cx="373.15" cy="93.96" r="93.96"/><circle class="cls-44" cx="374.12" cy="94.93" r="93.96" transform="translate(42.45 292.35) rotate(-45)"/><path class="cls-45" d="M368.73,148.42q-12.12-.57-22.18-.16-11.3.53-9.54.61c-.76,0-1.29-.59-1.59-1.66a76.69,76.69,0,0,1-1.66-10.6A85.41,85.41,0,0,1,333,126c.06-1.11.82-1.72,2.29-1.83q18.9-1.22,19.46-13.08a11.6,11.6,0,0,0-.14-2.56q-3.63.18-14.08-.31l-6.41-.3c-1-.52-1.47-2.51-1.3-6q.61-13.19,1.71-15.86a2.59,2.59,0,0,1,2.64-1.9c.65,0,1.66.11,3,.23s2.38.2,3,.23q-5.49-10.74-5.15-17.85.66-14.14,13.78-21.45Q363,39.07,378,39.77q18.72.88,30.68,10.43a3.05,3.05,0,0,1,1.19,2.69q0-.35-2.18,7.21-.63,2.17-1.89,10.21a7.13,7.13,0,0,1-1.29,3,2,2,0,0,1-.71.06q.8,0-9-5.45t-17.29-5.83Q367,61.62,366.52,71.9q-.25,5.44,6,14.1,3.85.36,24.15,1.32,3.17.14,2.62,11.74-.57,11.86-4.51,11.67-6.6-.3-12.38-.93a22.35,22.35,0,0,1,.31,4.68q-.33,7.11-7.2,10.84,6.15.3,18.76.71t18.86.71c1.58.08,2.35.44,2.32,1.08q-.25,5.63-3.7,20.69c-.23,1.17-1.08,1.71-2.54,1.64q-6.76-.32-20.26-.86T368.73,148.42Z"/><path class="cls-46" d="M254.9,282.83S258.78,385,332.34,425.37l6.31-30.18s-65.47-21.56-68.22-117.86Z"/><path class="cls-47" d="M335.74,318.91s-27.83,244.93-23.19,304.31l1,1,126.13-1s-51-180.92-33.4-286.68C406.25,336.54,356.15,308.7,335.74,318.91Z"/><path class="cls-48" d="M470.73,377.31l-17.9-1.73s-.37,48.08-47.31,58c-2.82-34.14-3-67.8,1.7-96.08,0,0-50.1-27.84-70.51-17.63,0,0-3.39,29.86-7.61,71.26-18.63-10.7-55.65-40.93-57.7-112.84l-15.53,5.5S259.5,379.15,326,422c-7.28,74.61-15.14,168.41-12.5,202.19h127.1S419,547.45,408.75,464.72C432.9,457.1,471.28,435.78,470.73,377.31Z"/><path class="cls-49" d="M555.24,345.41s7.58,39.53,49.81,73.12l-13,16.7s-42-51.38-44.4-86.58Z"/><path class="cls-50" d="M556.21,346.38s7.58,39.53,49.81,73.12l-13,16.7s-42-51.38-44.4-86.58Z"/><circle class="cls-51" cx="468.65" cy="263.32" r="125.7"/><circle class="cls-52" cx="469.62" cy="264.29" r="125.7" transform="translate(-49.34 409.48) rotate(-45)"/><path class="cls-53" d="M605.85,517.5l-25.19,16.36s13.29,54.47,30.56,80.72c0,0,.53,6.66-3.66,11.67-3.09,3.68-11.45,5.2-10.58,9l1,1,11.41-1.62,13.85-17.3S593.41,554.11,605.85,517.5Z"/><path class="cls-54" d="M606.82,518.47l-25.19,16.36s13.29,54.47,30.56,80.72c0,0,.53,6.66-3.66,11.67-3.09,3.68-11.45,5.2-10.58,9l12.38-.65,13.85-17.3S594.38,555.08,606.82,518.47Z"/><path class="cls-53" d="M621.35,403.46a24.53,24.53,0,1,0-48.5,5.18c-24.76-26.36-31-51.63-32.09-56.24,0-.11.29-.25.29-.25l-1-1-7.59,3.25c2,28.56,30,67.75,40.47,81.53-11.52,19.67-26.43,56.32-14.58,101.94h0s11.75,50.44,29,76.68c0,0,.53,6.66-3.66,11.67-3.08,3.68-11.45,5.2-10.57,9l1,1,11.4-1.62,13.85-17.3s-25.33-45.66-15.9-81.76c1-.22,2-.45,3.06-.71,12-3.06,25.83-7.05,17.31-38.78-6.44-23.93-5.75-54.25,1.3-69.51A24.54,24.54,0,0,0,621.35,403.46Z"/><path class="cls-49" d="M622.32,404.43a24.53,24.53,0,1,0-48.5,5.18c-27.33-29.09-32.77-57.46-32.77-57.46l-7.59,3.25c2,28.56,30,67.75,40.47,81.53-11.52,19.67-26.43,56.32-14.58,101.94h0s11.75,50.44,29,76.68c0,0,.53,6.66-3.66,11.67-3.08,3.68-11.45,5.2-10.57,9l12.37-.65,13.85-17.3s-25.33-45.66-15.9-81.76c1-.22,2-.45,3.06-.71,12-3.06,25.83-7,17.31-38.78-6.44-23.93-5.75-54.25,1.3-69.51A24.54,24.54,0,0,0,622.32,404.43Z"/><path class="cls-55" d="M207.22,513.91s-44-14.2-61.43-52.56l-13.5,21.21s27.85,29.68,70.15,40.12Z"/><path class="cls-53" d="M132.55,549.44,110.89,532s.66,40.12.76,48c.11,8.4-29.3,12.73-29.3,12.73s2.07,29,6.91,29S91.33,601,91.33,601s22.4-3.06,28.61-8.59S132.55,549.44,132.55,549.44Z"/><path class="cls-56" d="M133.52,550.41,111.86,533s.66,40.12.76,48c.11,8.4-29.3,12.73-29.3,12.73s2.07,29,6.91,29S92.3,602,92.3,602s22.4-3.06,28.61-8.59S133.52,550.41,133.52,550.41Z"/><circle class="cls-57" cx="235.15" cy="540.25" r="66.64"/><circle class="cls-58" cx="236.12" cy="541.22" r="66.64"/><path class="cls-59" d="M228.25,574.38q-8-1.7-14.7-2.53c-5-.6-7.17-.81-6.4-.65-.5-.1-.79-.53-.87-1.27a51,51,0,0,1,.06-7.22,55.19,55.19,0,0,1,.65-7.15c.15-.73.73-1,1.72-1q12.67,1.26,14.34-6.55a7.73,7.73,0,0,0,.19-1.72q-2.43-.27-9.31-1.74l-4.22-.91c-.63-.45-.7-1.82-.21-4.09q1.84-8.69,2.87-10.34a1.74,1.74,0,0,1,2-1c.43.09,1.09.25,2,.48s1.56.4,2,.49q-2.46-7.72-1.46-12.41,2-9.32,11.49-12.73a32.16,32.16,0,0,1,18-.82q12.33,2.64,19.22,10.28a2.07,2.07,0,0,1,.49,1.92c0-.15-.71,1.36-2.24,4.55-.43.91-1.23,3.1-2.37,6.57a4.83,4.83,0,0,1-1.18,1.86,1.27,1.27,0,0,1-.48,0q.52.11-5.4-4.6c-3.94-3.15-7.56-5.07-10.83-5.77q-6.88-1.47-8.33,5.3-.76,3.58,2.45,10,2.52.66,15.88,3.52c1.39.29,1.54,3,.45,8.08s-2.53,7.62-4.27,7.25q-4.34-.93-8.11-2a15.57,15.57,0,0,1-.3,3.14,8.4,8.4,0,0,1-6,6.41q4,.87,12.37,2.53t12.44,2.53c1,.23,1.51.55,1.42,1a96.79,96.79,0,0,1-4.72,13.33c-.28.75-.91,1-1.87.81q-4.45-1-13.35-2.79T228.25,574.38Z"/><path class="cls-53" d="M195.67,523.43s-23.54-11.87-39.95-35.17a175.44,175.44,0,0,0-13.3-33.56,24.53,24.53,0,1,0-23.58-3.19c2.86,22.59-3.94,49.43-8.12,75.69-2.44,15.33,9.79,24.88,18.49,27.83a25.56,25.56,0,0,0,4.37.91c8.18,36.11-18.76,83.1-18.76,83.1l1,1,30.81.41c2.07-9-17.28-6.91-17.28-6.91,17.25-26.21,29-76.55,29-76.68h0a132.62,132.62,0,0,0,2.43-41.9,141.52,141.52,0,0,0,28.83,16.43l7-7Z"/><path class="cls-49" d="M196.64,524.4s-23.54-11.87-39.95-35.17a175.44,175.44,0,0,0-13.3-33.56,24.53,24.53,0,1,0-23.58-3.19c2.86,22.59-3.94,49.43-8.12,75.69-2.44,15.33,9.79,24.88,18.49,27.83a25.56,25.56,0,0,0,4.37.91C142.73,593,115.79,640,115.79,640l31.78,1.38c2.07-9-17.28-6.91-17.28-6.91,17.25-26.21,29-76.55,29-76.68h0a132.62,132.62,0,0,0,2.43-41.9,141.52,141.52,0,0,0,28.83,16.43Z"/><path class="cls-60" d="M446.2,645.13q-7.74,0-14.14.57c-4.79.44-6.81.67-6.06.67-.48,0-.84-.34-1.06-1a48,48,0,0,1-1.38-6.7,54.34,54.34,0,0,1-.81-6.76c0-.71.47-1.13,1.4-1.24q12-1.35,12-8.92a7.32,7.32,0,0,0-.17-1.62q-2.31.23-9,.22h-4.09c-.68-.3-1-1.55-1-3.76q0-8.42.61-10.15a1.66,1.66,0,0,1,1.63-1.29c.41,0,1.06,0,1.94.05s1.52.06,1.93.06q-3.81-6.68-3.81-11.22,0-9,8.13-14.08a30.45,30.45,0,0,1,16.49-4.32q12,0,19.86,5.72a2,2,0,0,1,.84,1.69q0-.22-1.18,4.65-.33,1.41-.89,6.57a4.59,4.59,0,0,1-.73,2,1.14,1.14,0,0,1-.45.06q.5,0-5.92-3.2t-11.19-3.2q-6.68,0-6.68,6.56,0,3.48,4.27,8.81,2.46.12,15.42.11,2,0,2,7.41,0,7.58-2.52,7.57c-2.81,0-5.44-.07-7.91-.22a15,15,0,0,1,.34,3,8,8,0,0,1-4.27,7.12q3.93,0,12-.11c5.36-.07,9.38-.11,12-.11,1,0,1.52.2,1.52.62a91.31,91.31,0,0,1-1.74,13.29c-.12.75-.64,1.12-1.57,1.12q-4.32,0-12.93.06T446.2,645.13Z"/><path class="cls-61" d="M446.56,645.87q-7.74,0-14.13.56-7.19.68-6.06.67c-.49,0-.84-.33-1.07-1a49.35,49.35,0,0,1-1.37-6.7,54.13,54.13,0,0,1-.81-6.76c0-.71.46-1.12,1.4-1.23q12-1.35,12-8.92a6.86,6.86,0,0,0-.17-1.63q-2.3.23-9,.23h-4.1c-.67-.3-1-1.56-1-3.76q0-8.42.62-10.16a1.65,1.65,0,0,1,1.63-1.29c.41,0,1.05,0,1.93.06s1.53.06,1.94.06q-3.81-6.68-3.82-11.22,0-9,8.14-14.08a30.45,30.45,0,0,1,16.49-4.32q12,0,19.86,5.72a2,2,0,0,1,.84,1.68q0-.22-1.18,4.66-.33,1.4-.9,6.56a4.42,4.42,0,0,1-.73,2,1,1,0,0,1-.44.06c.33,0-1.64-1.06-5.92-3.2s-8-3.19-11.19-3.19q-6.68,0-6.68,6.56,0,3.48,4.26,8.81,2.47.1,15.43.11,2,0,2,7.4,0,7.57-2.52,7.58-4.21,0-7.91-.23a15.13,15.13,0,0,1,.33,3,8,8,0,0,1-4.26,7.13q3.93,0,12-.11t12-.12c1,0,1.51.21,1.51.62a91.4,91.4,0,0,1-1.74,13.3c-.11.74-.63,1.12-1.57,1.12q-4.32,0-12.93,0T446.56,645.87Z"/><path class="cls-60" d="M317.82,628c-3.72,0-7.11.13-10.19.4-3.44.32-4.9.49-4.36.49-.35,0-.6-.25-.77-.73a35.23,35.23,0,0,1-1-4.83,38.59,38.59,0,0,1-.58-4.87c0-.51.34-.8,1-.89q8.64-1,8.64-6.42a5.26,5.26,0,0,0-.12-1.17c-1.1.11-3.26.16-6.46.16h-2.95c-.48-.21-.73-1.12-.73-2.7q0-6.06.45-7.32a1.18,1.18,0,0,1,1.17-.93l1.39,0c.64,0,1.1,0,1.4,0-1.84-3.2-2.75-5.89-2.75-8.07a11.33,11.33,0,0,1,5.86-10.14,21.86,21.86,0,0,1,11.87-3.12q8.61,0,14.3,4.13a1.4,1.4,0,0,1,.61,1.21c0-.11-.28,1-.85,3.35-.16.67-.38,2.25-.64,4.73a3.4,3.4,0,0,1-.53,1.41.76.76,0,0,1-.32,0q.36,0-4.26-2.3a18.63,18.63,0,0,0-8.06-2.3q-4.81,0-4.81,4.72c0,1.67,1,3.79,3.07,6.34,1.18.06,4.89.09,11.11.09,1,0,1.45,1.77,1.45,5.33s-.6,5.45-1.82,5.45c-2,0-3.91,0-5.69-.16a10.7,10.7,0,0,1,.24,2.14,5.73,5.73,0,0,1-3.07,5.13c1.89,0,4.76,0,8.63-.08s6.75-.08,8.66-.08c.73,0,1.09.15,1.09.44a66.34,66.34,0,0,1-1.25,9.58c-.08.54-.46.81-1.13.81q-3.12,0-9.31,0Z"/><path class="cls-62" d="M318.08,628.53q-5.58,0-10.18.4c-3.45.32-4.9.49-4.36.49-.35,0-.61-.25-.77-.73a35.23,35.23,0,0,1-1-4.83,39.29,39.29,0,0,1-.59-4.87c0-.51.34-.81,1-.89q8.66-1,8.65-6.42a5.26,5.26,0,0,0-.12-1.17c-1.11.11-3.26.16-6.47.16h-2.95c-.48-.21-.72-1.12-.72-2.71,0-4,.15-6.47.44-7.31a1.2,1.2,0,0,1,1.17-.93l1.4,0c.63,0,1.09,0,1.39,0q-2.75-4.8-2.75-8.08,0-6.5,5.86-10.14A22,22,0,0,1,320,578.47q8.59,0,14.3,4.12a1.46,1.46,0,0,1,.61,1.22c0-.11-.29,1-.85,3.35-.16.67-.38,2.25-.65,4.73a3.36,3.36,0,0,1-.52,1.41.85.85,0,0,1-.33,0q.36,0-4.26-2.3a18.59,18.59,0,0,0-8.06-2.31c-3.2,0-4.81,1.58-4.81,4.73,0,1.67,1,3.79,3.07,6.34,1.19.06,4.89.08,11.11.08q1.46,0,1.46,5.34t-1.82,5.45c-2,0-3.92,0-5.7-.16a10.76,10.76,0,0,1,.25,2.14,5.75,5.75,0,0,1-3.07,5.13c1.88,0,4.76,0,8.62-.08s6.75-.08,8.67-.08c.72,0,1.09.15,1.09.44a65.36,65.36,0,0,1-1.26,9.58c-.08.54-.45.81-1.13.81q-3.1,0-9.31,0Z"/><path class="cls-53" d="M497.71,597.53c-1.84-14.69,5.92-30.74,12.5-43.1L488,547.83s-17.8,56.07,17.2,83.72c0,0-19.35-2.07-17.27,6.91l1,1,30.8-2.35S500.79,622.26,497.71,597.53Z"/><path class="cls-63" d="M498.68,598.5c-1.84-14.69,5.92-30.74,12.5-43.1L489,548.8s-17.8,56.07,17.2,83.72c0,0-19.35-2.07-17.27,6.91l31.77-1.38S501.76,623.23,498.68,598.5Z"/><path class="cls-53" d="M552.52,584.64s-24.25,9.61-26.53,1.52c-3.69-13.08-5.36-30.42-5.89-37a25.24,25.24,0,0,0-1-20.58c-8.25-16.66-17.85-28-48-34.93a24.52,24.52,0,1,0-7.12,20.1,35,35,0,0,1,8.24,7.48c2.62,36.77-23.64,68.55-23.64,68.55l5.51,6.34s1,1,1,1,24.81-33,30.77-48.81a20.51,20.51,0,0,0,11.6,11.36c5.18,11.38,17.45,37.28,23.09,40.45,7.24,4.08,25-5.42,25-5.42s1.69,20.84,6.42,19.81c4.28-.93,1.56-28.85,1.56-28.85Z"/><path class="cls-49" d="M553.49,585.61s-24.25,9.61-26.53,1.52c-3.69-13.08-5.36-30.42-5.89-37a25.24,25.24,0,0,0-1-20.58c-8.25-16.66-17.85-28-48-34.93A24.52,24.52,0,1,0,465,514.7a35,35,0,0,1,8.24,7.48c2.62,36.77-23.64,68.55-23.64,68.55l5.51,6.34c15.63-11.88,25.77-32,31.74-47.84a20.51,20.51,0,0,0,11.6,11.36C503.59,572,515.86,597.87,521.5,601c7.24,4.08,25-5.42,25-5.42s1.69,20.84,6.42,19.81S553.49,585.61,553.49,585.61Z"/><g class="cls-64"><path class="cls-36" d="M324.23,219.38A106.62,106.62,0,0,0,256,407.91a136.61,136.61,0,0,0,50-2A123.25,123.25,0,0,0,326,422c-.34,3.5-.69,7.05-1,10.63a106.63,106.63,0,0,0-.76-213.25Z"/></g><circle class="cls-65" cx="298.25" cy="291.82" r="77.37"/><circle class="cls-66" cx="299.22" cy="292.79" r="77.37"/><path class="cls-60" d="M396.29,634q-6.1,0-11.15.44c-3.77.36-5.37.54-4.78.54-.38,0-.66-.27-.84-.8a40.55,40.55,0,0,1-1.08-5.29,41.9,41.9,0,0,1-.64-5.33c0-.56.37-.88,1.1-1q9.47-1.07,9.47-7a5.6,5.6,0,0,0-.13-1.28q-1.82.18-7.08.18h-3.23c-.53-.24-.8-1.23-.8-3q0-6.63.49-8a1.3,1.3,0,0,1,1.28-1c.33,0,.84,0,1.53,0s1.2,0,1.53,0q-3-5.26-3-8.85c0-4.74,2.14-8.45,6.41-11.1a24,24,0,0,1,13-3.41q9.42,0,15.66,4.51a1.56,1.56,0,0,1,.67,1.33c0-.12-.31,1.11-.93,3.67-.18.74-.42,2.47-.71,5.18a3.66,3.66,0,0,1-.57,1.55,1,1,0,0,1-.36,0q.4,0-4.67-2.52a20.41,20.41,0,0,0-8.82-2.52q-5.26,0-5.27,5.18,0,2.74,3.36,6.94,1.95.09,12.17.09,1.59,0,1.59,5.84c0,4-.66,6-2,6q-3.31,0-6.24-.18a11.44,11.44,0,0,1,.27,2.34,6.27,6.27,0,0,1-3.36,5.62q3.09,0,9.44-.09t9.49-.08q1.2,0,1.2.48A72.56,72.56,0,0,1,417.93,633c-.09.59-.5.88-1.24.88q-3.4,0-10.2.05T396.29,634Z"/><path class="cls-67" d="M396.58,634.58q-6.1,0-11.15.44c-3.77.36-5.37.54-4.78.54-.38,0-.66-.27-.84-.8a40.55,40.55,0,0,1-1.08-5.29,42.1,42.1,0,0,1-.64-5.33c0-.56.36-.89,1.1-1q9.46-1.06,9.47-7a5.6,5.6,0,0,0-.13-1.28q-1.81.18-7.08.18h-3.23c-.53-.24-.8-1.23-.8-3q0-6.63.49-8a1.3,1.3,0,0,1,1.28-1c.33,0,.84,0,1.53.05s1.2,0,1.53,0q-3-5.26-3-8.85c0-4.74,2.14-8.45,6.41-11.1a24,24,0,0,1,13-3.41q9.42,0,15.66,4.51a1.56,1.56,0,0,1,.67,1.33c0-.12-.31,1.11-.93,3.67-.18.74-.42,2.47-.71,5.18a3.56,3.56,0,0,1-.58,1.55.87.87,0,0,1-.35,0q.4,0-4.67-2.52a20.41,20.41,0,0,0-8.82-2.52q-5.26,0-5.27,5.18,0,2.75,3.36,6.94,2,.09,12.17.09,1.59,0,1.59,5.84c0,4-.66,6-2,6q-3.32,0-6.24-.18a11.44,11.44,0,0,1,.27,2.34,6.27,6.27,0,0,1-3.36,5.62q3.09,0,9.44-.09t9.49-.08q1.2,0,1.2.48a72.56,72.56,0,0,1-1.37,10.49c-.09.59-.5.88-1.24.88q-3.41,0-10.2,0T396.58,634.58Z"/><path class="cls-68" d="M480.7,327.46q-15.13,2.88-27.43,6.35-13.78,4-11.59,3.58c-.95.18-1.77-.35-2.46-1.58A99.08,99.08,0,0,1,434,323.22a105.43,105.43,0,0,1-4.1-12.91q-.4-2.08,2.28-2.94,23-7.1,20.14-21.9a14.07,14.07,0,0,0-.93-3.11Q447,283.65,434,286.13l-8,1.53c-1.42-.33-2.55-2.66-3.37-7q-3.13-16.45-2.57-20.08a3.27,3.27,0,0,1,2.7-3.12c.8-.16,2.07-.36,3.8-.61s3-.46,3.8-.62q-9.93-11.62-11.63-20.5-3.36-17.65,10.66-30.55,11.88-11,30.63-14.58,23.34-4.45,40.94,3.79a3.9,3.9,0,0,1,2.27,3c-.05-.29-.25,2.89-.57,9.54q-.14,2.87.69,13.16a9.14,9.14,0,0,1-.69,4.11,2.33,2.33,0,0,1-.86.28q1-.19-12.76-4t-23.06-2.08q-13.05,2.49-10.61,15.31,1.31,6.81,11.61,15.63,4.88-.71,30.2-5.52,3.94-.77,6.7,13.72,2.82,14.81-2.11,15.74-8.22,1.56-15.55,2.51a28.55,28.55,0,0,1,1.77,5.68q1.69,8.88-5.68,15.51,7.67-1.46,23.37-4.67t23.47-4.7c2-.38,3-.17,3.19.64q1.34,7,1.55,26.63c.06,1.51-.82,2.43-2.65,2.78q-8.44,1.61-25.25,4.92T480.7,327.46Z"/><path class="cls-69" d="M298.78,331.78q-9,.78-16.42,2.09-8.3,1.51-7,1.4c-.57.05-1-.3-1.35-1.07a59,59,0,0,1-2.28-7.67,63.81,63.81,0,0,1-1.64-7.8c-.07-.82.43-1.35,1.51-1.58q13.86-2.79,13.09-11.61a8.37,8.37,0,0,0-.36-1.88q-2.67.49-10.44,1.17l-4.78.42c-.81-.28-1.33-1.71-1.56-4.28q-.85-9.81-.31-11.9A1.94,1.94,0,0,1,269,287.4c.47,0,1.23-.08,2.26-.13s1.78-.09,2.26-.13q-5.13-7.39-5.59-12.69Q267,263.92,276,257.21q7.61-5.73,18.78-6.71,13.94-1.22,23.73,4.65a2.29,2.29,0,0,1,1.15,1.87q0-.25-.9,5.55-.24,1.67-.38,7.74a5.17,5.17,0,0,1-.65,2.36,1.24,1.24,0,0,1-.51.12q.58-.06-7.23-3.13t-13.37-2.59q-7.77.69-7.11,8.33.36,4.07,5.87,9.83,2.88-.12,18-1.44c1.57-.13,2.6,2.68,3.11,8.43s-.21,8.91-2.18,9.08q-4.91.43-9.24.55a17.28,17.28,0,0,1,.7,3.43q.47,5.3-4.25,8.74,4.58-.4,13.95-1.35t14-1.36q1.77-.15,1.83.57.38,4.19-.67,15.67c-.06.88-.63,1.37-1.72,1.47q-5,.44-15.06,1.38C307.16,331,302.14,331.49,298.78,331.78Z"/></g></g></g></svg>